<svg xmlns="http://www.w3.org/2000/svg" width="1200" height="2217" viewBox="0 0 1200 2217">
<rect width="100%" height="100%" fill="white"/>
<style>text{font-family:Arial,Helvetica,sans-serif;} .title{font-size:30px;font-weight:700;fill:#101828;} .meta{font-size:18px;fill:#667085;} .node{font-size:24px;fill:#18181b;} .line{stroke:#a6b0c3;stroke-width:3;fill:none;} .bullet{fill:#465d7f;} .box{fill:#f8fafc;stroke:#cbd5e1;stroke-width:2;}</style>
<text x="40" y="52" class="title">2307.05527 Gold Outline Tree</text>
<text x="40" y="86" class="meta">Source: data/paper_sets/meow_refs/2307.05527/outline.json | Nodes: 30</text>
<path class="line" d="M 50 192.0 L 50 253.5 L 160 253.5"/>
<path class="line" d="M 50 192.0 L 50 315.0 L 160 315.0"/>
<path class="line" d="M 50 192.0 L 50 377.0 L 160 377.0"/>
<path class="line" d="M 50 439.0 L 50 503.0 L 160 503.0"/>
<path class="line" d="M 160 503.0 L 160 577.0 L 270 577.0"/>
<path class="line" d="M 160 503.0 L 160 651.0 L 270 651.0"/>
<path class="line" d="M 50 439.0 L 50 715.0 L 160 715.0"/>
<path class="line" d="M 50 439.0 L 50 779.0 L 160 779.0"/>
<path class="line" d="M 50 843.0 L 50 904.5 L 160 904.5"/>
<path class="line" d="M 50 843.0 L 50 978.5 L 160 978.5"/>
<path class="line" d="M 160 978.5 L 160 1070.0 L 270 1070.0"/>
<path class="line" d="M 160 978.5 L 160 1149.0 L 270 1149.0"/>
<path class="line" d="M 160 978.5 L 160 1210.5 L 270 1210.5"/>
<path class="line" d="M 160 978.5 L 160 1272.0 L 270 1272.0"/>
<path class="line" d="M 160 978.5 L 160 1336.0 L 270 1336.0"/>
<path class="line" d="M 50 843.0 L 50 1415.0 L 160 1415.0"/>
<path class="line" d="M 160 1415.0 L 160 1494.0 L 270 1494.0"/>
<path class="line" d="M 160 1415.0 L 160 1558.0 L 270 1558.0"/>
<path class="line" d="M 160 1415.0 L 160 1622.0 L 270 1622.0"/>
<path class="line" d="M 160 1415.0 L 160 1696.5 L 270 1696.5"/>
<path class="line" d="M 50 843.0 L 50 1786.0 L 160 1786.0"/>
<path class="line" d="M 160 1786.0 L 160 1877.5 L 270 1877.5"/>
<path class="line" d="M 160 1786.0 L 160 1954.0 L 270 1954.0"/>
<path class="line" d="M 160 1786.0 L 160 2018.0 L 270 2018.0"/>
<circle class="bullet" cx="50" cy="130.5" r="6"/>
<rect class="box" x="76" y="110" width="173" height="41" rx="8" ry="8"/>
<text x="90" y="144" class="node">
<tspan x="90" dy="0">1 Introduction</tspan>
</text>
<circle class="bullet" cx="50" cy="192.0" r="6"/>
<rect class="box" x="76" y="169" width="342" height="46" rx="8" ry="8"/>
<text x="90" y="203" class="node">
<tspan x="90" dy="0">2 Background and Definitions</tspan>
</text>
<circle class="bullet" cx="160" cy="253.5" r="6"/>
<rect class="box" x="186" y="233" width="338" height="41" rx="8" ry="8"/>
<text x="200" y="267" class="node">
<tspan x="200" dy="0">2.1 Generative Audio Models</tspan>
</text>
<circle class="bullet" cx="160" cy="315.0" r="6"/>
<rect class="box" x="186" y="292" width="232" height="46" rx="8" ry="8"/>
<text x="200" y="326" class="node">
<tspan x="200" dy="0">2.2 Broader Impact</tspan>
</text>
<circle class="bullet" cx="160" cy="377.0" r="6"/>
<rect class="box" x="186" y="356" width="285" height="42" rx="8" ry="8"/>
<text x="200" y="390" class="node">
<tspan x="200" dy="0">2.3 Research Questions</tspan>
</text>
<circle class="bullet" cx="50" cy="439.0" r="6"/>
<rect class="box" x="76" y="416" width="289" height="46" rx="8" ry="8"/>
<text x="90" y="450" class="node">
<tspan x="90" dy="0">3 Data and Methodology</tspan>
</text>
<circle class="bullet" cx="160" cy="503.0" r="6"/>
<rect class="box" x="186" y="480" width="240" height="46" rx="8" ry="8"/>
<text x="200" y="514" class="node">
<tspan x="200" dy="0">3.1 Search Strategy</tspan>
</text>
<circle class="bullet" cx="270" cy="577.0" r="6"/>
<rect class="box" x="296" y="544" width="339" height="66" rx="8" ry="8"/>
<text x="310" y="578" class="node">
<tspan x="310" dy="0">3.1.1 Inclusion and Exclusion</tspan>
<tspan x="310" dy="32">Criteria</tspan>
</text>
<circle class="bullet" cx="270" cy="651.0" r="6"/>
<rect class="box" x="296" y="628" width="264" height="46" rx="8" ry="8"/>
<text x="310" y="662" class="node">
<tspan x="310" dy="0">3.1.2 Keyword Search</tspan>
</text>
<circle class="bullet" cx="160" cy="715.0" r="6"/>
<rect class="box" x="186" y="692" width="370" height="46" rx="8" ry="8"/>
<text x="200" y="726" class="node">
<tspan x="200" dy="0">3.2 Title and Abstract Screening</tspan>
</text>
<circle class="bullet" cx="160" cy="779.0" r="6"/>
<rect class="box" x="186" y="756" width="275" height="46" rx="8" ry="8"/>
<text x="200" y="790" class="node">
<tspan x="200" dy="0">3.3 Full Text Screening</tspan>
</text>
<circle class="bullet" cx="50" cy="843.0" r="6"/>
<rect class="box" x="76" y="820" width="271" height="46" rx="8" ry="8"/>
<text x="90" y="854" class="node">
<tspan x="90" dy="0">4 Analysis and Results</tspan>
</text>
<circle class="bullet" cx="160" cy="904.5" r="6"/>
<rect class="box" x="186" y="884" width="169" height="41" rx="8" ry="8"/>
<text x="200" y="918" class="node">
<tspan x="200" dy="0">4.1 Overview</tspan>
</text>
<circle class="bullet" cx="160" cy="978.5" r="6"/>
<rect class="box" x="186" y="943" width="371" height="71" rx="8" ry="8"/>
<text x="200" y="977" class="node">
<tspan x="200" dy="0">4.2 Negative Broader Impacts in</tspan>
<tspan x="200" dy="32">Music</tspan>
</text>
<circle class="bullet" cx="270" cy="1070.0" r="6"/>
<rect class="box" x="296" y="1032" width="299" height="76" rx="8" ry="8"/>
<text x="310" y="1066" class="node">
<tspan x="310" dy="0">4.2.1 Loss of Agency and</tspan>
<tspan x="310" dy="32">Authorship</tspan>
</text>
<circle class="bullet" cx="270" cy="1149.0" r="6"/>
<rect class="box" x="296" y="1126" width="267" height="46" rx="8" ry="8"/>
<text x="310" y="1160" class="node">
<tspan x="310" dy="0">4.2.2 Creativity Stifling</tspan>
</text>
<circle class="bullet" cx="270" cy="1210.5" r="6"/>
<rect class="box" x="296" y="1190" width="419" height="41" rx="8" ry="8"/>
<text x="310" y="1224" class="node">
<tspan x="310" dy="0">4.2.3 Predominance of Western Bias</tspan>
</text>
<circle class="bullet" cx="270" cy="1272.0" r="6"/>
<rect class="box" x="296" y="1249" width="331" height="46" rx="8" ry="8"/>
<text x="310" y="1283" class="node">
<tspan x="310" dy="0">4.2.4 Copyright Infringement</tspan>
</text>
<circle class="bullet" cx="270" cy="1336.0" r="6"/>
<rect class="box" x="296" y="1313" width="320" height="46" rx="8" ry="8"/>
<text x="310" y="1347" class="node">
<tspan x="310" dy="0">4.2.5 Cultural Appropriation</tspan>
</text>
<circle class="bullet" cx="160" cy="1415.0" r="6"/>
<rect class="box" x="186" y="1377" width="371" height="76" rx="8" ry="8"/>
<text x="200" y="1411" class="node">
<tspan x="200" dy="0">4.3 Negative Broader Impacts in</tspan>
<tspan x="200" dy="32">Speech</tspan>
</text>
<circle class="bullet" cx="270" cy="1494.0" r="6"/>
<rect class="box" x="296" y="1471" width="296" height="46" rx="8" ry="8"/>
<text x="310" y="1505" class="node">
<tspan x="310" dy="0">4.3.1 Phishing and Fraud</tspan>
</text>
<circle class="bullet" cx="270" cy="1558.0" r="6"/>
<rect class="box" x="296" y="1535" width="412" height="46" rx="8" ry="8"/>
<text x="310" y="1569" class="node">
<tspan x="310" dy="0">4.3.2 Misinformation and Deepfakes</tspan>
</text>
<circle class="bullet" cx="270" cy="1622.0" r="6"/>
<rect class="box" x="296" y="1599" width="307" height="46" rx="8" ry="8"/>
<text x="310" y="1633" class="node">
<tspan x="310" dy="0">4.3.3 Security and Privacy</tspan>
</text>
<circle class="bullet" cx="270" cy="1696.5" r="6"/>
<rect class="box" x="296" y="1663" width="339" height="67" rx="8" ry="8"/>
<text x="310" y="1697" class="node">
<tspan x="310" dy="0">4.3.4 Non-consensual Use of</tspan>
<tspan x="310" dy="32">Biometric Data</tspan>
</text>
<circle class="bullet" cx="160" cy="1786.0" r="6"/>
<rect class="box" x="186" y="1748" width="371" height="76" rx="8" ry="8"/>
<text x="200" y="1782" class="node">
<tspan x="200" dy="0">4.4 Negative Broader Impacts in</tspan>
<tspan x="200" dy="32">Both Music and Speech</tspan>
</text>
<circle class="bullet" cx="270" cy="1877.5" r="6"/>
<rect class="box" x="296" y="1842" width="340" height="71" rx="8" ry="8"/>
<text x="310" y="1876" class="node">
<tspan x="310" dy="0">4.4.1 Energy Consumption of</tspan>
<tspan x="310" dy="32">Generative Audio Models</tspan>
</text>
<circle class="bullet" cx="270" cy="1954.0" r="6"/>
<rect class="box" x="296" y="1931" width="359" height="46" rx="8" ry="8"/>
<text x="310" y="1965" class="node">
<tspan x="310" dy="0">4.4.2 Overuse of Speaker Data</tspan>
</text>
<circle class="bullet" cx="270" cy="2018.0" r="6"/>
<rect class="box" x="296" y="1995" width="250" height="46" rx="8" ry="8"/>
<text x="310" y="2029" class="node">
<tspan x="310" dy="0">4.4.3 Unemployment</tspan>
</text>
<circle class="bullet" cx="50" cy="2079.5" r="6"/>
<rect class="box" x="76" y="2059" width="164" height="41" rx="8" ry="8"/>
<text x="90" y="2093" class="node">
<tspan x="90" dy="0">5 Discussion</tspan>
</text>
<circle class="bullet" cx="50" cy="2138.5" r="6"/>
<rect class="box" x="76" y="2118" width="167" height="41" rx="8" ry="8"/>
<text x="90" y="2152" class="node">
<tspan x="90" dy="0">6 Conclusion</tspan>
</text>
</svg>