<svg xmlns="http://www.w3.org/2000/svg" width="1200" height="3744" viewBox="0 0 1200 3744">
<rect width="100%" height="100%" fill="white"/>
<style>text{font-family:Arial,Helvetica,sans-serif;} .title{font-size:30px;font-weight:700;fill:#101828;} .meta{font-size:18px;fill:#667085;} .node{font-size:24px;fill:#18181b;} .line{stroke:#a6b0c3;stroke-width:3;fill:none;} .bullet{fill:#465d7f;} .box{fill:#f8fafc;stroke:#cbd5e1;stroke-width:2;}</style>
<text x="40" y="52" class="title">2307.05527 Ablation (With Meta Abstract) Outline Tree</text>
<text x="40" y="86" class="meta">Source: results/2307.05527/ablation_with_meta_abstract/chatgpt_meow_outline_blind.json | Nodes: 36</text>
<path class="line" d="M 50 133.0 L 50 227.0 L 160 227.0"/>
<path class="line" d="M 50 133.0 L 50 351.0 L 160 351.0"/>
<path class="line" d="M 50 460.0 L 50 554.0 L 160 554.0"/>
<path class="line" d="M 50 460.0 L 50 633.0 L 160 633.0"/>
<path class="line" d="M 50 460.0 L 50 712.0 L 160 712.0"/>
<path class="line" d="M 50 460.0 L 50 806.0 L 160 806.0"/>
<path class="line" d="M 50 900.0 L 50 994.0 L 160 994.0"/>
<path class="line" d="M 50 900.0 L 50 1088.0 L 160 1088.0"/>
<path class="line" d="M 50 900.0 L 50 1197.0 L 160 1197.0"/>
<path class="line" d="M 50 1291.0 L 50 1370.0 L 160 1370.0"/>
<path class="line" d="M 50 1291.0 L 50 1479.0 L 160 1479.0"/>
<path class="line" d="M 50 1291.0 L 50 1603.0 L 160 1603.0"/>
<path class="line" d="M 50 1712.0 L 50 1821.0 L 160 1821.0"/>
<path class="line" d="M 50 1712.0 L 50 1945.0 L 160 1945.0"/>
<path class="line" d="M 50 1712.0 L 50 2054.0 L 160 2054.0"/>
<path class="line" d="M 50 2148.0 L 50 2242.0 L 160 2242.0"/>
<path class="line" d="M 50 2148.0 L 50 2351.0 L 160 2351.0"/>
<path class="line" d="M 50 2148.0 L 50 2460.0 L 160 2460.0"/>
<path class="line" d="M 50 2148.0 L 50 2569.0 L 160 2569.0"/>
<path class="line" d="M 50 2148.0 L 50 2693.0 L 160 2693.0"/>
<path class="line" d="M 50 2148.0 L 50 2802.0 L 160 2802.0"/>
<path class="line" d="M 50 2881.0 L 50 2975.0 L 160 2975.0"/>
<path class="line" d="M 50 2881.0 L 50 3084.0 L 160 3084.0"/>
<path class="line" d="M 50 2881.0 L 50 3178.0 L 160 3178.0"/>
<path class="line" d="M 50 2881.0 L 50 3287.0 L 160 3287.0"/>
<path class="line" d="M 50 3381.0 L 50 3460.0 L 160 3460.0"/>
<path class="line" d="M 50 3381.0 L 50 3569.0 L 160 3569.0"/>
<path class="line" d="M 50 3381.0 L 50 3663.0 L 160 3663.0"/>
<circle class="bullet" cx="50" cy="133.0" r="6"/>
<rect class="box" x="76" y="110" width="212" height="46" rx="8" ry="8"/>
<text x="90" y="139" class="node">
<tspan x="90" dy="0">1 Introduction</tspan>
</text>
<circle class="bullet" cx="160" cy="227.0" r="6"/>
<rect class="box" x="186" y="174" width="407" height="106" rx="8" ry="8"/>
<text x="200" y="203" class="node">
<tspan x="200" dy="0">1.1 Rapid progress and</tspan>
<tspan x="200" dy="30">expanding reach of generative</tspan>
<tspan x="200" dy="30">audio</tspan>
</text>
<circle class="bullet" cx="160" cy="351.0" r="6"/>
<rect class="box" x="186" y="298" width="368" height="106" rx="8" ry="8"/>
<text x="200" y="327" class="node">
<tspan x="200" dy="0">1.2 Why generative audio</tspan>
<tspan x="200" dy="30">requires dedicated ethical</tspan>
<tspan x="200" dy="30">scrutiny</tspan>
</text>
<circle class="bullet" cx="50" cy="460.0" r="6"/>
<rect class="box" x="76" y="422" width="368" height="76" rx="8" ry="8"/>
<text x="90" y="451" class="node">
<tspan x="90" dy="0">2 Background on Generative</tspan>
<tspan x="90" dy="30">Audio Models</tspan>
</text>
<circle class="bullet" cx="160" cy="554.0" r="6"/>
<rect class="box" x="186" y="516" width="381" height="76" rx="8" ry="8"/>
<text x="200" y="545" class="node">
<tspan x="200" dy="0">2.1 Core model families and</tspan>
<tspan x="200" dy="30">architectural foundations</tspan>
</text>
<circle class="bullet" cx="160" cy="633.0" r="6"/>
<rect class="box" x="186" y="610" width="433" height="46" rx="8" ry="8"/>
<text x="200" y="639" class="node">
<tspan x="200" dy="0">2.2 Speech and voice generation</tspan>
</text>
<circle class="bullet" cx="160" cy="712.0" r="6"/>
<rect class="box" x="186" y="674" width="381" height="76" rx="8" ry="8"/>
<text x="200" y="703" class="node">
<tspan x="200" dy="0">2.3 Music and general audio</tspan>
<tspan x="200" dy="30">generation</tspan>
</text>
<circle class="bullet" cx="160" cy="806.0" r="6"/>
<rect class="box" x="186" y="768" width="381" height="76" rx="8" ry="8"/>
<text x="200" y="797" class="node">
<tspan x="200" dy="0">2.4 Multimodal and creative</tspan>
<tspan x="200" dy="30">extensions</tspan>
</text>
<circle class="bullet" cx="50" cy="900.0" r="6"/>
<rect class="box" x="76" y="862" width="342" height="76" rx="8" ry="8"/>
<text x="90" y="891" class="node">
<tspan x="90" dy="0">3 Frameworks for Ethical</tspan>
<tspan x="90" dy="30">Assessment</tspan>
</text>
<circle class="bullet" cx="160" cy="994.0" r="6"/>
<rect class="box" x="186" y="956" width="407" height="76" rx="8" ry="8"/>
<text x="200" y="985" class="node">
<tspan x="200" dy="0">3.1 Broader impact statements</tspan>
<tspan x="200" dy="30">and peer review reforms</tspan>
</text>
<circle class="bullet" cx="160" cy="1088.0" r="6"/>
<rect class="box" x="186" y="1050" width="407" height="76" rx="8" ry="8"/>
<text x="200" y="1079" class="node">
<tspan x="200" dy="0">3.2 Sociotechnical harms and</tspan>
<tspan x="200" dy="30">algorithmic impact assessment</tspan>
</text>
<circle class="bullet" cx="160" cy="1197.0" r="6"/>
<rect class="box" x="186" y="1144" width="420" height="106" rx="8" ry="8"/>
<text x="200" y="1173" class="node">
<tspan x="200" dy="0">3.3 Public perception,</tspan>
<tspan x="200" dy="30">accountability, and governance</tspan>
<tspan x="200" dy="30">pressures</tspan>
</text>
<circle class="bullet" cx="50" cy="1291.0" r="6"/>
<rect class="box" x="76" y="1268" width="433" height="46" rx="8" ry="8"/>
<text x="90" y="1297" class="node">
<tspan x="90" dy="0">4 Systematic Review Methodology</tspan>
</text>
<circle class="bullet" cx="160" cy="1370.0" r="6"/>
<rect class="box" x="186" y="1332" width="433" height="76" rx="8" ry="8"/>
<text x="200" y="1361" class="node">
<tspan x="200" dy="0">4.1 Review design and reporting</tspan>
<tspan x="200" dy="30">standards</tspan>
</text>
<circle class="bullet" cx="160" cy="1479.0" r="6"/>
<rect class="box" x="186" y="1426" width="420" height="106" rx="8" ry="8"/>
<text x="200" y="1455" class="node">
<tspan x="200" dy="0">4.2 Search strategy, inclusion</tspan>
<tspan x="200" dy="30">criteria, and corpus</tspan>
<tspan x="200" dy="30">construction</tspan>
</text>
<circle class="bullet" cx="160" cy="1603.0" r="6"/>
<rect class="box" x="186" y="1550" width="420" height="106" rx="8" ry="8"/>
<text x="200" y="1579" class="node">
<tspan x="200" dy="0">4.3 Coding scheme for positive</tspan>
<tspan x="200" dy="30">impacts, negative impacts, and</tspan>
<tspan x="200" dy="30">ethical themes</tspan>
</text>
<circle class="bullet" cx="50" cy="1712.0" r="6"/>
<rect class="box" x="76" y="1674" width="381" height="76" rx="8" ry="8"/>
<text x="90" y="1703" class="node">
<tspan x="90" dy="0">5 How the Literature Frames</tspan>
<tspan x="90" dy="30">Impact</tspan>
</text>
<circle class="bullet" cx="160" cy="1821.0" r="6"/>
<rect class="box" x="186" y="1768" width="420" height="106" rx="8" ry="8"/>
<text x="200" y="1797" class="node">
<tspan x="200" dy="0">5.1 Positive applications</tspan>
<tspan x="200" dy="30">emphasized in generative audio</tspan>
<tspan x="200" dy="30">research</tspan>
</text>
<circle class="bullet" cx="160" cy="1945.0" r="6"/>
<rect class="box" x="186" y="1892" width="342" height="106" rx="8" ry="8"/>
<text x="200" y="1921" class="node">
<tspan x="200" dy="0">5.2 Limited treatment of</tspan>
<tspan x="200" dy="30">negative impacts and</tspan>
<tspan x="200" dy="30">externalities</tspan>
</text>
<circle class="bullet" cx="160" cy="2054.0" r="6"/>
<rect class="box" x="186" y="2016" width="420" height="76" rx="8" ry="8"/>
<text x="200" y="2045" class="node">
<tspan x="200" dy="0">5.3 From technical progress to</tspan>
<tspan x="200" dy="30">ethical blind spots</tspan>
</text>
<circle class="bullet" cx="50" cy="2148.0" r="6"/>
<rect class="box" x="76" y="2110" width="303" height="76" rx="8" ry="8"/>
<text x="90" y="2139" class="node">
<tspan x="90" dy="0">6 Taxonomy of Ethical</tspan>
<tspan x="90" dy="30">Implications</tspan>
</text>
<circle class="bullet" cx="160" cy="2242.0" r="6"/>
<rect class="box" x="186" y="2204" width="407" height="76" rx="8" ry="8"/>
<text x="200" y="2233" class="node">
<tspan x="200" dy="0">6.1 Fraud, impersonation, and</tspan>
<tspan x="200" dy="30">voice deepfakes</tspan>
</text>
<circle class="bullet" cx="160" cy="2351.0" r="6"/>
<rect class="box" x="186" y="2298" width="368" height="106" rx="8" ry="8"/>
<text x="200" y="2327" class="node">
<tspan x="200" dy="0">6.2 Privacy, biometric</tspan>
<tspan x="200" dy="30">identity, and surveillance</tspan>
<tspan x="200" dy="30">risks</tspan>
</text>
<circle class="bullet" cx="160" cy="2460.0" r="6"/>
<rect class="box" x="186" y="2422" width="433" height="76" rx="8" ry="8"/>
<text x="200" y="2451" class="node">
<tspan x="200" dy="0">6.3 Copyright, memorization,</tspan>
<tspan x="200" dy="30">and ownership of creative works</tspan>
</text>
<circle class="bullet" cx="160" cy="2569.0" r="6"/>
<rect class="box" x="186" y="2516" width="433" height="106" rx="8" ry="8"/>
<text x="200" y="2545" class="node">
<tspan x="200" dy="0">6.4 Bias, representation, and</tspan>
<tspan x="200" dy="30">unequal access across speakers,</tspan>
<tspan x="200" dy="30">languages, and accents</tspan>
</text>
<circle class="bullet" cx="160" cy="2693.0" r="6"/>
<rect class="box" x="186" y="2640" width="368" height="106" rx="8" ry="8"/>
<text x="200" y="2669" class="node">
<tspan x="200" dy="0">6.5 Environmental costs,</tspan>
<tspan x="200" dy="30">compute concentration, and</tspan>
<tspan x="200" dy="30">labor impacts</tspan>
</text>
<circle class="bullet" cx="160" cy="2802.0" r="6"/>
<rect class="box" x="186" y="2764" width="407" height="76" rx="8" ry="8"/>
<text x="200" y="2793" class="node">
<tspan x="200" dy="0">6.6 Multimodal misinformation</tspan>
<tspan x="200" dy="30">and media manipulation</tspan>
</text>
<circle class="bullet" cx="50" cy="2881.0" r="6"/>
<rect class="box" x="76" y="2858" width="381" height="46" rx="8" ry="8"/>
<text x="90" y="2887" class="node">
<tspan x="90" dy="0">7 Mitigation and Governance</tspan>
</text>
<circle class="bullet" cx="160" cy="2975.0" r="6"/>
<rect class="box" x="186" y="2922" width="433" height="106" rx="8" ry="8"/>
<text x="200" y="2951" class="node">
<tspan x="200" dy="0">7.1 Technical safeguards:</tspan>
<tspan x="200" dy="30">detection, attribution,</tspan>
<tspan x="200" dy="30">watermarking, and anonymization</tspan>
</text>
<circle class="bullet" cx="160" cy="3084.0" r="6"/>
<rect class="box" x="186" y="3046" width="420" height="76" rx="8" ry="8"/>
<text x="200" y="3075" class="node">
<tspan x="200" dy="0">7.2 Responsible research</tspan>
<tspan x="200" dy="30">practices and disclosure norms</tspan>
</text>
<circle class="bullet" cx="160" cy="3178.0" r="6"/>
<rect class="box" x="186" y="3140" width="329" height="76" rx="8" ry="8"/>
<text x="200" y="3169" class="node">
<tspan x="200" dy="0">7.3 Legal, policy, and</tspan>
<tspan x="200" dy="30">institutional responses</tspan>
</text>
<circle class="bullet" cx="160" cy="3287.0" r="6"/>
<rect class="box" x="186" y="3234" width="420" height="106" rx="8" ry="8"/>
<text x="200" y="3263" class="node">
<tspan x="200" dy="0">7.4 Toward ethics-aware</tspan>
<tspan x="200" dy="30">evaluation of generative audio</tspan>
<tspan x="200" dy="30">systems</tspan>
</text>
<circle class="bullet" cx="50" cy="3381.0" r="6"/>
<rect class="box" x="76" y="3358" width="381" height="46" rx="8" ry="8"/>
<text x="90" y="3387" class="node">
<tspan x="90" dy="0">8 Discussion and Conclusion</tspan>
</text>
<circle class="bullet" cx="160" cy="3460.0" r="6"/>
<rect class="box" x="186" y="3422" width="394" height="76" rx="8" ry="8"/>
<text x="200" y="3451" class="node">
<tspan x="200" dy="0">8.1 Balancing creativity,</tspan>
<tspan x="200" dy="30">openness, and harm reduction</tspan>
</text>
<circle class="bullet" cx="160" cy="3569.0" r="6"/>
<rect class="box" x="186" y="3516" width="394" height="106" rx="8" ry="8"/>
<text x="200" y="3545" class="node">
<tspan x="200" dy="0">8.2 A research agenda for</tspan>
<tspan x="200" dy="30">responsible generative audio</tspan>
<tspan x="200" dy="30">development</tspan>
</text>
<circle class="bullet" cx="160" cy="3663.0" r="6"/>
<rect class="box" x="186" y="3640" width="212" height="46" rx="8" ry="8"/>
<text x="200" y="3669" class="node">
<tspan x="200" dy="0">8.3 Conclusion</tspan>
</text>
</svg>