<svg xmlns="http://www.w3.org/2000/svg" width="1200" height="3089" viewBox="0 0 1200 3089">
<rect width="100%" height="100%" fill="white"/>
<style>text{font-family:Arial,Helvetica,sans-serif;} .title{font-size:30px;font-weight:700;fill:#101828;} .meta{font-size:18px;fill:#667085;} .node{font-size:24px;fill:#18181b;} .line{stroke:#a6b0c3;stroke-width:3;fill:none;} .bullet{fill:#465d7f;} .box{fill:#f8fafc;stroke:#cbd5e1;stroke-width:2;}</style>
<text x="40" y="52" class="title">2307.05527 Best-by-Score Outline Tree</text>
<text x="40" y="86" class="meta">Source: results/2307.05527/gpt-5.4-xhigh-3papers/chatgpt_meow_outline_blind.json | Nodes: 34</text>
<path class="line" d="M 50 130.5 L 50 204.5 L 160 204.5"/>
<path class="line" d="M 50 130.5 L 50 293.5 L 160 293.5"/>
<path class="line" d="M 50 130.5 L 50 385.0 L 160 385.0"/>
<path class="line" d="M 50 464.0 L 50 528.0 L 160 528.0"/>
<path class="line" d="M 50 464.0 L 50 607.0 L 160 607.0"/>
<path class="line" d="M 50 464.0 L 50 696.0 L 160 696.0"/>
<path class="line" d="M 50 782.5 L 50 869.0 L 160 869.0"/>
<path class="line" d="M 50 782.5 L 50 955.5 L 160 955.5"/>
<path class="line" d="M 50 782.5 L 50 1044.5 L 160 1044.5"/>
<path class="line" d="M 50 782.5 L 50 1133.5 L 160 1133.5"/>
<path class="line" d="M 50 1222.5 L 50 1314.0 L 160 1314.0"/>
<path class="line" d="M 50 1222.5 L 50 1408.0 L 160 1408.0"/>
<path class="line" d="M 50 1222.5 L 50 1502.0 L 160 1502.0"/>
<path class="line" d="M 50 1222.5 L 50 1593.5 L 160 1593.5"/>
<path class="line" d="M 50 1222.5 L 50 1685.0 L 160 1685.0"/>
<path class="line" d="M 50 1222.5 L 50 1775.5 L 160 1775.5"/>
<path class="line" d="M 50 1222.5 L 50 1866.0 L 160 1866.0"/>
<path class="line" d="M 50 1957.5 L 50 2049.0 L 160 2049.0"/>
<path class="line" d="M 50 1957.5 L 50 2140.5 L 160 2140.5"/>
<path class="line" d="M 50 1957.5 L 50 2232.0 L 160 2232.0"/>
<path class="line" d="M 50 1957.5 L 50 2311.0 L 160 2311.0"/>
<path class="line" d="M 50 2387.5 L 50 2476.5 L 160 2476.5"/>
<path class="line" d="M 50 2387.5 L 50 2565.5 L 160 2565.5"/>
<path class="line" d="M 50 2387.5 L 50 2657.0 L 160 2657.0"/>
<path class="line" d="M 50 2387.5 L 50 2751.0 L 160 2751.0"/>
<path class="line" d="M 50 2827.5 L 50 2901.5 L 160 2901.5"/>
<path class="line" d="M 50 2827.5 L 50 2993.0 L 160 2993.0"/>
<circle class="bullet" cx="50" cy="130.5" r="6"/>
<rect class="box" x="76" y="110" width="173" height="41" rx="8" ry="8"/>
<text x="90" y="144" class="node">
<tspan x="90" dy="0">1 Introduction</tspan>
</text>
<circle class="bullet" cx="160" cy="204.5" r="6"/>
<rect class="box" x="186" y="169" width="378" height="71" rx="8" ry="8"/>
<text x="200" y="203" class="node">
<tspan x="200" dy="0">1.1 Evolution of generative audio</tspan>
<tspan x="200" dy="32">models</tspan>
</text>
<circle class="bullet" cx="160" cy="293.5" r="6"/>
<rect class="box" x="186" y="258" width="327" height="71" rx="8" ry="8"/>
<text x="200" y="292" class="node">
<tspan x="200" dy="0">1.2 Ethical salience of audio</tspan>
<tspan x="200" dy="32">generation</tspan>
</text>
<circle class="bullet" cx="160" cy="385.0" r="6"/>
<rect class="box" x="186" y="347" width="373" height="76" rx="8" ry="8"/>
<text x="200" y="381" class="node">
<tspan x="200" dy="0">1.3 Positioning this review within</tspan>
<tspan x="200" dy="32">prior surveys</tspan>
</text>
<circle class="bullet" cx="50" cy="464.0" r="6"/>
<rect class="box" x="76" y="441" width="332" height="46" rx="8" ry="8"/>
<text x="90" y="475" class="node">
<tspan x="90" dy="0">2 Systematic Review Design</tspan>
</text>
<circle class="bullet" cx="160" cy="528.0" r="6"/>
<rect class="box" x="186" y="505" width="408" height="46" rx="8" ry="8"/>
<text x="200" y="539" class="node">
<tspan x="200" dy="0">2.1 PRISMA-guided review protocol</tspan>
</text>
<circle class="bullet" cx="160" cy="607.0" r="6"/>
<rect class="box" x="186" y="569" width="379" height="76" rx="8" ry="8"/>
<text x="200" y="603" class="node">
<tspan x="200" dy="0">2.2 Corpus scoping and thematic</tspan>
<tspan x="200" dy="32">coding</tspan>
</text>
<circle class="bullet" cx="160" cy="696.0" r="6"/>
<rect class="box" x="186" y="663" width="382" height="66" rx="8" ry="8"/>
<text x="200" y="697" class="node">
<tspan x="200" dy="0">2.3 Limits of the current evidence</tspan>
<tspan x="200" dy="32">base</tspan>
</text>
<circle class="bullet" cx="50" cy="782.5" r="6"/>
<rect class="box" x="76" y="747" width="303" height="71" rx="8" ry="8"/>
<text x="90" y="781" class="node">
<tspan x="90" dy="0">3 Technical Landscape of</tspan>
<tspan x="90" dy="32">Generative Audio</tspan>
</text>
<circle class="bullet" cx="160" cy="869.0" r="6"/>
<rect class="box" x="186" y="836" width="327" height="66" rx="8" ry="8"/>
<text x="200" y="870" class="node">
<tspan x="200" dy="0">3.1 Core model families and</tspan>
<tspan x="200" dy="32">architectural foundations</tspan>
</text>
<circle class="bullet" cx="160" cy="955.5" r="6"/>
<rect class="box" x="186" y="920" width="392" height="71" rx="8" ry="8"/>
<text x="200" y="954" class="node">
<tspan x="200" dy="0">3.2 Speech, voice, and restoration</tspan>
<tspan x="200" dy="32">models</tspan>
</text>
<circle class="bullet" cx="160" cy="1044.5" r="6"/>
<rect class="box" x="186" y="1009" width="273" height="71" rx="8" ry="8"/>
<text x="200" y="1043" class="node">
<tspan x="200" dy="0">3.3 Music, singing, and</tspan>
<tspan x="200" dy="32">text-to-audio models</tspan>
</text>
<circle class="bullet" cx="160" cy="1133.5" r="6"/>
<rect class="box" x="186" y="1098" width="315" height="71" rx="8" ry="8"/>
<text x="200" y="1132" class="node">
<tspan x="200" dy="0">3.4 Creative interfaces and</tspan>
<tspan x="200" dy="32">multimodal applications</tspan>
</text>
<circle class="bullet" cx="50" cy="1222.5" r="6"/>
<rect class="box" x="76" y="1187" width="348" height="71" rx="8" ry="8"/>
<text x="90" y="1221" class="node">
<tspan x="90" dy="0">4 Major Ethical Implications of</tspan>
<tspan x="90" dy="32">Generative Audio Models</tspan>
</text>
<circle class="bullet" cx="160" cy="1314.0" r="6"/>
<rect class="box" x="186" y="1276" width="415" height="76" rx="8" ry="8"/>
<text x="200" y="1310" class="node">
<tspan x="200" dy="0">4.1 Data provenance, memorization,</tspan>
<tspan x="200" dy="32">and copyright</tspan>
</text>
<circle class="bullet" cx="160" cy="1408.0" r="6"/>
<rect class="box" x="186" y="1370" width="362" height="76" rx="8" ry="8"/>
<text x="200" y="1404" class="node">
<tspan x="200" dy="0">4.2 Voice identity, consent, and</tspan>
<tspan x="200" dy="32">biometric privacy</tspan>
</text>
<circle class="bullet" cx="160" cy="1502.0" r="6"/>
<rect class="box" x="186" y="1464" width="400" height="76" rx="8" ry="8"/>
<text x="200" y="1498" class="node">
<tspan x="200" dy="0">4.3 Deepfakes, impersonation, and</tspan>
<tspan x="200" dy="32">security harms</tspan>
</text>
<circle class="bullet" cx="160" cy="1593.5" r="6"/>
<rect class="box" x="186" y="1558" width="344" height="71" rx="8" ry="8"/>
<text x="200" y="1592" class="node">
<tspan x="200" dy="0">4.4 Authorship, creativity, and</tspan>
<tspan x="200" dy="32">co-creation</tspan>
</text>
<circle class="bullet" cx="160" cy="1685.0" r="6"/>
<rect class="box" x="186" y="1647" width="378" height="76" rx="8" ry="8"/>
<text x="200" y="1681" class="node">
<tspan x="200" dy="0">4.5 Labor, public perception, and</tspan>
<tspan x="200" dy="32">industrial power</tspan>
</text>
<circle class="bullet" cx="160" cy="1775.5" r="6"/>
<rect class="box" x="186" y="1741" width="320" height="69" rx="8" ry="8"/>
<text x="200" y="1775" class="node">
<tspan x="200" dy="0">4.6 Fairness, inclusion, and</tspan>
<tspan x="200" dy="32">sociotechnical harms</tspan>
</text>
<circle class="bullet" cx="160" cy="1866.0" r="6"/>
<rect class="box" x="186" y="1828" width="418" height="76" rx="8" ry="8"/>
<text x="200" y="1862" class="node">
<tspan x="200" dy="0">4.7 Environmental cost and compute</tspan>
<tspan x="200" dy="32">inequality</tspan>
</text>
<circle class="bullet" cx="50" cy="1957.5" r="6"/>
<rect class="box" x="76" y="1922" width="312" height="71" rx="8" ry="8"/>
<text x="90" y="1956" class="node">
<tspan x="90" dy="0">5 Mitigation Strategies and</tspan>
<tspan x="90" dy="32">Governance Mechanisms</tspan>
</text>
<circle class="bullet" cx="160" cy="2049.0" r="6"/>
<rect class="box" x="186" y="2011" width="380" height="76" rx="8" ry="8"/>
<text x="200" y="2045" class="node">
<tspan x="200" dy="0">5.1 Detection, watermarking, and</tspan>
<tspan x="200" dy="32">anonymization</tspan>
</text>
<circle class="bullet" cx="160" cy="2140.5" r="6"/>
<rect class="box" x="186" y="2105" width="391" height="71" rx="8" ry="8"/>
<text x="200" y="2139" class="node">
<tspan x="200" dy="0">5.2 Documentation and disclosure</tspan>
<tspan x="200" dy="32">practices</tspan>
</text>
<circle class="bullet" cx="160" cy="2232.0" r="6"/>
<rect class="box" x="186" y="2194" width="422" height="76" rx="8" ry="8"/>
<text x="200" y="2228" class="node">
<tspan x="200" dy="0">5.3 Impact assessment and research</tspan>
<tspan x="200" dy="32">accountability</tspan>
</text>
<circle class="bullet" cx="160" cy="2311.0" r="6"/>
<rect class="box" x="186" y="2288" width="359" height="46" rx="8" ry="8"/>
<text x="200" y="2322" class="node">
<tspan x="200" dy="0">5.4 Legal and policy responses</tspan>
</text>
<circle class="bullet" cx="50" cy="2387.5" r="6"/>
<rect class="box" x="76" y="2352" width="356" height="71" rx="8" ry="8"/>
<text x="90" y="2386" class="node">
<tspan x="90" dy="0">6 Open Challenges and Future</tspan>
<tspan x="90" dy="32">Research Directions</tspan>
</text>
<circle class="bullet" cx="160" cy="2476.5" r="6"/>
<rect class="box" x="186" y="2441" width="394" height="71" rx="8" ry="8"/>
<text x="200" y="2475" class="node">
<tspan x="200" dy="0">6.1 Ethical evaluation benchmarks</tspan>
<tspan x="200" dy="32">for audio generation</tspan>
</text>
<circle class="bullet" cx="160" cy="2565.5" r="6"/>
<rect class="box" x="186" y="2530" width="326" height="71" rx="8" ry="8"/>
<text x="200" y="2564" class="node">
<tspan x="200" dy="0">6.2 Participatory design and</tspan>
<tspan x="200" dy="32">stakeholder inclusion</tspan>
</text>
<circle class="bullet" cx="160" cy="2657.0" r="6"/>
<rect class="box" x="186" y="2619" width="380" height="76" rx="8" ry="8"/>
<text x="200" y="2653" class="node">
<tspan x="200" dy="0">6.3 Responsible release, access,</tspan>
<tspan x="200" dy="32">and data governance</tspan>
</text>
<circle class="bullet" cx="160" cy="2751.0" r="6"/>
<rect class="box" x="186" y="2713" width="367" height="76" rx="8" ry="8"/>
<text x="200" y="2747" class="node">
<tspan x="200" dy="0">6.4 Interdisciplinary governance</tspan>
<tspan x="200" dy="32">of generative audio</tspan>
</text>
<circle class="bullet" cx="50" cy="2827.5" r="6"/>
<rect class="box" x="76" y="2807" width="167" height="41" rx="8" ry="8"/>
<text x="90" y="2841" class="node">
<tspan x="90" dy="0">7 Conclusion</tspan>
</text>
<circle class="bullet" cx="160" cy="2901.5" r="6"/>
<rect class="box" x="186" y="2866" width="396" height="71" rx="8" ry="8"/>
<text x="200" y="2900" class="node">
<tspan x="200" dy="0">7.1 Key findings from the reviewed</tspan>
<tspan x="200" dy="32">literature</tspan>
</text>
<circle class="bullet" cx="160" cy="2993.0" r="6"/>
<rect class="box" x="186" y="2955" width="396" height="76" rx="8" ry="8"/>
<text x="200" y="2989" class="node">
<tspan x="200" dy="0">7.2 Toward responsible generative</tspan>
<tspan x="200" dy="32">audio ecosystems</tspan>
</text>
</svg>