<svg xmlns="http://www.w3.org/2000/svg" width="1200" height="3256" viewBox="0 0 1200 3256">
<rect width="100%" height="100%" fill="white"/>
<style>text{font-family:Arial,Helvetica,sans-serif;} .title{font-size:30px;font-weight:700;fill:#101828;} .meta{font-size:18px;fill:#667085;} .node{font-size:24px;fill:#18181b;} .line{stroke:#a6b0c3;stroke-width:3;fill:none;} .bullet{fill:#465d7f;} .box{fill:#f8fafc;stroke:#cbd5e1;stroke-width:2;}</style>
<text x="40" y="52" class="title">2307.05527 Ablation (No Meta Abstract) Outline Tree</text>
<text x="40" y="86" class="meta">Source: results/2307.05527/ablation_no_meta_abstract/chatgpt_meow_outline_blind.json | Nodes: 34</text>
<path class="line" d="M 50 133.0 L 50 212.0 L 160 212.0"/>
<path class="line" d="M 50 133.0 L 50 306.0 L 160 306.0"/>
<path class="line" d="M 50 400.0 L 50 479.0 L 160 479.0"/>
<path class="line" d="M 50 400.0 L 50 558.0 L 160 558.0"/>
<path class="line" d="M 50 652.0 L 50 731.0 L 160 731.0"/>
<path class="line" d="M 50 652.0 L 50 810.0 L 160 810.0"/>
<path class="line" d="M 50 652.0 L 50 904.0 L 160 904.0"/>
<path class="line" d="M 50 652.0 L 50 998.0 L 160 998.0"/>
<path class="line" d="M 50 1092.0 L 50 1186.0 L 160 1186.0"/>
<path class="line" d="M 50 1092.0 L 50 1295.0 L 160 1295.0"/>
<path class="line" d="M 50 1404.0 L 50 1513.0 L 160 1513.0"/>
<path class="line" d="M 50 1404.0 L 50 1622.0 L 160 1622.0"/>
<path class="line" d="M 50 1716.0 L 50 1810.0 L 160 1810.0"/>
<path class="line" d="M 50 1716.0 L 50 1904.0 L 160 1904.0"/>
<path class="line" d="M 50 1998.0 L 50 2092.0 L 160 2092.0"/>
<path class="line" d="M 50 1998.0 L 50 2186.0 L 160 2186.0"/>
<path class="line" d="M 50 2280.0 L 50 2374.0 L 160 2374.0"/>
<path class="line" d="M 50 2280.0 L 50 2468.0 L 160 2468.0"/>
<path class="line" d="M 50 2562.0 L 50 2656.0 L 160 2656.0"/>
<path class="line" d="M 50 2562.0 L 50 2735.0 L 160 2735.0"/>
<path class="line" d="M 50 2562.0 L 50 2814.0 L 160 2814.0"/>
<path class="line" d="M 50 2893.0 L 50 2972.0 L 160 2972.0"/>
<path class="line" d="M 50 2893.0 L 50 3081.0 L 160 3081.0"/>
<circle class="bullet" cx="50" cy="133.0" r="6"/>
<rect class="box" x="76" y="110" width="212" height="46" rx="8" ry="8"/>
<text x="90" y="139" class="node">
<tspan x="90" dy="0">1 Introduction</tspan>
</text>
<circle class="bullet" cx="160" cy="212.0" r="6"/>
<rect class="box" x="186" y="174" width="381" height="76" rx="8" ry="8"/>
<text x="200" y="203" class="node">
<tspan x="200" dy="0">1.1 Emergence of generative</tspan>
<tspan x="200" dy="30">audio models</tspan>
</text>
<circle class="bullet" cx="160" cy="306.0" r="6"/>
<rect class="box" x="186" y="268" width="420" height="76" rx="8" ry="8"/>
<text x="200" y="297" class="node">
<tspan x="200" dy="0">1.2 Ethical urgency and review</tspan>
<tspan x="200" dy="30">scope</tspan>
</text>
<circle class="bullet" cx="50" cy="400.0" r="6"/>
<rect class="box" x="76" y="362" width="342" height="76" rx="8" ry="8"/>
<text x="90" y="391" class="node">
<tspan x="90" dy="0">2 Review methodology and</tspan>
<tspan x="90" dy="30">analytical framework</tspan>
</text>
<circle class="bullet" cx="160" cy="479.0" r="6"/>
<rect class="box" x="186" y="456" width="420" height="46" rx="8" ry="8"/>
<text x="200" y="485" class="node">
<tspan x="200" dy="0">2.1 Systematic review protocol</tspan>
</text>
<circle class="bullet" cx="160" cy="558.0" r="6"/>
<rect class="box" x="186" y="520" width="368" height="76" rx="8" ry="8"/>
<text x="200" y="549" class="node">
<tspan x="200" dy="0">2.2 Technical taxonomy and</tspan>
<tspan x="200" dy="30">ethical lenses</tspan>
</text>
<circle class="bullet" cx="50" cy="652.0" r="6"/>
<rect class="box" x="76" y="614" width="342" height="76" rx="8" ry="8"/>
<text x="90" y="643" class="node">
<tspan x="90" dy="0">3 Generative audio model</tspan>
<tspan x="90" dy="30">landscape</tspan>
</text>
<circle class="bullet" cx="160" cy="731.0" r="6"/>
<rect class="box" x="186" y="708" width="329" height="46" rx="8" ry="8"/>
<text x="200" y="737" class="node">
<tspan x="200" dy="0">3.1 Core model families</tspan>
</text>
<circle class="bullet" cx="160" cy="810.0" r="6"/>
<rect class="box" x="186" y="772" width="381" height="76" rx="8" ry="8"/>
<text x="200" y="801" class="node">
<tspan x="200" dy="0">3.2 Speech synthesis, voice</tspan>
<tspan x="200" dy="30">conversion, and cloning</tspan>
</text>
<circle class="bullet" cx="160" cy="904.0" r="6"/>
<rect class="box" x="186" y="866" width="433" height="76" rx="8" ry="8"/>
<text x="200" y="895" class="node">
<tspan x="200" dy="0">3.3 Music, singing, and general</tspan>
<tspan x="200" dy="30">audio generation</tspan>
</text>
<circle class="bullet" cx="160" cy="998.0" r="6"/>
<rect class="box" x="186" y="960" width="420" height="76" rx="8" ry="8"/>
<text x="200" y="989" class="node">
<tspan x="200" dy="0">3.4 Generative restoration and</tspan>
<tspan x="200" dy="30">editing</tspan>
</text>
<circle class="bullet" cx="50" cy="1092.0" r="6"/>
<rect class="box" x="76" y="1054" width="407" height="76" rx="8" ry="8"/>
<text x="90" y="1083" class="node">
<tspan x="90" dy="0">4 Creativity, authorship, and</tspan>
<tspan x="90" dy="30">cultural production</tspan>
</text>
<circle class="bullet" cx="160" cy="1186.0" r="6"/>
<rect class="box" x="186" y="1148" width="394" height="76" rx="8" ry="8"/>
<text x="200" y="1177" class="node">
<tspan x="200" dy="0">4.1 Human-AI co-creation and</tspan>
<tspan x="200" dy="30">controllability</tspan>
</text>
<circle class="bullet" cx="160" cy="1295.0" r="6"/>
<rect class="box" x="186" y="1242" width="368" height="106" rx="8" ry="8"/>
<text x="200" y="1271" class="node">
<tspan x="200" dy="0">4.2 Labor, industry</tspan>
<tspan x="200" dy="30">concentration, and creator</tspan>
<tspan x="200" dy="30">rights</tspan>
</text>
<circle class="bullet" cx="50" cy="1404.0" r="6"/>
<rect class="box" x="76" y="1366" width="342" height="76" rx="8" ry="8"/>
<text x="90" y="1395" class="node">
<tspan x="90" dy="0">5 Privacy, identity, and</tspan>
<tspan x="90" dy="30">security risks</tspan>
</text>
<circle class="bullet" cx="160" cy="1513.0" r="6"/>
<rect class="box" x="186" y="1460" width="394" height="106" rx="8" ry="8"/>
<text x="200" y="1489" class="node">
<tspan x="200" dy="0">5.1 Voice cloning, biometric</tspan>
<tspan x="200" dy="30">identification, and</tspan>
<tspan x="200" dy="30">impersonation</tspan>
</text>
<circle class="bullet" cx="160" cy="1622.0" r="6"/>
<rect class="box" x="186" y="1584" width="407" height="76" rx="8" ry="8"/>
<text x="200" y="1613" class="node">
<tspan x="200" dy="0">5.2 Detection, watermarking,</tspan>
<tspan x="200" dy="30">anonymization, and provenance</tspan>
</text>
<circle class="bullet" cx="50" cy="1716.0" r="6"/>
<rect class="box" x="76" y="1678" width="381" height="76" rx="8" ry="8"/>
<text x="90" y="1707" class="node">
<tspan x="90" dy="0">6 Misinformation and public</tspan>
<tspan x="90" dy="30">trust</tspan>
</text>
<circle class="bullet" cx="160" cy="1810.0" r="6"/>
<rect class="box" x="186" y="1772" width="407" height="76" rx="8" ry="8"/>
<text x="200" y="1801" class="node">
<tspan x="200" dy="0">6.1 Audio deepfakes in</tspan>
<tspan x="200" dy="30">political and social contexts</tspan>
</text>
<circle class="bullet" cx="160" cy="1904.0" r="6"/>
<rect class="box" x="186" y="1866" width="433" height="76" rx="8" ry="8"/>
<text x="200" y="1895" class="node">
<tspan x="200" dy="0">6.2 Multimodal manipulation and</tspan>
<tspan x="200" dy="30">dubbed media</tspan>
</text>
<circle class="bullet" cx="50" cy="1998.0" r="6"/>
<rect class="box" x="76" y="1960" width="407" height="76" rx="8" ry="8"/>
<text x="90" y="1989" class="node">
<tspan x="90" dy="0">7 Copyright, data governance,</tspan>
<tspan x="90" dy="30">and ownership</tspan>
</text>
<circle class="bullet" cx="160" cy="2092.0" r="6"/>
<rect class="box" x="186" y="2054" width="355" height="76" rx="8" ry="8"/>
<text x="200" y="2083" class="node">
<tspan x="200" dy="0">7.1 Memorization and data</tspan>
<tspan x="200" dy="30">replication</tspan>
</text>
<circle class="bullet" cx="160" cy="2186.0" r="6"/>
<rect class="box" x="186" y="2148" width="368" height="76" rx="8" ry="8"/>
<text x="200" y="2177" class="node">
<tspan x="200" dy="0">7.2 Copyright protection,</tspan>
<tspan x="200" dy="30">licensing, and attribution</tspan>
</text>
<circle class="bullet" cx="50" cy="2280.0" r="6"/>
<rect class="box" x="76" y="2242" width="420" height="76" rx="8" ry="8"/>
<text x="90" y="2271" class="node">
<tspan x="90" dy="0">8 Cross-cutting sociotechnical</tspan>
<tspan x="90" dy="30">harms</tspan>
</text>
<circle class="bullet" cx="160" cy="2374.0" r="6"/>
<rect class="box" x="186" y="2336" width="342" height="76" rx="8" ry="8"/>
<text x="200" y="2365" class="node">
<tspan x="200" dy="0">8.1 Bias, exclusion, and</tspan>
<tspan x="200" dy="30">unequal access</tspan>
</text>
<circle class="bullet" cx="160" cy="2468.0" r="6"/>
<rect class="box" x="186" y="2430" width="407" height="76" rx="8" ry="8"/>
<text x="200" y="2459" class="node">
<tspan x="200" dy="0">8.2 Environmental and compute</tspan>
<tspan x="200" dy="30">costs</tspan>
</text>
<circle class="bullet" cx="50" cy="2562.0" r="6"/>
<rect class="box" x="76" y="2524" width="407" height="76" rx="8" ry="8"/>
<text x="90" y="2553" class="node">
<tspan x="90" dy="0">9 Governance, evaluation, and</tspan>
<tspan x="90" dy="30">mitigation</tspan>
</text>
<circle class="bullet" cx="160" cy="2656.0" r="6"/>
<rect class="box" x="186" y="2618" width="368" height="76" rx="8" ry="8"/>
<text x="200" y="2647" class="node">
<tspan x="200" dy="0">9.1 Impact assessments and</tspan>
<tspan x="200" dy="30">ethics review mechanisms</tspan>
</text>
<circle class="bullet" cx="160" cy="2735.0" r="6"/>
<rect class="box" x="186" y="2712" width="433" height="46" rx="8" ry="8"/>
<text x="200" y="2741" class="node">
<tspan x="200" dy="0">9.2 Benchmarking beyond quality</tspan>
</text>
<circle class="bullet" cx="160" cy="2814.0" r="6"/>
<rect class="box" x="186" y="2776" width="355" height="76" rx="8" ry="8"/>
<text x="200" y="2805" class="node">
<tspan x="200" dy="0">9.3 Policy and regulatory</tspan>
<tspan x="200" dy="30">responses</tspan>
</text>
<circle class="bullet" cx="50" cy="2893.0" r="6"/>
<rect class="box" x="76" y="2870" width="290" height="46" rx="8" ry="8"/>
<text x="90" y="2899" class="node">
<tspan x="90" dy="0">10 Future directions</tspan>
</text>
<circle class="bullet" cx="160" cy="2972.0" r="6"/>
<rect class="box" x="186" y="2934" width="381" height="76" rx="8" ry="8"/>
<text x="200" y="2963" class="node">
<tspan x="200" dy="0">10.1 Ethical benchmarks and</tspan>
<tspan x="200" dy="30">participatory governance</tspan>
</text>
<circle class="bullet" cx="160" cy="3081.0" r="6"/>
<rect class="box" x="186" y="3028" width="381" height="106" rx="8" ry="8"/>
<text x="200" y="3057" class="node">
<tspan x="200" dy="0">10.2 Toward accountable and</tspan>
<tspan x="200" dy="30">socially robust generative</tspan>
<tspan x="200" dy="30">audio</tspan>
</text>
<circle class="bullet" cx="50" cy="3175.0" r="6"/>
<rect class="box" x="76" y="3152" width="199" height="46" rx="8" ry="8"/>
<text x="90" y="3181" class="node">
<tspan x="90" dy="0">11 Conclusion</tspan>
</text>
</svg>