<svg xmlns="http://www.w3.org/2000/svg" width="1200" height="4304" viewBox="0 0 1200 4304">
<rect width="100%" height="100%" fill="white"/>
<style>text{font-family:Arial,Helvetica,sans-serif;} .title{font-size:30px;font-weight:700;fill:#101828;} .meta{font-size:18px;fill:#667085;} .node{font-size:24px;fill:#18181b;} .line{stroke:#a6b0c3;stroke-width:3;fill:none;} .bullet{fill:#465d7f;} .box{fill:#f8fafc;stroke:#cbd5e1;stroke-width:2;}</style>
<text x="40" y="52" class="title">2409.13738 Ablation (No Meta Abstract) Outline Tree</text>
<text x="40" y="86" class="meta">Source: results/2409.13738/ablation_no_meta_abstract/chatgpt_meow_outline_blind.json | Nodes: 41</text>
<path class="line" d="M 50 133.0 L 50 212.0 L 160 212.0"/>
<path class="line" d="M 50 133.0 L 50 306.0 L 160 306.0"/>
<path class="line" d="M 50 133.0 L 50 400.0 L 160 400.0"/>
<path class="line" d="M 50 479.0 L 50 558.0 L 160 558.0"/>
<path class="line" d="M 50 479.0 L 50 652.0 L 160 652.0"/>
<path class="line" d="M 50 731.0 L 50 810.0 L 160 810.0"/>
<path class="line" d="M 50 731.0 L 50 919.0 L 160 919.0"/>
<path class="line" d="M 50 731.0 L 50 1043.0 L 160 1043.0"/>
<path class="line" d="M 50 1152.0 L 50 1246.0 L 160 1246.0"/>
<path class="line" d="M 50 1152.0 L 50 1355.0 L 160 1355.0"/>
<path class="line" d="M 50 1152.0 L 50 1479.0 L 160 1479.0"/>
<path class="line" d="M 50 1152.0 L 50 1588.0 L 160 1588.0"/>
<path class="line" d="M 50 1682.0 L 50 1791.0 L 160 1791.0"/>
<path class="line" d="M 50 1682.0 L 50 1900.0 L 160 1900.0"/>
<path class="line" d="M 50 1682.0 L 50 2009.0 L 160 2009.0"/>
<path class="line" d="M 50 1682.0 L 50 2118.0 L 160 2118.0"/>
<path class="line" d="M 50 2212.0 L 50 2306.0 L 160 2306.0"/>
<path class="line" d="M 50 2212.0 L 50 2415.0 L 160 2415.0"/>
<path class="line" d="M 50 2212.0 L 50 2539.0 L 160 2539.0"/>
<path class="line" d="M 50 2212.0 L 50 2663.0 L 160 2663.0"/>
<path class="line" d="M 50 2772.0 L 50 2881.0 L 160 2881.0"/>
<path class="line" d="M 50 2772.0 L 50 2990.0 L 160 2990.0"/>
<path class="line" d="M 50 2772.0 L 50 3084.0 L 160 3084.0"/>
<path class="line" d="M 50 2772.0 L 50 3193.0 L 160 3193.0"/>
<path class="line" d="M 50 3302.0 L 50 3396.0 L 160 3396.0"/>
<path class="line" d="M 50 3302.0 L 50 3490.0 L 160 3490.0"/>
<path class="line" d="M 50 3302.0 L 50 3584.0 L 160 3584.0"/>
<path class="line" d="M 50 3678.0 L 50 3787.0 L 160 3787.0"/>
<path class="line" d="M 50 3678.0 L 50 3911.0 L 160 3911.0"/>
<path class="line" d="M 50 3678.0 L 50 4020.0 L 160 4020.0"/>
<path class="line" d="M 50 3678.0 L 50 4129.0 L 160 4129.0"/>
<circle class="bullet" cx="50" cy="133.0" r="6"/>
<rect class="box" x="76" y="110" width="212" height="46" rx="8" ry="8"/>
<text x="90" y="139" class="node">
<tspan x="90" dy="0">1 Introduction</tspan>
</text>
<circle class="bullet" cx="160" cy="212.0" r="6"/>
<rect class="box" x="186" y="174" width="394" height="76" rx="8" ry="8"/>
<text x="200" y="203" class="node">
<tspan x="200" dy="0">1.1 Motivation for automatic</tspan>
<tspan x="200" dy="30">process model generation</tspan>
</text>
<circle class="bullet" cx="160" cy="306.0" r="6"/>
<rect class="box" x="186" y="268" width="394" height="76" rx="8" ry="8"/>
<text x="200" y="297" class="node">
<tspan x="200" dy="0">1.2 Research landscape of</tspan>
<tspan x="200" dy="30">process extraction from text</tspan>
</text>
<circle class="bullet" cx="160" cy="400.0" r="6"/>
<rect class="box" x="186" y="362" width="342" height="76" rx="8" ry="8"/>
<text x="200" y="391" class="node">
<tspan x="200" dy="0">1.3 Scope of NLP methods</tspan>
<tspan x="200" dy="30">covered in the review</tspan>
</text>
<circle class="bullet" cx="50" cy="479.0" r="6"/>
<rect class="box" x="76" y="456" width="225" height="46" rx="8" ry="8"/>
<text x="90" y="485" class="node">
<tspan x="90" dy="0">2 Review Design</tspan>
</text>
<circle class="bullet" cx="160" cy="558.0" r="6"/>
<rect class="box" x="186" y="520" width="420" height="76" rx="8" ry="8"/>
<text x="200" y="549" class="node">
<tspan x="200" dy="0">2.1 Systematic review protocol</tspan>
<tspan x="200" dy="30">and reporting</tspan>
</text>
<circle class="bullet" cx="160" cy="652.0" r="6"/>
<rect class="box" x="186" y="614" width="342" height="76" rx="8" ry="8"/>
<text x="200" y="643" class="node">
<tspan x="200" dy="0">2.2 Coding and synthesis</tspan>
<tspan x="200" dy="30">dimensions</tspan>
</text>
<circle class="bullet" cx="50" cy="731.0" r="6"/>
<rect class="box" x="76" y="708" width="342" height="46" rx="8" ry="8"/>
<text x="90" y="737" class="node">
<tspan x="90" dy="0">3 Foundations of NLP4PBM</tspan>
</text>
<circle class="bullet" cx="160" cy="810.0" r="6"/>
<rect class="box" x="186" y="772" width="394" height="76" rx="8" ry="8"/>
<text x="200" y="801" class="node">
<tspan x="200" dy="0">3.1 Process modeling targets</tspan>
<tspan x="200" dy="30">and notations</tspan>
</text>
<circle class="bullet" cx="160" cy="919.0" r="6"/>
<rect class="box" x="186" y="866" width="394" height="106" rx="8" ry="8"/>
<text x="200" y="895" class="node">
<tspan x="200" dy="0">3.2 Extraction subtasks:</tspan>
<tspan x="200" dy="30">entities, relations, control</tspan>
<tspan x="200" dy="30">flow, and hierarchy</tspan>
</text>
<circle class="bullet" cx="160" cy="1043.0" r="6"/>
<rect class="box" x="186" y="990" width="355" height="106" rx="8" ry="8"/>
<text x="200" y="1019" class="node">
<tspan x="200" dy="0">3.3 NLP foundations: rule</tspan>
<tspan x="200" dy="30">engines, embeddings, and</tspan>
<tspan x="200" dy="30">transformers</tspan>
</text>
<circle class="bullet" cx="50" cy="1152.0" r="6"/>
<rect class="box" x="76" y="1114" width="368" height="76" rx="8" ry="8"/>
<text x="90" y="1143" class="node">
<tspan x="90" dy="0">4 Rule-based and Heuristic</tspan>
<tspan x="90" dy="30">Methods</tspan>
</text>
<circle class="bullet" cx="160" cy="1246.0" r="6"/>
<rect class="box" x="186" y="1208" width="420" height="76" rx="8" ry="8"/>
<text x="200" y="1237" class="node">
<tspan x="200" dy="0">4.1 Early BPMN generation from</tspan>
<tspan x="200" dy="30">natural language</tspan>
</text>
<circle class="bullet" cx="160" cy="1355.0" r="6"/>
<rect class="box" x="186" y="1302" width="407" height="106" rx="8" ry="8"/>
<text x="200" y="1331" class="node">
<tspan x="200" dy="0">4.2 Rule-based identification</tspan>
<tspan x="200" dy="30">of process elements and</tspan>
<tspan x="200" dy="30">relations</tspan>
</text>
<circle class="bullet" cx="160" cy="1479.0" r="6"/>
<rect class="box" x="186" y="1426" width="420" height="106" rx="8" ry="8"/>
<text x="200" y="1455" class="node">
<tspan x="200" dy="0">4.3 Declarative and decision</tspan>
<tspan x="200" dy="30">model extraction with tailored</tspan>
<tspan x="200" dy="30">patterns</tspan>
</text>
<circle class="bullet" cx="160" cy="1588.0" r="6"/>
<rect class="box" x="186" y="1550" width="407" height="76" rx="8" ry="8"/>
<text x="200" y="1579" class="node">
<tspan x="200" dy="0">4.4 Strengths and limitations</tspan>
<tspan x="200" dy="30">of rule-based systems</tspan>
</text>
<circle class="bullet" cx="50" cy="1682.0" r="6"/>
<rect class="box" x="76" y="1644" width="407" height="76" rx="8" ry="8"/>
<text x="90" y="1673" class="node">
<tspan x="90" dy="0">5 Machine Learning and Hybrid</tspan>
<tspan x="90" dy="30">Data-driven Approaches</tspan>
</text>
<circle class="bullet" cx="160" cy="1791.0" r="6"/>
<rect class="box" x="186" y="1738" width="381" height="106" rx="8" ry="8"/>
<text x="200" y="1767" class="node">
<tspan x="200" dy="0">5.1 Feature-based learning</tspan>
<tspan x="200" dy="30">foundations for information</tspan>
<tspan x="200" dy="30">extraction</tspan>
</text>
<circle class="bullet" cx="160" cy="1900.0" r="6"/>
<rect class="box" x="186" y="1862" width="433" height="76" rx="8" ry="8"/>
<text x="200" y="1891" class="node">
<tspan x="200" dy="0">5.2 Hybrid learning with domain</tspan>
<tspan x="200" dy="30">knowledge and expert rules</tspan>
</text>
<circle class="bullet" cx="160" cy="2009.0" r="6"/>
<rect class="box" x="186" y="1956" width="433" height="106" rx="8" ry="8"/>
<text x="200" y="1985" class="node">
<tspan x="200" dy="0">5.3 Intermediate</tspan>
<tspan x="200" dy="30">representations and</tspan>
<tspan x="200" dy="30">semi-automated model generation</tspan>
</text>
<circle class="bullet" cx="160" cy="2118.0" r="6"/>
<rect class="box" x="186" y="2080" width="394" height="76" rx="8" ry="8"/>
<text x="200" y="2109" class="node">
<tspan x="200" dy="0">5.4 Low-resource constraints</tspan>
<tspan x="200" dy="30">for machine learning in BPM</tspan>
</text>
<circle class="bullet" cx="50" cy="2212.0" r="6"/>
<rect class="box" x="76" y="2174" width="433" height="76" rx="8" ry="8"/>
<text x="90" y="2203" class="node">
<tspan x="90" dy="0">6 Deep Learning and Pre-trained</tspan>
<tspan x="90" dy="30">Language Models</tspan>
</text>
<circle class="bullet" cx="160" cy="2306.0" r="6"/>
<rect class="box" x="186" y="2268" width="433" height="76" rx="8" ry="8"/>
<text x="200" y="2297" class="node">
<tspan x="200" dy="0">6.1 Neural models for structure</tspan>
<tspan x="200" dy="30">and hierarchy recovery</tspan>
</text>
<circle class="bullet" cx="160" cy="2415.0" r="6"/>
<rect class="box" x="186" y="2362" width="342" height="106" rx="8" ry="8"/>
<text x="200" y="2391" class="node">
<tspan x="200" dy="0">6.2 Transformer-based</tspan>
<tspan x="200" dy="30">extraction of entities,</tspan>
<tspan x="200" dy="30">relations, and decisions</tspan>
</text>
<circle class="bullet" cx="160" cy="2539.0" r="6"/>
<rect class="box" x="186" y="2486" width="433" height="106" rx="8" ry="8"/>
<text x="200" y="2515" class="node">
<tspan x="200" dy="0">6.3 End-to-end data-driven</tspan>
<tspan x="200" dy="30">pipelines and coreference-aware</tspan>
<tspan x="200" dy="30">extensions</tspan>
</text>
<circle class="bullet" cx="160" cy="2663.0" r="6"/>
<rect class="box" x="186" y="2610" width="420" height="106" rx="8" ry="8"/>
<text x="200" y="2639" class="node">
<tspan x="200" dy="0">6.4 Dataset construction,</tspan>
<tspan x="200" dy="30">augmentation, and small-corpus</tspan>
<tspan x="200" dy="30">issues</tspan>
</text>
<circle class="bullet" cx="50" cy="2772.0" r="6"/>
<rect class="box" x="76" y="2734" width="433" height="76" rx="8" ry="8"/>
<text x="90" y="2763" class="node">
<tspan x="90" dy="0">7 Large Language Models and</tspan>
<tspan x="90" dy="30">Prompt-based Process Extraction</tspan>
</text>
<circle class="bullet" cx="160" cy="2881.0" r="6"/>
<rect class="box" x="186" y="2828" width="381" height="106" rx="8" ry="8"/>
<text x="200" y="2857" class="node">
<tspan x="200" dy="0">7.1 In-context learning and</tspan>
<tspan x="200" dy="30">prompt engineering for BPM</tspan>
<tspan x="200" dy="30">tasks</tspan>
</text>
<circle class="bullet" cx="160" cy="2990.0" r="6"/>
<rect class="box" x="186" y="2952" width="407" height="76" rx="8" ry="8"/>
<text x="200" y="2981" class="node">
<tspan x="200" dy="0">7.2 LLMs for process model</tspan>
<tspan x="200" dy="30">generation and process mining</tspan>
</text>
<circle class="bullet" cx="160" cy="3084.0" r="6"/>
<rect class="box" x="186" y="3046" width="420" height="76" rx="8" ry="8"/>
<text x="200" y="3075" class="node">
<tspan x="200" dy="0">7.3 Benchmarking and</tspan>
<tspan x="200" dy="30">responsible use of LLMs in BPM</tspan>
</text>
<circle class="bullet" cx="160" cy="3193.0" r="6"/>
<rect class="box" x="186" y="3140" width="381" height="106" rx="8" ry="8"/>
<text x="200" y="3169" class="node">
<tspan x="200" dy="0">7.4 Retrieval, constrained</tspan>
<tspan x="200" dy="30">generation, and multi-agent</tspan>
<tspan x="200" dy="30">directions</tspan>
</text>
<circle class="bullet" cx="50" cy="3302.0" r="6"/>
<rect class="box" x="76" y="3264" width="381" height="76" rx="8" ry="8"/>
<text x="90" y="3293" class="node">
<tspan x="90" dy="0">8 Datasets, Benchmarks, and</tspan>
<tspan x="90" dy="30">Evaluation</tspan>
</text>
<circle class="bullet" cx="160" cy="3396.0" r="6"/>
<rect class="box" x="186" y="3358" width="407" height="76" rx="8" ry="8"/>
<text x="200" y="3387" class="node">
<tspan x="200" dy="0">8.1 PET and related benchmark</tspan>
<tspan x="200" dy="30">resources</tspan>
</text>
<circle class="bullet" cx="160" cy="3490.0" r="6"/>
<rect class="box" x="186" y="3452" width="394" height="76" rx="8" ry="8"/>
<text x="200" y="3481" class="node">
<tspan x="200" dy="0">8.2 Metrics for extraction</tspan>
<tspan x="200" dy="30">quality and model similarity</tspan>
</text>
<circle class="bullet" cx="160" cy="3584.0" r="6"/>
<rect class="box" x="186" y="3546" width="407" height="76" rx="8" ry="8"/>
<text x="200" y="3575" class="node">
<tspan x="200" dy="0">8.3 Cross-paper comparability</tspan>
<tspan x="200" dy="30">and domain coverage gaps</tspan>
</text>
<circle class="bullet" cx="50" cy="3678.0" r="6"/>
<rect class="box" x="76" y="3640" width="316" height="76" rx="8" ry="8"/>
<text x="90" y="3669" class="node">
<tspan x="90" dy="0">9 Synthesis and Future</tspan>
<tspan x="90" dy="30">Directions</tspan>
</text>
<circle class="bullet" cx="160" cy="3787.0" r="6"/>
<rect class="box" x="186" y="3734" width="368" height="106" rx="8" ry="8"/>
<text x="200" y="3763" class="node">
<tspan x="200" dy="0">9.1 Comparing rule-based,</tspan>
<tspan x="200" dy="30">machine learning, and deep</tspan>
<tspan x="200" dy="30">learning methods</tspan>
</text>
<circle class="bullet" cx="160" cy="3911.0" r="6"/>
<rect class="box" x="186" y="3858" width="420" height="106" rx="8" ry="8"/>
<text x="200" y="3887" class="node">
<tspan x="200" dy="0">9.2 Generalization to</tspan>
<tspan x="200" dy="30">real-world and domain-specific</tspan>
<tspan x="200" dy="30">texts</tspan>
</text>
<circle class="bullet" cx="160" cy="4020.0" r="6"/>
<rect class="box" x="186" y="3982" width="407" height="76" rx="8" ry="8"/>
<text x="200" y="4011" class="node">
<tspan x="200" dy="0">9.3 Explainability, bias,</tspan>
<tspan x="200" dy="30">security, and trustworthiness</tspan>
</text>
<circle class="bullet" cx="160" cy="4129.0" r="6"/>
<rect class="box" x="186" y="4076" width="355" height="106" rx="8" ry="8"/>
<text x="200" y="4105" class="node">
<tspan x="200" dy="0">9.4 Human-in-the-loop and</tspan>
<tspan x="200" dy="30">knowledge-guided NLP4PBM</tspan>
<tspan x="200" dy="30">pipelines</tspan>
</text>
<circle class="bullet" cx="50" cy="4223.0" r="6"/>
<rect class="box" x="76" y="4200" width="199" height="46" rx="8" ry="8"/>
<text x="90" y="4229" class="node">
<tspan x="90" dy="0">10 Conclusion</tspan>
</text>
</svg>