<svg xmlns="http://www.w3.org/2000/svg" width="1200" height="1976" viewBox="0 0 1200 1976">
<rect width="100%" height="100%" fill="white"/>
<style>text{font-family:Arial,Helvetica,sans-serif;} .title{font-size:30px;font-weight:700;fill:#101828;} .meta{font-size:18px;fill:#667085;} .node{font-size:24px;fill:#18181b;} .line{stroke:#a6b0c3;stroke-width:3;fill:none;} .bullet{fill:#465d7f;} .box{fill:#f8fafc;stroke:#cbd5e1;stroke-width:2;}</style>
<text x="40" y="52" class="title">2409.13738 Gold Outline Tree</text>
<text x="40" y="86" class="meta">Source: data/paper_sets/meow_refs/2409.13738/outline.json | Nodes: 27</text>
<path class="line" d="M 50 248.5 L 50 310.0 L 160 310.0"/>
<path class="line" d="M 50 248.5 L 50 374.0 L 160 374.0"/>
<path class="line" d="M 50 248.5 L 50 438.0 L 160 438.0"/>
<path class="line" d="M 50 561.0 L 50 625.0 L 160 625.0"/>
<path class="line" d="M 50 561.0 L 50 689.0 L 160 689.0"/>
<path class="line" d="M 50 561.0 L 50 750.5 L 160 750.5"/>
<path class="line" d="M 50 809.5 L 50 871.0 L 160 871.0"/>
<path class="line" d="M 50 809.5 L 50 935.0 L 160 935.0"/>
<path class="line" d="M 50 809.5 L 50 999.0 L 160 999.0"/>
<path class="line" d="M 50 1060.5 L 50 1119.5 L 160 1119.5"/>
<path class="line" d="M 50 1060.5 L 50 1178.5 L 160 1178.5"/>
<path class="line" d="M 50 1237.5 L 50 1299.0 L 160 1299.0"/>
<path class="line" d="M 50 1237.5 L 50 1363.0 L 160 1363.0"/>
<path class="line" d="M 50 1237.5 L 50 1456.0 L 160 1456.0"/>
<path class="line" d="M 50 1237.5 L 50 1561.5 L 160 1561.5"/>
<path class="line" d="M 160 1561.5 L 160 1648.0 L 270 1648.0"/>
<path class="line" d="M 160 1561.5 L 160 1734.5 L 270 1734.5"/>
<circle class="bullet" cx="50" cy="130.5" r="6"/>
<rect class="box" x="76" y="110" width="173" height="41" rx="8" ry="8"/>
<text x="90" y="144" class="node">
<tspan x="90" dy="0">1 Introduction</tspan>
</text>
<circle class="bullet" cx="50" cy="189.5" r="6"/>
<rect class="box" x="76" y="169" width="193" height="41" rx="8" ry="8"/>
<text x="90" y="203" class="node">
<tspan x="90" dy="0">2 Related Work</tspan>
</text>
<circle class="bullet" cx="50" cy="248.5" r="6"/>
<rect class="box" x="76" y="228" width="140" height="41" rx="8" ry="8"/>
<text x="90" y="262" class="node">
<tspan x="90" dy="0">3 Methods</tspan>
</text>
<circle class="bullet" cx="160" cy="310.0" r="6"/>
<rect class="box" x="186" y="287" width="293" height="46" rx="8" ry="8"/>
<text x="200" y="321" class="node">
<tspan x="200" dy="0">3.1 Inclusion Criteria (IC)</tspan>
</text>
<circle class="bullet" cx="160" cy="374.0" r="6"/>
<rect class="box" x="186" y="351" width="311" height="46" rx="8" ry="8"/>
<text x="200" y="385" class="node">
<tspan x="200" dy="0">3.2 Exclusion Criteria (EC)</tspan>
</text>
<circle class="bullet" cx="160" cy="438.0" r="6"/>
<rect class="box" x="186" y="415" width="277" height="46" rx="8" ry="8"/>
<text x="200" y="449" class="node">
<tspan x="200" dy="0">3.3 Study Classification</tspan>
</text>
<circle class="bullet" cx="50" cy="499.5" r="6"/>
<rect class="box" x="76" y="479" width="128" height="41" rx="8" ry="8"/>
<text x="90" y="513" class="node">
<tspan x="90" dy="0">4 Results</tspan>
</text>
<circle class="bullet" cx="50" cy="561.0" r="6"/>
<rect class="box" x="76" y="538" width="364" height="46" rx="8" ry="8"/>
<text x="90" y="572" class="node">
<tspan x="90" dy="0">5 Natural Language Processing</tspan>
</text>
<circle class="bullet" cx="160" cy="625.0" r="6"/>
<rect class="box" x="186" y="602" width="175" height="46" rx="8" ry="8"/>
<text x="200" y="636" class="node">
<tspan x="200" dy="0">5.1 Text Input</tspan>
</text>
<circle class="bullet" cx="160" cy="689.0" r="6"/>
<rect class="box" x="186" y="666" width="293" height="46" rx="8" ry="8"/>
<text x="200" y="700" class="node">
<tspan x="200" dy="0">5.2 Computing Paradigm</tspan>
</text>
<circle class="bullet" cx="160" cy="750.5" r="6"/>
<rect class="box" x="186" y="730" width="180" height="41" rx="8" ry="8"/>
<text x="200" y="764" class="node">
<tspan x="200" dy="0">5.3 NLP Tools</tspan>
</text>
<circle class="bullet" cx="50" cy="809.5" r="6"/>
<rect class="box" x="76" y="789" width="332" height="41" rx="8" ry="8"/>
<text x="90" y="823" class="node">
<tspan x="90" dy="0">6 Process Model Generation</tspan>
</text>
<circle class="bullet" cx="160" cy="871.0" r="6"/>
<rect class="box" x="186" y="848" width="293" height="46" rx="8" ry="8"/>
<text x="200" y="882" class="node">
<tspan x="200" dy="0">6.1 Computing Paradigm</tspan>
</text>
<circle class="bullet" cx="160" cy="935.0" r="6"/>
<rect class="box" x="186" y="912" width="371" height="46" rx="8" ry="8"/>
<text x="200" y="946" class="node">
<tspan x="200" dy="0">6.2 Intermediary Representation</tspan>
</text>
<circle class="bullet" cx="160" cy="999.0" r="6"/>
<rect class="box" x="186" y="976" width="303" height="46" rx="8" ry="8"/>
<text x="200" y="1010" class="node">
<tspan x="200" dy="0">6.3 Target Process Model</tspan>
</text>
<circle class="bullet" cx="50" cy="1060.5" r="6"/>
<rect class="box" x="76" y="1040" width="367" height="41" rx="8" ry="8"/>
<text x="90" y="1074" class="node">
<tspan x="90" dy="0">7 Process Extraction Evaluation</tspan>
</text>
<circle class="bullet" cx="160" cy="1119.5" r="6"/>
<rect class="box" x="186" y="1099" width="281" height="41" rx="8" ry="8"/>
<text x="200" y="1133" class="node">
<tspan x="200" dy="0">7.1 Evaluation Datasets</tspan>
</text>
<circle class="bullet" cx="160" cy="1178.5" r="6"/>
<rect class="box" x="186" y="1158" width="279" height="41" rx="8" ry="8"/>
<text x="200" y="1192" class="node">
<tspan x="200" dy="0">7.2 Evaluation Methods</tspan>
</text>
<circle class="bullet" cx="50" cy="1237.5" r="6"/>
<rect class="box" x="76" y="1217" width="164" height="41" rx="8" ry="8"/>
<text x="90" y="1251" class="node">
<tspan x="90" dy="0">8 Discussion</tspan>
</text>
<circle class="bullet" cx="160" cy="1299.0" r="6"/>
<rect class="box" x="186" y="1276" width="411" height="46" rx="8" ry="8"/>
<text x="200" y="1310" class="node">
<tspan x="200" dy="0">8.1 Complexity of Natural Language</tspan>
</text>
<circle class="bullet" cx="160" cy="1363.0" r="6"/>
<rect class="box" x="186" y="1340" width="390" height="46" rx="8" ry="8"/>
<text x="200" y="1374" class="node">
<tspan x="200" dy="0">8.2 Use of Deep Learning for NLP</tspan>
</text>
<circle class="bullet" cx="160" cy="1456.0" r="6"/>
<rect class="box" x="186" y="1404" width="378" height="104" rx="8" ry="8"/>
<text x="200" y="1438" class="node">
<tspan x="200" dy="0">8.3 Lack of Consistently Used,</tspan>
<tspan x="200" dy="32">Gold-standard, Accessible and</tspan>
<tspan x="200" dy="32">Large-Scale Evaluation Datasets</tspan>
</text>
<circle class="bullet" cx="160" cy="1561.5" r="6"/>
<rect class="box" x="186" y="1526" width="364" height="71" rx="8" ry="8"/>
<text x="200" y="1560" class="node">
<tspan x="200" dy="0">8.4 Promise of Large Language</tspan>
<tspan x="200" dy="32">Models</tspan>
</text>
<circle class="bullet" cx="270" cy="1648.0" r="6"/>
<rect class="box" x="296" y="1615" width="388" height="66" rx="8" ry="8"/>
<text x="310" y="1649" class="node">
<tspan x="310" dy="0">8.4.1 Current LLM-based Process</tspan>
<tspan x="310" dy="32">Extraction</tspan>
</text>
<circle class="bullet" cx="270" cy="1734.5" r="6"/>
<rect class="box" x="296" y="1699" width="380" height="71" rx="8" ry="8"/>
<text x="310" y="1733" class="node">
<tspan x="310" dy="0">8.4.2 Promising Developments in</tspan>
<tspan x="310" dy="32">the Field of LLMs</tspan>
</text>
<circle class="bullet" cx="50" cy="1823.5" r="6"/>
<rect class="box" x="76" y="1788" width="287" height="71" rx="8" ry="8"/>
<text x="90" y="1822" class="node">
<tspan x="90" dy="0">9 Threats to Validity and</tspan>
<tspan x="90" dy="32">Limitations</tspan>
</text>
<circle class="bullet" cx="50" cy="1897.5" r="6"/>
<rect class="box" x="76" y="1877" width="180" height="41" rx="8" ry="8"/>
<text x="90" y="1911" class="node">
<tspan x="90" dy="0">10 Conclusion</tspan>
</text>
</svg>