<svg xmlns="http://www.w3.org/2000/svg" width="1200" height="3060" viewBox="0 0 1200 3060">
<rect width="100%" height="100%" fill="white"/>
<style>text{font-family:Arial,Helvetica,sans-serif;} .title{font-size:30px;font-weight:700;fill:#101828;} .meta{font-size:18px;fill:#667085;} .node{font-size:24px;fill:#18181b;} .line{stroke:#a6b0c3;stroke-width:3;fill:none;} .bullet{fill:#465d7f;} .box{fill:#f8fafc;stroke:#cbd5e1;stroke-width:2;}</style>
<text x="40" y="52" class="title">2409.13738 Ablation (With Meta Abstract) Outline Tree</text>
<text x="40" y="86" class="meta">Source: results/2409.13738/ablation_with_meta_abstract/chatgpt_meow_outline_blind.json | Nodes: 30</text>
<path class="line" d="M 50 212.0 L 50 306.0 L 160 306.0"/>
<path class="line" d="M 50 212.0 L 50 400.0 L 160 400.0"/>
<path class="line" d="M 50 212.0 L 50 494.0 L 160 494.0"/>
<path class="line" d="M 50 588.0 L 50 682.0 L 160 682.0"/>
<path class="line" d="M 50 588.0 L 50 776.0 L 160 776.0"/>
<path class="line" d="M 50 588.0 L 50 870.0 L 160 870.0"/>
<path class="line" d="M 50 964.0 L 50 1073.0 L 160 1073.0"/>
<path class="line" d="M 50 964.0 L 50 1197.0 L 160 1197.0"/>
<path class="line" d="M 50 964.0 L 50 1306.0 L 160 1306.0"/>
<path class="line" d="M 50 1400.0 L 50 1494.0 L 160 1494.0"/>
<path class="line" d="M 50 1400.0 L 50 1603.0 L 160 1603.0"/>
<path class="line" d="M 50 1400.0 L 50 1712.0 L 160 1712.0"/>
<path class="line" d="M 50 1806.0 L 50 1900.0 L 160 1900.0"/>
<path class="line" d="M 50 1806.0 L 50 1994.0 L 160 1994.0"/>
<path class="line" d="M 50 1806.0 L 50 2088.0 L 160 2088.0"/>
<path class="line" d="M 50 2182.0 L 50 2276.0 L 160 2276.0"/>
<path class="line" d="M 50 2182.0 L 50 2370.0 L 160 2370.0"/>
<path class="line" d="M 50 2182.0 L 50 2464.0 L 160 2464.0"/>
<path class="line" d="M 50 2558.0 L 50 2652.0 L 160 2652.0"/>
<path class="line" d="M 50 2558.0 L 50 2761.0 L 160 2761.0"/>
<path class="line" d="M 50 2558.0 L 50 2885.0 L 160 2885.0"/>
<circle class="bullet" cx="50" cy="133.0" r="6"/>
<rect class="box" x="76" y="110" width="212" height="46" rx="8" ry="8"/>
<text x="90" y="139" class="node">
<tspan x="90" dy="0">1 Introduction</tspan>
</text>
<circle class="bullet" cx="50" cy="212.0" r="6"/>
<rect class="box" x="76" y="174" width="433" height="76" rx="8" ry="8"/>
<text x="90" y="203" class="node">
<tspan x="90" dy="0">2 Conceptual and Methodological</tspan>
<tspan x="90" dy="30">Foundations</tspan>
</text>
<circle class="bullet" cx="160" cy="306.0" r="6"/>
<rect class="box" x="186" y="268" width="433" height="76" rx="8" ry="8"/>
<text x="200" y="297" class="node">
<tspan x="200" dy="0">2.1 Business process management</tspan>
<tspan x="200" dy="30">and model types</tspan>
</text>
<circle class="bullet" cx="160" cy="400.0" r="6"/>
<rect class="box" x="186" y="362" width="394" height="76" rx="8" ry="8"/>
<text x="200" y="391" class="node">
<tspan x="200" dy="0">2.2 Process extraction tasks</tspan>
<tspan x="200" dy="30">and prior reviews</tspan>
</text>
<circle class="bullet" cx="160" cy="494.0" r="6"/>
<rect class="box" x="186" y="456" width="420" height="76" rx="8" ry="8"/>
<text x="200" y="485" class="node">
<tspan x="200" dy="0">2.3 Systematic review protocol</tspan>
<tspan x="200" dy="30">and synthesis strategy</tspan>
</text>
<circle class="bullet" cx="50" cy="588.0" r="6"/>
<rect class="box" x="76" y="550" width="433" height="76" rx="8" ry="8"/>
<text x="90" y="579" class="node">
<tspan x="90" dy="0">3 Rule-based Process Extraction</tspan>
<tspan x="90" dy="30">Methods</tspan>
</text>
<circle class="bullet" cx="160" cy="682.0" r="6"/>
<rect class="box" x="186" y="644" width="381" height="76" rx="8" ry="8"/>
<text x="200" y="673" class="node">
<tspan x="200" dy="0">3.1 Heuristic extraction of</tspan>
<tspan x="200" dy="30">imperative process models</tspan>
</text>
<circle class="bullet" cx="160" cy="776.0" r="6"/>
<rect class="box" x="186" y="738" width="433" height="76" rx="8" ry="8"/>
<text x="200" y="767" class="node">
<tspan x="200" dy="0">3.2 Rule-based extraction of</tspan>
<tspan x="200" dy="30">declarative and decision models</tspan>
</text>
<circle class="bullet" cx="160" cy="870.0" r="6"/>
<rect class="box" x="186" y="832" width="381" height="76" rx="8" ry="8"/>
<text x="200" y="861" class="node">
<tspan x="200" dy="0">3.3 Hybrid rule systems and</tspan>
<tspan x="200" dy="30">text-model synchronization</tspan>
</text>
<circle class="bullet" cx="50" cy="964.0" r="6"/>
<rect class="box" x="76" y="926" width="420" height="76" rx="8" ry="8"/>
<text x="90" y="955" class="node">
<tspan x="90" dy="0">4 Machine Learning Methods for</tspan>
<tspan x="90" dy="30">Process Extraction</tspan>
</text>
<circle class="bullet" cx="160" cy="1073.0" r="6"/>
<rect class="box" x="186" y="1020" width="342" height="106" rx="8" ry="8"/>
<text x="200" y="1049" class="node">
<tspan x="200" dy="0">4.1 Supervised learning</tspan>
<tspan x="200" dy="30">formulations for process</tspan>
<tspan x="200" dy="30">extraction</tspan>
</text>
<circle class="bullet" cx="160" cy="1197.0" r="6"/>
<rect class="box" x="186" y="1144" width="407" height="106" rx="8" ry="8"/>
<text x="200" y="1173" class="node">
<tspan x="200" dy="0">4.2 Structured prediction for</tspan>
<tspan x="200" dy="30">entities, relations, and</tspan>
<tspan x="200" dy="30">hierarchies</tspan>
</text>
<circle class="bullet" cx="160" cy="1306.0" r="6"/>
<rect class="box" x="186" y="1268" width="407" height="76" rx="8" ry="8"/>
<text x="200" y="1297" class="node">
<tspan x="200" dy="0">4.3 Limits of conventional ML</tspan>
<tspan x="200" dy="30">in low-resource settings</tspan>
</text>
<circle class="bullet" cx="50" cy="1400.0" r="6"/>
<rect class="box" x="76" y="1362" width="381" height="76" rx="8" ry="8"/>
<text x="90" y="1391" class="node">
<tspan x="90" dy="0">5 Deep Learning Methods for</tspan>
<tspan x="90" dy="30">Process Extraction</tspan>
</text>
<circle class="bullet" cx="160" cy="1494.0" r="6"/>
<rect class="box" x="186" y="1456" width="394" height="76" rx="8" ry="8"/>
<text x="200" y="1485" class="node">
<tspan x="200" dy="0">5.1 Neural architectures for</tspan>
<tspan x="200" dy="30">process structure discovery</tspan>
</text>
<circle class="bullet" cx="160" cy="1603.0" r="6"/>
<rect class="box" x="186" y="1550" width="433" height="106" rx="8" ry="8"/>
<text x="200" y="1579" class="node">
<tspan x="200" dy="0">5.2 Pre-trained language models</tspan>
<tspan x="200" dy="30">for entity and relation</tspan>
<tspan x="200" dy="30">extraction</tspan>
</text>
<circle class="bullet" cx="160" cy="1712.0" r="6"/>
<rect class="box" x="186" y="1674" width="433" height="76" rx="8" ry="8"/>
<text x="200" y="1703" class="node">
<tspan x="200" dy="0">5.3 Data augmentation, transfer</tspan>
<tspan x="200" dy="30">learning, and adaptation</tspan>
</text>
<circle class="bullet" cx="50" cy="1806.0" r="6"/>
<rect class="box" x="76" y="1768" width="381" height="76" rx="8" ry="8"/>
<text x="90" y="1797" class="node">
<tspan x="90" dy="0">6 Datasets, Benchmarks, and</tspan>
<tspan x="90" dy="30">Evaluation</tspan>
</text>
<circle class="bullet" cx="160" cy="1900.0" r="6"/>
<rect class="box" x="186" y="1862" width="407" height="76" rx="8" ry="8"/>
<text x="200" y="1891" class="node">
<tspan x="200" dy="0">6.1 Gold-standard corpora and</tspan>
<tspan x="200" dy="30">annotation schemes</tspan>
</text>
<circle class="bullet" cx="160" cy="1994.0" r="6"/>
<rect class="box" x="186" y="1956" width="394" height="76" rx="8" ry="8"/>
<text x="200" y="1985" class="node">
<tspan x="200" dy="0">6.2 Similarity, consistency,</tspan>
<tspan x="200" dy="30">and extraction metrics</tspan>
</text>
<circle class="bullet" cx="160" cy="2088.0" r="6"/>
<rect class="box" x="186" y="2050" width="394" height="76" rx="8" ry="8"/>
<text x="200" y="2079" class="node">
<tspan x="200" dy="0">6.3 Comparative findings and</tspan>
<tspan x="200" dy="30">benchmarking gaps</tspan>
</text>
<circle class="bullet" cx="50" cy="2182.0" r="6"/>
<rect class="box" x="76" y="2144" width="381" height="76" rx="8" ry="8"/>
<text x="90" y="2173" class="node">
<tspan x="90" dy="0">7 Large Language Models and</tspan>
<tspan x="90" dy="30">Emerging Directions</tspan>
</text>
<circle class="bullet" cx="160" cy="2276.0" r="6"/>
<rect class="box" x="186" y="2238" width="433" height="76" rx="8" ry="8"/>
<text x="200" y="2267" class="node">
<tspan x="200" dy="0">7.1 In-context learning and</tspan>
<tspan x="200" dy="30">prompt-based process extraction</tspan>
</text>
<circle class="bullet" cx="160" cy="2370.0" r="6"/>
<rect class="box" x="186" y="2332" width="407" height="76" rx="8" ry="8"/>
<text x="200" y="2361" class="node">
<tspan x="200" dy="0">7.2 LLMs for process modeling</tspan>
<tspan x="200" dy="30">and process mining tasks</tspan>
</text>
<circle class="bullet" cx="160" cy="2464.0" r="6"/>
<rect class="box" x="186" y="2426" width="394" height="76" rx="8" ry="8"/>
<text x="200" y="2455" class="node">
<tspan x="200" dy="0">7.3 Responsible, robust, and</tspan>
<tspan x="200" dy="30">tool-augmented LLM pipelines</tspan>
</text>
<circle class="bullet" cx="50" cy="2558.0" r="6"/>
<rect class="box" x="76" y="2520" width="394" height="76" rx="8" ry="8"/>
<text x="90" y="2549" class="node">
<tspan x="90" dy="0">8 Open Challenges and Future</tspan>
<tspan x="90" dy="30">Research</tspan>
</text>
<circle class="bullet" cx="160" cy="2652.0" r="6"/>
<rect class="box" x="186" y="2614" width="420" height="76" rx="8" ry="8"/>
<text x="200" y="2643" class="node">
<tspan x="200" dy="0">8.1 Real-world text complexity</tspan>
<tspan x="200" dy="30">and domain generalization</tspan>
</text>
<circle class="bullet" cx="160" cy="2761.0" r="6"/>
<rect class="box" x="186" y="2708" width="381" height="106" rx="8" ry="8"/>
<text x="200" y="2737" class="node">
<tspan x="200" dy="0">8.2 Scalable datasets, gold</tspan>
<tspan x="200" dy="30">standards, and reproducible</tspan>
<tspan x="200" dy="30">benchmarking</tspan>
</text>
<circle class="bullet" cx="160" cy="2885.0" r="6"/>
<rect class="box" x="186" y="2832" width="420" height="106" rx="8" ry="8"/>
<text x="200" y="2861" class="node">
<tspan x="200" dy="0">8.3 Toward end-to-end and</tspan>
<tspan x="200" dy="30">interactive process extraction</tspan>
<tspan x="200" dy="30">systems</tspan>
</text>
<circle class="bullet" cx="50" cy="2979.0" r="6"/>
<rect class="box" x="76" y="2956" width="186" height="46" rx="8" ry="8"/>
<text x="90" y="2985" class="node">
<tspan x="90" dy="0">9 Conclusion</tspan>
</text>
</svg>