<svg xmlns="http://www.w3.org/2000/svg" width="1200" height="4034" viewBox="0 0 1200 4034">
<rect width="100%" height="100%" fill="white"/>
<style>text{font-family:Arial,Helvetica,sans-serif;} .title{font-size:30px;font-weight:700;fill:#101828;} .meta{font-size:18px;fill:#667085;} .node{font-size:24px;fill:#18181b;} .line{stroke:#a6b0c3;stroke-width:3;fill:none;} .bullet{fill:#465d7f;} .box{fill:#f8fafc;stroke:#cbd5e1;stroke-width:2;}</style>
<text x="40" y="52" class="title">2409.13738 Best-by-Score Outline Tree</text>
<text x="40" y="86" class="meta">Source: results/2409.13738/chatgpt_meow_outline_blind.json | Nodes: 46</text>
<path class="line" d="M 50 130.5 L 50 202.0 L 160 202.0"/>
<path class="line" d="M 50 130.5 L 50 276.0 L 160 276.0"/>
<path class="line" d="M 50 340.0 L 50 419.0 L 160 419.0"/>
<path class="line" d="M 50 340.0 L 50 508.0 L 160 508.0"/>
<path class="line" d="M 50 340.0 L 50 596.0 L 160 596.0"/>
<path class="line" d="M 50 674.0 L 50 750.5 L 160 750.5"/>
<path class="line" d="M 50 674.0 L 50 842.0 L 160 842.0"/>
<path class="line" d="M 50 674.0 L 50 921.0 L 160 921.0"/>
<path class="line" d="M 50 985.0 L 50 1061.5 L 160 1061.5"/>
<path class="line" d="M 50 985.0 L 50 1150.5 L 160 1150.5"/>
<path class="line" d="M 50 985.0 L 50 1249.5 L 160 1249.5"/>
<path class="line" d="M 50 985.0 L 50 1348.5 L 160 1348.5"/>
<path class="line" d="M 50 1425.0 L 50 1499.0 L 160 1499.0"/>
<path class="line" d="M 50 1425.0 L 50 1585.5 L 160 1585.5"/>
<path class="line" d="M 50 1425.0 L 50 1674.5 L 160 1674.5"/>
<path class="line" d="M 50 1425.0 L 50 1766.0 L 160 1766.0"/>
<path class="line" d="M 50 1845.0 L 50 1924.0 L 160 1924.0"/>
<path class="line" d="M 50 1845.0 L 50 2015.5 L 160 2015.5"/>
<path class="line" d="M 50 1845.0 L 50 2117.0 L 160 2117.0"/>
<path class="line" d="M 50 1845.0 L 50 2218.5 L 160 2218.5"/>
<path class="line" d="M 50 2310.0 L 50 2401.5 L 160 2401.5"/>
<path class="line" d="M 50 2310.0 L 50 2493.0 L 160 2493.0"/>
<path class="line" d="M 50 2310.0 L 50 2584.5 L 160 2584.5"/>
<path class="line" d="M 50 2310.0 L 50 2676.0 L 160 2676.0"/>
<path class="line" d="M 50 2766.5 L 50 2857.0 L 160 2857.0"/>
<path class="line" d="M 50 2766.5 L 50 2948.5 L 160 2948.5"/>
<path class="line" d="M 50 2766.5 L 50 3040.0 L 160 3040.0"/>
<path class="line" d="M 50 3119.0 L 50 3195.5 L 160 3195.5"/>
<path class="line" d="M 50 3119.0 L 50 3284.5 L 160 3284.5"/>
<path class="line" d="M 50 3119.0 L 50 3376.0 L 160 3376.0"/>
<path class="line" d="M 50 3119.0 L 50 3467.5 L 160 3467.5"/>
<path class="line" d="M 50 3541.5 L 50 3617.0 L 160 3617.0"/>
<path class="line" d="M 50 3541.5 L 50 3708.0 L 160 3708.0"/>
<path class="line" d="M 50 3541.5 L 50 3795.0 L 160 3795.0"/>
<path class="line" d="M 50 3541.5 L 50 3881.5 L 160 3881.5"/>
<circle class="bullet" cx="50" cy="130.5" r="6"/>
<rect class="box" x="76" y="110" width="173" height="41" rx="8" ry="8"/>
<text x="90" y="144" class="node">
<tspan x="90" dy="0">1 Introduction</tspan>
</text>
<circle class="bullet" cx="160" cy="202.0" r="6"/>
<rect class="box" x="186" y="169" width="305" height="66" rx="8" ry="8"/>
<text x="200" y="203" class="node">
<tspan x="200" dy="0">1.1 Motivation for Process</tspan>
<tspan x="200" dy="32">Extraction from Text</tspan>
</text>
<circle class="bullet" cx="160" cy="276.0" r="6"/>
<rect class="box" x="186" y="253" width="364" height="46" rx="8" ry="8"/>
<text x="200" y="287" class="node">
<tspan x="200" dy="0">1.2 Scope and Research Focus</tspan>
</text>
<circle class="bullet" cx="50" cy="340.0" r="6"/>
<rect class="box" x="76" y="317" width="176" height="46" rx="8" ry="8"/>
<text x="90" y="351" class="node">
<tspan x="90" dy="0">2 Background</tspan>
</text>
<circle class="bullet" cx="160" cy="419.0" r="6"/>
<rect class="box" x="186" y="381" width="363" height="76" rx="8" ry="8"/>
<text x="200" y="415" class="node">
<tspan x="200" dy="0">2.1 Business Process Modeling</tspan>
<tspan x="200" dy="32">Languages and Targets</tspan>
</text>
<circle class="bullet" cx="160" cy="508.0" r="6"/>
<rect class="box" x="186" y="475" width="387" height="66" rx="8" ry="8"/>
<text x="200" y="509" class="node">
<tspan x="200" dy="0">2.2 Process Extraction as an NLP</tspan>
<tspan x="200" dy="32">and Information Extraction Task</tspan>
</text>
<circle class="bullet" cx="160" cy="596.0" r="6"/>
<rect class="box" x="186" y="559" width="384" height="74" rx="8" ry="8"/>
<text x="200" y="593" class="node">
<tspan x="200" dy="0">2.3 Problem Variants: Imperative,</tspan>
<tspan x="200" dy="32">Declarative, and Decision Models</tspan>
</text>
<circle class="bullet" cx="50" cy="674.0" r="6"/>
<rect class="box" x="76" y="651" width="395" height="46" rx="8" ry="8"/>
<text x="90" y="685" class="node">
<tspan x="90" dy="0">3 Systematic Review Methodology</tspan>
</text>
<circle class="bullet" cx="160" cy="750.5" r="6"/>
<rect class="box" x="186" y="715" width="355" height="71" rx="8" ry="8"/>
<text x="200" y="749" class="node">
<tspan x="200" dy="0">3.1 Search Strategy and Study</tspan>
<tspan x="200" dy="32">Selection</tspan>
</text>
<circle class="bullet" cx="160" cy="842.0" r="6"/>
<rect class="box" x="186" y="804" width="391" height="76" rx="8" ry="8"/>
<text x="200" y="838" class="node">
<tspan x="200" dy="0">3.2 Coding Scheme and Thematic</tspan>
<tspan x="200" dy="32">Analysis</tspan>
</text>
<circle class="bullet" cx="160" cy="921.0" r="6"/>
<rect class="box" x="186" y="898" width="329" height="46" rx="8" ry="8"/>
<text x="200" y="932" class="node">
<tspan x="200" dy="0">3.3 Comparison Dimensions</tspan>
</text>
<circle class="bullet" cx="50" cy="985.0" r="6"/>
<rect class="box" x="76" y="962" width="305" height="46" rx="8" ry="8"/>
<text x="90" y="996" class="node">
<tspan x="90" dy="0">4 Rule-based Approaches</tspan>
</text>
<circle class="bullet" cx="160" cy="1061.5" r="6"/>
<rect class="box" x="186" y="1026" width="345" height="71" rx="8" ry="8"/>
<text x="200" y="1060" class="node">
<tspan x="200" dy="0">4.1 Linguistic Rules, Patterns,</tspan>
<tspan x="200" dy="32">and Heuristics</tspan>
</text>
<circle class="bullet" cx="160" cy="1150.5" r="6"/>
<rect class="box" x="186" y="1115" width="404" height="71" rx="8" ry="8"/>
<text x="200" y="1149" class="node">
<tspan x="200" dy="0">4.2 Generation of BPMN and Other</tspan>
<tspan x="200" dy="32">Imperative Models</tspan>
</text>
<circle class="bullet" cx="160" cy="1249.5" r="6"/>
<rect class="box" x="186" y="1204" width="341" height="91" rx="8" ry="8"/>
<text x="200" y="1238" class="node">
<tspan x="200" dy="0">4.3 Declarative and</tspan>
<tspan x="200" dy="32">Decision-focused Rule-based</tspan>
<tspan x="200" dy="32">Extraction</tspan>
</text>
<circle class="bullet" cx="160" cy="1348.5" r="6"/>
<rect class="box" x="186" y="1313" width="367" height="71" rx="8" ry="8"/>
<text x="200" y="1347" class="node">
<tspan x="200" dy="0">4.4 Strengths and Limitations of</tspan>
<tspan x="200" dy="32">Rule-based Methods</tspan>
</text>
<circle class="bullet" cx="50" cy="1425.0" r="6"/>
<rect class="box" x="76" y="1402" width="374" height="46" rx="8" ry="8"/>
<text x="90" y="1436" class="node">
<tspan x="90" dy="0">5 Machine Learning Approaches</tspan>
</text>
<circle class="bullet" cx="160" cy="1499.0" r="6"/>
<rect class="box" x="186" y="1466" width="372" height="66" rx="8" ry="8"/>
<text x="200" y="1500" class="node">
<tspan x="200" dy="0">5.1 Feature-based Classification</tspan>
<tspan x="200" dy="32">and Structured Prediction</tspan>
</text>
<circle class="bullet" cx="160" cy="1585.5" r="6"/>
<rect class="box" x="186" y="1550" width="356" height="71" rx="8" ry="8"/>
<text x="200" y="1584" class="node">
<tspan x="200" dy="0">5.2 Sequence and Hierarchical</tspan>
<tspan x="200" dy="32">Models</tspan>
</text>
<circle class="bullet" cx="160" cy="1674.5" r="6"/>
<rect class="box" x="186" y="1639" width="370" height="71" rx="8" ry="8"/>
<text x="200" y="1673" class="node">
<tspan x="200" dy="0">5.3 Learning for Declarative and</tspan>
<tspan x="200" dy="32">Decision Model Extraction</tspan>
</text>
<circle class="bullet" cx="160" cy="1766.0" r="6"/>
<rect class="box" x="186" y="1728" width="398" height="76" rx="8" ry="8"/>
<text x="200" y="1762" class="node">
<tspan x="200" dy="0">5.4 Advantages and Constraints of</tspan>
<tspan x="200" dy="32">Classical Machine Learning</tspan>
</text>
<circle class="bullet" cx="50" cy="1845.0" r="6"/>
<rect class="box" x="76" y="1822" width="340" height="46" rx="8" ry="8"/>
<text x="90" y="1856" class="node">
<tspan x="90" dy="0">6 Deep Learning Approaches</tspan>
</text>
<circle class="bullet" cx="160" cy="1924.0" r="6"/>
<rect class="box" x="186" y="1886" width="384" height="76" rx="8" ry="8"/>
<text x="200" y="1920" class="node">
<tspan x="200" dy="0">6.1 Pre-trained Language Models</tspan>
<tspan x="200" dy="32">for Entity and Relation Extraction</tspan>
</text>
<circle class="bullet" cx="160" cy="2015.5" r="6"/>
<rect class="box" x="186" y="1980" width="399" height="71" rx="8" ry="8"/>
<text x="200" y="2014" class="node">
<tspan x="200" dy="0">6.2 Data-driven Process Extraction</tspan>
<tspan x="200" dy="32">Pipelines</tspan>
</text>
<circle class="bullet" cx="160" cy="2117.0" r="6"/>
<rect class="box" x="186" y="2069" width="376" height="96" rx="8" ry="8"/>
<text x="200" y="2103" class="node">
<tspan x="200" dy="0">6.3 Few-shot and In-context</tspan>
<tspan x="200" dy="32">Learning for Process Information</tspan>
<tspan x="200" dy="32">Extraction</tspan>
</text>
<circle class="bullet" cx="160" cy="2218.5" r="6"/>
<rect class="box" x="186" y="2183" width="309" height="71" rx="8" ry="8"/>
<text x="200" y="2217" class="node">
<tspan x="200" dy="0">6.4 Bias, Efficiency, and</tspan>
<tspan x="200" dy="32">Small-data Considerations</tspan>
</text>
<circle class="bullet" cx="50" cy="2310.0" r="6"/>
<rect class="box" x="76" y="2272" width="376" height="76" rx="8" ry="8"/>
<text x="90" y="2306" class="node">
<tspan x="90" dy="0">7 Large Language Models and</tspan>
<tspan x="90" dy="32">Emerging Generative Paradigms</tspan>
</text>
<circle class="bullet" cx="160" cy="2401.5" r="6"/>
<rect class="box" x="186" y="2366" width="359" height="71" rx="8" ry="8"/>
<text x="200" y="2400" class="node">
<tspan x="200" dy="0">7.1 LLMs for Business Process</tspan>
<tspan x="200" dy="32">Management Tasks</tspan>
</text>
<circle class="bullet" cx="160" cy="2493.0" r="6"/>
<rect class="box" x="186" y="2455" width="392" height="76" rx="8" ry="8"/>
<text x="200" y="2489" class="node">
<tspan x="200" dy="0">7.2 Prompting, Retrieval, and</tspan>
<tspan x="200" dy="32">Augmented Generation Strategies</tspan>
</text>
<circle class="bullet" cx="160" cy="2584.5" r="6"/>
<rect class="box" x="186" y="2549" width="406" height="71" rx="8" ry="8"/>
<text x="200" y="2583" class="node">
<tspan x="200" dy="0">7.3 LLMs for Process Modeling and</tspan>
<tspan x="200" dy="32">Extraction</tspan>
</text>
<circle class="bullet" cx="160" cy="2676.0" r="6"/>
<rect class="box" x="186" y="2638" width="297" height="76" rx="8" ry="8"/>
<text x="200" y="2672" class="node">
<tspan x="200" dy="0">7.4 Risks, Security, and</tspan>
<tspan x="200" dy="32">Reliability Considerations</tspan>
</text>
<circle class="bullet" cx="50" cy="2766.5" r="6"/>
<rect class="box" x="76" y="2732" width="343" height="69" rx="8" ry="8"/>
<text x="90" y="2766" class="node">
<tspan x="90" dy="0">8 Datasets, Benchmarks, and</tspan>
<tspan x="90" dy="32">Evaluation</tspan>
</text>
<circle class="bullet" cx="160" cy="2857.0" r="6"/>
<rect class="box" x="186" y="2819" width="375" height="76" rx="8" ry="8"/>
<text x="200" y="2853" class="node">
<tspan x="200" dy="0">8.1 Annotated Corpora and Data</tspan>
<tspan x="200" dy="32">Scarcity</tspan>
</text>
<circle class="bullet" cx="160" cy="2948.5" r="6"/>
<rect class="box" x="186" y="2913" width="335" height="71" rx="8" ry="8"/>
<text x="200" y="2947" class="node">
<tspan x="200" dy="0">8.2 Evaluation Metrics for</tspan>
<tspan x="200" dy="32">Extraction and Model Quality</tspan>
</text>
<circle class="bullet" cx="160" cy="3040.0" r="6"/>
<rect class="box" x="186" y="3002" width="395" height="76" rx="8" ry="8"/>
<text x="200" y="3036" class="node">
<tspan x="200" dy="0">8.3 Benchmarking Challenges and</tspan>
<tspan x="200" dy="32">Comparability</tspan>
</text>
<circle class="bullet" cx="50" cy="3119.0" r="6"/>
<rect class="box" x="76" y="3096" width="316" height="46" rx="8" ry="8"/>
<text x="90" y="3130" class="node">
<tspan x="90" dy="0">9 Cross-cutting Challenges</tspan>
</text>
<circle class="bullet" cx="160" cy="3195.5" r="6"/>
<rect class="box" x="186" y="3160" width="404" height="71" rx="8" ry="8"/>
<text x="200" y="3194" class="node">
<tspan x="200" dy="0">9.1 Generalization Across Domains</tspan>
<tspan x="200" dy="32">and Document Types</tspan>
</text>
<circle class="bullet" cx="160" cy="3284.5" r="6"/>
<rect class="box" x="186" y="3249" width="372" height="71" rx="8" ry="8"/>
<text x="200" y="3283" class="node">
<tspan x="200" dy="0">9.2 Control Flow, Hierarchy, and</tspan>
<tspan x="200" dy="32">Structural Semantics</tspan>
</text>
<circle class="bullet" cx="160" cy="3376.0" r="6"/>
<rect class="box" x="186" y="3338" width="329" height="76" rx="8" ry="8"/>
<text x="200" y="3372" class="node">
<tspan x="200" dy="0">9.3 Explainability, Trust, and</tspan>
<tspan x="200" dy="32">Human-in-the-loop Support</tspan>
</text>
<circle class="bullet" cx="160" cy="3467.5" r="6"/>
<rect class="box" x="186" y="3432" width="415" height="71" rx="8" ry="8"/>
<text x="200" y="3466" class="node">
<tspan x="200" dy="0">9.4 Lack of Standardized Resources</tspan>
<tspan x="200" dy="32">and Reproducible Evaluation</tspan>
</text>
<circle class="bullet" cx="50" cy="3541.5" r="6"/>
<rect class="box" x="76" y="3521" width="353" height="41" rx="8" ry="8"/>
<text x="90" y="3555" class="node">
<tspan x="90" dy="0">10 Future Research Directions</tspan>
</text>
<circle class="bullet" cx="160" cy="3617.0" r="6"/>
<rect class="box" x="186" y="3580" width="376" height="74" rx="8" ry="8"/>
<text x="200" y="3614" class="node">
<tspan x="200" dy="0">10.1 Hybrid Pipelines Combining</tspan>
<tspan x="200" dy="32">Rules, ML, and LLMs</tspan>
</text>
<circle class="bullet" cx="160" cy="3708.0" r="6"/>
<rect class="box" x="186" y="3672" width="375" height="72" rx="8" ry="8"/>
<text x="200" y="3706" class="node">
<tspan x="200" dy="0">10.2 Better Datasets, Annotation</tspan>
<tspan x="200" dy="32">Schemes, and Shared Tasks</tspan>
</text>
<circle class="bullet" cx="160" cy="3795.0" r="6"/>
<rect class="box" x="186" y="3762" width="344" height="66" rx="8" ry="8"/>
<text x="200" y="3796" class="node">
<tspan x="200" dy="0">10.3 Robust Evaluation for</tspan>
<tspan x="200" dy="32">End-to-end Model Generation</tspan>
</text>
<circle class="bullet" cx="160" cy="3881.5" r="6"/>
<rect class="box" x="186" y="3846" width="395" height="71" rx="8" ry="8"/>
<text x="200" y="3880" class="node">
<tspan x="200" dy="0">10.4 Toward Practical Deployment</tspan>
<tspan x="200" dy="32">in BPM Environments</tspan>
</text>
<circle class="bullet" cx="50" cy="3955.5" r="6"/>
<rect class="box" x="76" y="3935" width="180" height="41" rx="8" ry="8"/>
<text x="90" y="3969" class="node">
<tspan x="90" dy="0">11 Conclusion</tspan>
</text>
</svg>