<svg xmlns="http://www.w3.org/2000/svg" width="1200" height="4650" viewBox="0 0 1200 4650">
<rect width="100%" height="100%" fill="white"/>
<style>text{font-family:Arial,Helvetica,sans-serif;} .title{font-size:30px;font-weight:700;fill:#101828;} .meta{font-size:18px;fill:#667085;} .node{font-size:24px;fill:#18181b;} .line{stroke:#a6b0c3;stroke-width:3;fill:none;} .bullet{fill:#465d7f;} .box{fill:#f8fafc;stroke:#cbd5e1;stroke-width:2;}</style>
<text x="40" y="52" class="title">2511.13936 Ablation (No Meta Abstract) Outline Tree</text>
<text x="40" y="86" class="meta">Source: results/2511.13936/ablation_no_meta_abstract/chatgpt_meow_outline_blind.json | Nodes: 45</text>
<path class="line" d="M 50 133.0 L 50 227.0 L 160 227.0"/>
<path class="line" d="M 50 133.0 L 50 336.0 L 160 336.0"/>
<path class="line" d="M 50 133.0 L 50 430.0 L 160 430.0"/>
<path class="line" d="M 50 509.0 L 50 588.0 L 160 588.0"/>
<path class="line" d="M 50 509.0 L 50 682.0 L 160 682.0"/>
<path class="line" d="M 50 509.0 L 50 776.0 L 160 776.0"/>
<path class="line" d="M 50 870.0 L 50 964.0 L 160 964.0"/>
<path class="line" d="M 50 870.0 L 50 1073.0 L 160 1073.0"/>
<path class="line" d="M 50 870.0 L 50 1182.0 L 160 1182.0"/>
<path class="line" d="M 50 1276.0 L 50 1370.0 L 160 1370.0"/>
<path class="line" d="M 50 1276.0 L 50 1464.0 L 160 1464.0"/>
<path class="line" d="M 50 1276.0 L 50 1558.0 L 160 1558.0"/>
<path class="line" d="M 50 1276.0 L 50 1682.0 L 160 1682.0"/>
<path class="line" d="M 50 1276.0 L 50 1821.0 L 160 1821.0"/>
<path class="line" d="M 50 1945.0 L 50 2054.0 L 160 2054.0"/>
<path class="line" d="M 50 1945.0 L 50 2163.0 L 160 2163.0"/>
<path class="line" d="M 50 1945.0 L 50 2272.0 L 160 2272.0"/>
<path class="line" d="M 50 1945.0 L 50 2381.0 L 160 2381.0"/>
<path class="line" d="M 50 1945.0 L 50 2490.0 L 160 2490.0"/>
<path class="line" d="M 50 2569.0 L 50 2648.0 L 160 2648.0"/>
<path class="line" d="M 50 2569.0 L 50 2757.0 L 160 2757.0"/>
<path class="line" d="M 50 2569.0 L 50 2881.0 L 160 2881.0"/>
<path class="line" d="M 50 2569.0 L 50 3005.0 L 160 3005.0"/>
<path class="line" d="M 50 3114.0 L 50 3208.0 L 160 3208.0"/>
<path class="line" d="M 50 3114.0 L 50 3302.0 L 160 3302.0"/>
<path class="line" d="M 50 3114.0 L 50 3396.0 L 160 3396.0"/>
<path class="line" d="M 50 3114.0 L 50 3490.0 L 160 3490.0"/>
<path class="line" d="M 50 3569.0 L 50 3648.0 L 160 3648.0"/>
<path class="line" d="M 50 3569.0 L 50 3742.0 L 160 3742.0"/>
<path class="line" d="M 50 3569.0 L 50 3851.0 L 160 3851.0"/>
<path class="line" d="M 50 3569.0 L 50 3975.0 L 160 3975.0"/>
<path class="line" d="M 50 4069.0 L 50 4163.0 L 160 4163.0"/>
<path class="line" d="M 50 4069.0 L 50 4272.0 L 160 4272.0"/>
<path class="line" d="M 50 4069.0 L 50 4381.0 L 160 4381.0"/>
<path class="line" d="M 50 4069.0 L 50 4490.0 L 160 4490.0"/>
<circle class="bullet" cx="50" cy="133.0" r="6"/>
<rect class="box" x="76" y="110" width="212" height="46" rx="8" ry="8"/>
<text x="90" y="139" class="node">
<tspan x="90" dy="0">1 Introduction</tspan>
</text>
<circle class="bullet" cx="160" cy="227.0" r="6"/>
<rect class="box" x="186" y="174" width="407" height="106" rx="8" ry="8"/>
<text x="200" y="203" class="node">
<tspan x="200" dy="0">1.1 Motivation: Subjectivity</tspan>
<tspan x="200" dy="30">and Human Preference in Audio</tspan>
<tspan x="200" dy="30">Tasks</tspan>
</text>
<circle class="bullet" cx="160" cy="336.0" r="6"/>
<rect class="box" x="186" y="298" width="381" height="76" rx="8" ry="8"/>
<text x="200" y="327" class="node">
<tspan x="200" dy="0">1.2 From Absolute Labels to</tspan>
<tspan x="200" dy="30">Preference Supervision</tspan>
</text>
<circle class="bullet" cx="160" cy="430.0" r="6"/>
<rect class="box" x="186" y="392" width="433" height="76" rx="8" ry="8"/>
<text x="200" y="421" class="node">
<tspan x="200" dy="0">1.3 Scope of Audio Applications</tspan>
<tspan x="200" dy="30">Covered in This Review</tspan>
</text>
<circle class="bullet" cx="50" cy="509.0" r="6"/>
<rect class="box" x="76" y="486" width="290" height="46" rx="8" ry="8"/>
<text x="90" y="515" class="node">
<tspan x="90" dy="0">2 Review Methodology</tspan>
</text>
<circle class="bullet" cx="160" cy="588.0" r="6"/>
<rect class="box" x="186" y="550" width="420" height="76" rx="8" ry="8"/>
<text x="200" y="579" class="node">
<tspan x="200" dy="0">2.1 Search Strategy and Source</tspan>
<tspan x="200" dy="30">Coverage</tspan>
</text>
<circle class="bullet" cx="160" cy="682.0" r="6"/>
<rect class="box" x="186" y="644" width="433" height="76" rx="8" ry="8"/>
<text x="200" y="673" class="node">
<tspan x="200" dy="0">2.2 Screening, Eligibility, and</tspan>
<tspan x="200" dy="30">Reporting Protocol</tspan>
</text>
<circle class="bullet" cx="160" cy="776.0" r="6"/>
<rect class="box" x="186" y="738" width="433" height="76" rx="8" ry="8"/>
<text x="200" y="767" class="node">
<tspan x="200" dy="0">2.3 Taxonomy for Organizing</tspan>
<tspan x="200" dy="30">Preference-Based Audio Research</tspan>
</text>
<circle class="bullet" cx="50" cy="870.0" r="6"/>
<rect class="box" x="76" y="832" width="355" height="76" rx="8" ry="8"/>
<text x="90" y="861" class="node">
<tspan x="90" dy="0">3 Foundations of</tspan>
<tspan x="90" dy="30">Preference-Based Learning</tspan>
</text>
<circle class="bullet" cx="160" cy="964.0" r="6"/>
<rect class="box" x="186" y="926" width="394" height="76" rx="8" ry="8"/>
<text x="200" y="955" class="node">
<tspan x="200" dy="0">3.1 Paired-Comparison and</tspan>
<tspan x="200" dy="30">Choice-Theoretic Foundations</tspan>
</text>
<circle class="bullet" cx="160" cy="1073.0" r="6"/>
<rect class="box" x="186" y="1020" width="433" height="106" rx="8" ry="8"/>
<text x="200" y="1049" class="node">
<tspan x="200" dy="0">3.2 Learning-to-Rank: Pairwise,</tspan>
<tspan x="200" dy="30">Listwise, and Comparison-Based</tspan>
<tspan x="200" dy="30">Search</tspan>
</text>
<circle class="bullet" cx="160" cy="1182.0" r="6"/>
<rect class="box" x="186" y="1144" width="407" height="76" rx="8" ry="8"/>
<text x="200" y="1173" class="node">
<tspan x="200" dy="0">3.3 Preference Optimization,</tspan>
<tspan x="200" dy="30">RLHF, and Direct Optimization</tspan>
</text>
<circle class="bullet" cx="50" cy="1276.0" r="6"/>
<rect class="box" x="76" y="1238" width="433" height="76" rx="8" ry="8"/>
<text x="90" y="1267" class="node">
<tspan x="90" dy="0">4 Preference-Based Learning for</tspan>
<tspan x="90" dy="30">Audio Understanding</tspan>
</text>
<circle class="bullet" cx="160" cy="1370.0" r="6"/>
<rect class="box" x="186" y="1332" width="407" height="76" rx="8" ry="8"/>
<text x="200" y="1361" class="node">
<tspan x="200" dy="0">4.1 Music Emotion Recognition</tspan>
<tspan x="200" dy="30">and Affective Sound Modeling</tspan>
</text>
<circle class="bullet" cx="160" cy="1464.0" r="6"/>
<rect class="box" x="186" y="1426" width="420" height="76" rx="8" ry="8"/>
<text x="200" y="1455" class="node">
<tspan x="200" dy="0">4.2 Speech Emotion Recognition</tspan>
<tspan x="200" dy="30">with Ranking-Based Methods</tspan>
</text>
<circle class="bullet" cx="160" cy="1558.0" r="6"/>
<rect class="box" x="186" y="1520" width="368" height="76" rx="8" ry="8"/>
<text x="200" y="1549" class="node">
<tspan x="200" dy="0">4.3 Ordinal and Continuous</tspan>
<tspan x="200" dy="30">Emotion Modeling</tspan>
</text>
<circle class="bullet" cx="160" cy="1682.0" r="6"/>
<rect class="box" x="186" y="1614" width="420" height="136" rx="8" ry="8"/>
<text x="200" y="1643" class="node">
<tspan x="200" dy="0">4.4 Multimodal,</tspan>
<tspan x="200" dy="30">Intended-versus-Perceived, and</tspan>
<tspan x="200" dy="30">Cross-Corpus Emotion</tspan>
<tspan x="200" dy="30">Recognition</tspan>
</text>
<circle class="bullet" cx="160" cy="1821.0" r="6"/>
<rect class="box" x="186" y="1768" width="355" height="106" rx="8" ry="8"/>
<text x="200" y="1797" class="node">
<tspan x="200" dy="0">4.5 Domain Adaptation and</tspan>
<tspan x="200" dy="30">Generalization in</tspan>
<tspan x="200" dy="30">Preference-Based SER</tspan>
</text>
<circle class="bullet" cx="50" cy="1945.0" r="6"/>
<rect class="box" x="76" y="1892" width="433" height="106" rx="8" ry="8"/>
<text x="90" y="1921" class="node">
<tspan x="90" dy="0">5 Preference-Based Learning for</tspan>
<tspan x="90" dy="30">Audio Generation and</tspan>
<tspan x="90" dy="30">Interaction</tspan>
</text>
<circle class="bullet" cx="160" cy="2054.0" r="6"/>
<rect class="box" x="186" y="2016" width="420" height="76" rx="8" ry="8"/>
<text x="200" y="2045" class="node">
<tspan x="200" dy="0">5.1 Interactive Music Creation</tspan>
<tspan x="200" dy="30">and Accompaniment</tspan>
</text>
<circle class="bullet" cx="160" cy="2163.0" r="6"/>
<rect class="box" x="186" y="2110" width="407" height="106" rx="8" ry="8"/>
<text x="200" y="2139" class="node">
<tspan x="200" dy="0">5.2 Text-to-Audio and Music</tspan>
<tspan x="200" dy="30">Generation Aligned with Human</tspan>
<tspan x="200" dy="30">Preferences</tspan>
</text>
<circle class="bullet" cx="160" cy="2272.0" r="6"/>
<rect class="box" x="186" y="2234" width="420" height="76" rx="8" ry="8"/>
<text x="200" y="2263" class="node">
<tspan x="200" dy="0">5.3 Emotional and Controllable</tspan>
<tspan x="200" dy="30">Speech Generation</tspan>
</text>
<circle class="bullet" cx="160" cy="2381.0" r="6"/>
<rect class="box" x="186" y="2328" width="368" height="106" rx="8" ry="8"/>
<text x="200" y="2357" class="node">
<tspan x="200" dy="0">5.4 Speech Recognition and</tspan>
<tspan x="200" dy="30">Enhancement Optimized with</tspan>
<tspan x="200" dy="30">Feedback</tspan>
</text>
<circle class="bullet" cx="160" cy="2490.0" r="6"/>
<rect class="box" x="186" y="2452" width="329" height="76" rx="8" ry="8"/>
<text x="200" y="2481" class="node">
<tspan x="200" dy="0">5.5 Emerging Omni-Modal</tspan>
<tspan x="200" dy="30">Audio-Language Systems</tspan>
</text>
<circle class="bullet" cx="50" cy="2569.0" r="6"/>
<rect class="box" x="76" y="2546" width="420" height="46" rx="8" ry="8"/>
<text x="90" y="2575" class="node">
<tspan x="90" dy="0">6 Data, Labels, and Benchmarks</tspan>
</text>
<circle class="bullet" cx="160" cy="2648.0" r="6"/>
<rect class="box" x="186" y="2610" width="394" height="76" rx="8" ry="8"/>
<text x="200" y="2639" class="node">
<tspan x="200" dy="0">6.1 Core Corpora for Emotion</tspan>
<tspan x="200" dy="30">and Expressive Audio</tspan>
</text>
<circle class="bullet" cx="160" cy="2757.0" r="6"/>
<rect class="box" x="186" y="2704" width="381" height="106" rx="8" ry="8"/>
<text x="200" y="2733" class="node">
<tspan x="200" dy="0">6.2 Constructing Preference</tspan>
<tspan x="200" dy="30">Labels from Absolute</tspan>
<tspan x="200" dy="30">Annotations</tspan>
</text>
<circle class="bullet" cx="160" cy="2881.0" r="6"/>
<rect class="box" x="186" y="2828" width="394" height="106" rx="8" ry="8"/>
<text x="200" y="2857" class="node">
<tspan x="200" dy="0">6.3 Crowdsourcing, Listener</tspan>
<tspan x="200" dy="30">Design, and Subjective Study</tspan>
<tspan x="200" dy="30">Protocols</tspan>
</text>
<circle class="bullet" cx="160" cy="3005.0" r="6"/>
<rect class="box" x="186" y="2952" width="394" height="106" rx="8" ry="8"/>
<text x="200" y="2981" class="node">
<tspan x="200" dy="0">6.4 General Speech,</tspan>
<tspan x="200" dy="30">Audio-Visual, and Omni-Modal</tspan>
<tspan x="200" dy="30">Benchmarks</tspan>
</text>
<circle class="bullet" cx="50" cy="3114.0" r="6"/>
<rect class="box" x="76" y="3076" width="420" height="76" rx="8" ry="8"/>
<text x="90" y="3105" class="node">
<tspan x="90" dy="0">7 Evaluation of</tspan>
<tspan x="90" dy="30">Preference-Based Audio Systems</tspan>
</text>
<circle class="bullet" cx="160" cy="3208.0" r="6"/>
<rect class="box" x="186" y="3170" width="433" height="76" rx="8" ry="8"/>
<text x="200" y="3199" class="node">
<tspan x="200" dy="0">7.1 Human-Centered Evaluation</tspan>
<tspan x="200" dy="30">and Pairwise Preference Testing</tspan>
</text>
<circle class="bullet" cx="160" cy="3302.0" r="6"/>
<rect class="box" x="186" y="3264" width="420" height="76" rx="8" ry="8"/>
<text x="200" y="3293" class="node">
<tspan x="200" dy="0">7.2 Objective Speech and Audio</tspan>
<tspan x="200" dy="30">Quality Metrics</tspan>
</text>
<circle class="bullet" cx="160" cy="3396.0" r="6"/>
<rect class="box" x="186" y="3358" width="433" height="76" rx="8" ry="8"/>
<text x="200" y="3387" class="node">
<tspan x="200" dy="0">7.3 Automatic Proxy Metrics and</tspan>
<tspan x="200" dy="30">Their Limits</tspan>
</text>
<circle class="bullet" cx="160" cy="3490.0" r="6"/>
<rect class="box" x="186" y="3452" width="368" height="76" rx="8" ry="8"/>
<text x="200" y="3481" class="node">
<tspan x="200" dy="0">7.4 LLM-Based and Holistic</tspan>
<tspan x="200" dy="30">Evaluation Frameworks</tspan>
</text>
<circle class="bullet" cx="50" cy="3569.0" r="6"/>
<rect class="box" x="76" y="3546" width="368" height="46" rx="8" ry="8"/>
<text x="90" y="3575" class="node">
<tspan x="90" dy="0">8 Cross-Cutting Challenges</tspan>
</text>
<circle class="bullet" cx="160" cy="3648.0" r="6"/>
<rect class="box" x="186" y="3610" width="420" height="76" rx="8" ry="8"/>
<text x="200" y="3639" class="node">
<tspan x="200" dy="0">8.1 Annotator Disagreement and</tspan>
<tspan x="200" dy="30">Label Ambiguity</tspan>
</text>
<circle class="bullet" cx="160" cy="3742.0" r="6"/>
<rect class="box" x="186" y="3704" width="433" height="76" rx="8" ry="8"/>
<text x="200" y="3733" class="node">
<tspan x="200" dy="0">8.2 Reward Misspecification and</tspan>
<tspan x="200" dy="30">Overoptimization</tspan>
</text>
<circle class="bullet" cx="160" cy="3851.0" r="6"/>
<rect class="box" x="186" y="3798" width="381" height="106" rx="8" ry="8"/>
<text x="200" y="3827" class="node">
<tspan x="200" dy="0">8.3 Data Efficiency,</tspan>
<tspan x="200" dy="30">Optimization Stability, and</tspan>
<tspan x="200" dy="30">Sample Complexity</tspan>
</text>
<circle class="bullet" cx="160" cy="3975.0" r="6"/>
<rect class="box" x="186" y="3922" width="420" height="106" rx="8" ry="8"/>
<text x="200" y="3951" class="node">
<tspan x="200" dy="0">8.4 Personalization,</tspan>
<tspan x="200" dy="30">Multi-Objective Alignment, and</tspan>
<tspan x="200" dy="30">Safety</tspan>
</text>
<circle class="bullet" cx="50" cy="4069.0" r="6"/>
<rect class="box" x="76" y="4046" width="277" height="46" rx="8" ry="8"/>
<text x="90" y="4075" class="node">
<tspan x="90" dy="0">9 Future Directions</tspan>
</text>
<circle class="bullet" cx="160" cy="4163.0" r="6"/>
<rect class="box" x="186" y="4110" width="433" height="106" rx="8" ry="8"/>
<text x="200" y="4139" class="node">
<tspan x="200" dy="0">9.1 Beyond Pairwise Supervision</tspan>
<tspan x="200" dy="30">toward Richer Preference</tspan>
<tspan x="200" dy="30">Structures</tspan>
</text>
<circle class="bullet" cx="160" cy="4272.0" r="6"/>
<rect class="box" x="186" y="4234" width="407" height="76" rx="8" ry="8"/>
<text x="200" y="4263" class="node">
<tspan x="200" dy="0">9.2 Unified Multimodal and</tspan>
<tspan x="200" dy="30">Real-Time Preference Modeling</tspan>
</text>
<circle class="bullet" cx="160" cy="4381.0" r="6"/>
<rect class="box" x="186" y="4328" width="329" height="106" rx="8" ry="8"/>
<text x="200" y="4357" class="node">
<tspan x="200" dy="0">9.3 Standardized and</tspan>
<tspan x="200" dy="30">Reproducible Evaluation</tspan>
<tspan x="200" dy="30">Pipelines</tspan>
</text>
<circle class="bullet" cx="160" cy="4490.0" r="6"/>
<rect class="box" x="186" y="4452" width="381" height="76" rx="8" ry="8"/>
<text x="200" y="4481" class="node">
<tspan x="200" dy="0">9.4 Trustworthy and Robust</tspan>
<tspan x="200" dy="30">Alignment for Audio Systems</tspan>
</text>
<circle class="bullet" cx="50" cy="4569.0" r="6"/>
<rect class="box" x="76" y="4546" width="199" height="46" rx="8" ry="8"/>
<text x="90" y="4575" class="node">
<tspan x="90" dy="0">10 Conclusion</tspan>
</text>
</svg>