<svg xmlns="http://www.w3.org/2000/svg" width="1200" height="4296" viewBox="0 0 1200 4296">
<rect width="100%" height="100%" fill="white"/>
<style>text{font-family:Arial,Helvetica,sans-serif;} .title{font-size:30px;font-weight:700;fill:#101828;} .meta{font-size:18px;fill:#667085;} .node{font-size:24px;fill:#18181b;} .line{stroke:#a6b0c3;stroke-width:3;fill:none;} .bullet{fill:#465d7f;} .box{fill:#f8fafc;stroke:#cbd5e1;stroke-width:2;}</style>
<text x="40" y="52" class="title">2511.13936 Ablation (With Meta Abstract) Outline Tree</text>
<text x="40" y="86" class="meta">Source: results/2511.13936/ablation_with_meta_abstract/chatgpt_meow_outline_blind.json | Nodes: 39</text>
<path class="line" d="M 50 133.0 L 50 227.0 L 160 227.0"/>
<path class="line" d="M 50 133.0 L 50 336.0 L 160 336.0"/>
<path class="line" d="M 50 415.0 L 50 479.0 L 160 479.0"/>
<path class="line" d="M 50 415.0 L 50 558.0 L 160 558.0"/>
<path class="line" d="M 50 415.0 L 50 667.0 L 160 667.0"/>
<path class="line" d="M 50 776.0 L 50 870.0 L 160 870.0"/>
<path class="line" d="M 50 776.0 L 50 964.0 L 160 964.0"/>
<path class="line" d="M 50 776.0 L 50 1073.0 L 160 1073.0"/>
<path class="line" d="M 50 1197.0 L 50 1306.0 L 160 1306.0"/>
<path class="line" d="M 50 1197.0 L 50 1400.0 L 160 1400.0"/>
<path class="line" d="M 50 1197.0 L 50 1509.0 L 160 1509.0"/>
<path class="line" d="M 50 1197.0 L 50 1633.0 L 160 1633.0"/>
<path class="line" d="M 50 1742.0 L 50 1851.0 L 160 1851.0"/>
<path class="line" d="M 50 1742.0 L 50 1975.0 L 160 1975.0"/>
<path class="line" d="M 50 1742.0 L 50 2099.0 L 160 2099.0"/>
<path class="line" d="M 50 1742.0 L 50 2223.0 L 160 2223.0"/>
<path class="line" d="M 50 2332.0 L 50 2426.0 L 160 2426.0"/>
<path class="line" d="M 50 2332.0 L 50 2535.0 L 160 2535.0"/>
<path class="line" d="M 50 2332.0 L 50 2644.0 L 160 2644.0"/>
<path class="line" d="M 50 2332.0 L 50 2738.0 L 160 2738.0"/>
<path class="line" d="M 50 2832.0 L 50 2941.0 L 160 2941.0"/>
<path class="line" d="M 50 2832.0 L 50 3065.0 L 160 3065.0"/>
<path class="line" d="M 50 2832.0 L 50 3189.0 L 160 3189.0"/>
<path class="line" d="M 50 2832.0 L 50 3313.0 L 160 3313.0"/>
<path class="line" d="M 50 3422.0 L 50 3516.0 L 160 3516.0"/>
<path class="line" d="M 50 3422.0 L 50 3625.0 L 160 3625.0"/>
<path class="line" d="M 50 3422.0 L 50 3749.0 L 160 3749.0"/>
<path class="line" d="M 50 3422.0 L 50 3858.0 L 160 3858.0"/>
<path class="line" d="M 50 3937.0 L 50 4031.0 L 160 4031.0"/>
<path class="line" d="M 50 3937.0 L 50 4170.0 L 160 4170.0"/>
<circle class="bullet" cx="50" cy="133.0" r="6"/>
<rect class="box" x="76" y="110" width="212" height="46" rx="8" ry="8"/>
<text x="90" y="139" class="node">
<tspan x="90" dy="0">1 Introduction</tspan>
</text>
<circle class="bullet" cx="160" cy="227.0" r="6"/>
<rect class="box" x="186" y="174" width="407" height="106" rx="8" ry="8"/>
<text x="200" y="203" class="node">
<tspan x="200" dy="0">1.1 Preference learning as an</tspan>
<tspan x="200" dy="30">emerging paradigm in audio</tspan>
<tspan x="200" dy="30">applications</tspan>
</text>
<circle class="bullet" cx="160" cy="336.0" r="6"/>
<rect class="box" x="186" y="298" width="433" height="76" rx="8" ry="8"/>
<text x="200" y="327" class="node">
<tspan x="200" dy="0">1.2 From evaluation bottlenecks</tspan>
<tspan x="200" dy="30">to human-centered alignment</tspan>
</text>
<circle class="bullet" cx="50" cy="415.0" r="6"/>
<rect class="box" x="76" y="392" width="420" height="46" rx="8" ry="8"/>
<text x="90" y="421" class="node">
<tspan x="90" dy="0">2 Review Methodology and Scope</tspan>
</text>
<circle class="bullet" cx="160" cy="479.0" r="6"/>
<rect class="box" x="186" y="456" width="433" height="46" rx="8" ry="8"/>
<text x="200" y="485" class="node">
<tspan x="200" dy="0">2.1 PRISMA-guided review design</tspan>
</text>
<circle class="bullet" cx="160" cy="558.0" r="6"/>
<rect class="box" x="186" y="520" width="394" height="76" rx="8" ry="8"/>
<text x="200" y="549" class="node">
<tspan x="200" dy="0">2.2 Literature retrieval and</tspan>
<tspan x="200" dy="30">source coverage</tspan>
</text>
<circle class="bullet" cx="160" cy="667.0" r="6"/>
<rect class="box" x="186" y="614" width="407" height="106" rx="8" ry="8"/>
<text x="200" y="643" class="node">
<tspan x="200" dy="0">2.3 Task boundaries across</tspan>
<tspan x="200" dy="30">speech, music, and multimodal</tspan>
<tspan x="200" dy="30">audio</tspan>
</text>
<circle class="bullet" cx="50" cy="776.0" r="6"/>
<rect class="box" x="76" y="738" width="355" height="76" rx="8" ry="8"/>
<text x="90" y="767" class="node">
<tspan x="90" dy="0">3 Foundations of</tspan>
<tspan x="90" dy="30">Preference-Based Learning</tspan>
</text>
<circle class="bullet" cx="160" cy="870.0" r="6"/>
<rect class="box" x="186" y="832" width="394" height="76" rx="8" ry="8"/>
<text x="200" y="861" class="node">
<tspan x="200" dy="0">3.1 Pairwise, ordinal, and</tspan>
<tspan x="200" dy="30">listwise preference modeling</tspan>
</text>
<circle class="bullet" cx="160" cy="964.0" r="6"/>
<rect class="box" x="186" y="926" width="329" height="76" rx="8" ry="8"/>
<text x="200" y="955" class="node">
<tspan x="200" dy="0">3.2 RLHF and preference</tspan>
<tspan x="200" dy="30">optimization frameworks</tspan>
</text>
<circle class="bullet" cx="160" cy="1073.0" r="6"/>
<rect class="box" x="186" y="1020" width="420" height="106" rx="8" ry="8"/>
<text x="200" y="1049" class="node">
<tspan x="200" dy="0">3.3 Why automatic metrics are</tspan>
<tspan x="200" dy="30">insufficient proxies for human</tspan>
<tspan x="200" dy="30">judgment</tspan>
</text>
<circle class="bullet" cx="50" cy="1197.0" r="6"/>
<rect class="box" x="76" y="1144" width="420" height="106" rx="8" ry="8"/>
<text x="90" y="1173" class="node">
<tspan x="90" dy="0">4 Preference Learning in Audio</tspan>
<tspan x="90" dy="30">Analysis and Emotion</tspan>
<tspan x="90" dy="30">Recognition</tspan>
</text>
<circle class="bullet" cx="160" cy="1306.0" r="6"/>
<rect class="box" x="186" y="1268" width="433" height="76" rx="8" ry="8"/>
<text x="200" y="1297" class="node">
<tspan x="200" dy="0">4.1 Ranking-based music emotion</tspan>
<tspan x="200" dy="30">and affect modeling</tspan>
</text>
<circle class="bullet" cx="160" cy="1400.0" r="6"/>
<rect class="box" x="186" y="1362" width="407" height="76" rx="8" ry="8"/>
<text x="200" y="1391" class="node">
<tspan x="200" dy="0">4.2 Speech emotion retrieval</tspan>
<tspan x="200" dy="30">and speaker-sensitive ranking</tspan>
</text>
<circle class="bullet" cx="160" cy="1509.0" r="6"/>
<rect class="box" x="186" y="1456" width="433" height="106" rx="8" ry="8"/>
<text x="200" y="1485" class="node">
<tspan x="200" dy="0">4.3 From continuous annotations</tspan>
<tspan x="200" dy="30">to ordinal and agreement-based</tspan>
<tspan x="200" dy="30">labels</tspan>
</text>
<circle class="bullet" cx="160" cy="1633.0" r="6"/>
<rect class="box" x="186" y="1580" width="433" height="106" rx="8" ry="8"/>
<text x="200" y="1609" class="node">
<tspan x="200" dy="0">4.4 Cross-corpus and multimodal</tspan>
<tspan x="200" dy="30">extensions for emotion</tspan>
<tspan x="200" dy="30">recognition</tspan>
</text>
<circle class="bullet" cx="50" cy="1742.0" r="6"/>
<rect class="box" x="76" y="1704" width="368" height="76" rx="8" ry="8"/>
<text x="90" y="1733" class="node">
<tspan x="90" dy="0">5 Post-2021 Shift Toward</tspan>
<tspan x="90" dy="30">Generative Audio Alignment</tspan>
</text>
<circle class="bullet" cx="160" cy="1851.0" r="6"/>
<rect class="box" x="186" y="1798" width="420" height="106" rx="8" ry="8"/>
<text x="200" y="1827" class="node">
<tspan x="200" dy="0">5.1 Reinforcement learning for</tspan>
<tspan x="200" dy="30">emotional and controllable</tspan>
<tspan x="200" dy="30">speech generation</tspan>
</text>
<circle class="bullet" cx="160" cy="1975.0" r="6"/>
<rect class="box" x="186" y="1922" width="420" height="106" rx="8" ry="8"/>
<text x="200" y="1951" class="node">
<tspan x="200" dy="0">5.2 Human preference alignment</tspan>
<tspan x="200" dy="30">for text-to-audio and music</tspan>
<tspan x="200" dy="30">generation</tspan>
</text>
<circle class="bullet" cx="160" cy="2099.0" r="6"/>
<rect class="box" x="186" y="2046" width="381" height="106" rx="8" ry="8"/>
<text x="200" y="2075" class="node">
<tspan x="200" dy="0">5.3 Preference-based</tspan>
<tspan x="200" dy="30">fine-tuning for speech</tspan>
<tspan x="200" dy="30">enhancement and recognition</tspan>
</text>
<circle class="bullet" cx="160" cy="2223.0" r="6"/>
<rect class="box" x="186" y="2170" width="407" height="106" rx="8" ry="8"/>
<text x="200" y="2199" class="node">
<tspan x="200" dy="0">5.4 Alignment-oriented</tspan>
<tspan x="200" dy="30">audio-language and omni-audio</tspan>
<tspan x="200" dy="30">systems</tspan>
</text>
<circle class="bullet" cx="50" cy="2332.0" r="6"/>
<rect class="box" x="76" y="2294" width="368" height="76" rx="8" ry="8"/>
<text x="90" y="2323" class="node">
<tspan x="90" dy="0">6 Preference Signals, Data</tspan>
<tspan x="90" dy="30">Pipelines, and Objectives</tspan>
</text>
<circle class="bullet" cx="160" cy="2426.0" r="6"/>
<rect class="box" x="186" y="2388" width="394" height="76" rx="8" ry="8"/>
<text x="200" y="2417" class="node">
<tspan x="200" dy="0">6.1 Human, synthetic, and</tspan>
<tspan x="200" dy="30">automated preference sources</tspan>
</text>
<circle class="bullet" cx="160" cy="2535.0" r="6"/>
<rect class="box" x="186" y="2482" width="381" height="106" rx="8" ry="8"/>
<text x="200" y="2511" class="node">
<tspan x="200" dy="0">6.2 Crowdsourcing, listener</tspan>
<tspan x="200" dy="30">reliability, and dataset</tspan>
<tspan x="200" dy="30">construction</tspan>
</text>
<circle class="bullet" cx="160" cy="2644.0" r="6"/>
<rect class="box" x="186" y="2606" width="420" height="76" rx="8" ry="8"/>
<text x="200" y="2635" class="node">
<tspan x="200" dy="0">6.3 Reward modeling and</tspan>
<tspan x="200" dy="30">multi-stage training pipelines</tspan>
</text>
<circle class="bullet" cx="160" cy="2738.0" r="6"/>
<rect class="box" x="186" y="2700" width="368" height="76" rx="8" ry="8"/>
<text x="200" y="2729" class="node">
<tspan x="200" dy="0">6.4 DPO, listwise, and</tspan>
<tspan x="200" dy="30">multi-objective extensions</tspan>
</text>
<circle class="bullet" cx="50" cy="2832.0" r="6"/>
<rect class="box" x="76" y="2794" width="420" height="76" rx="8" ry="8"/>
<text x="90" y="2823" class="node">
<tspan x="90" dy="0">7 Evaluation of</tspan>
<tspan x="90" dy="30">Preference-Based Audio Systems</tspan>
</text>
<circle class="bullet" cx="160" cy="2941.0" r="6"/>
<rect class="box" x="186" y="2888" width="394" height="106" rx="8" ry="8"/>
<text x="200" y="2917" class="node">
<tspan x="200" dy="0">7.1 Subjective protocols for</tspan>
<tspan x="200" dy="30">quality, naturalness, and</tspan>
<tspan x="200" dy="30">preference</tspan>
</text>
<circle class="bullet" cx="160" cy="3065.0" r="6"/>
<rect class="box" x="186" y="3012" width="407" height="106" rx="8" ry="8"/>
<text x="200" y="3041" class="node">
<tspan x="200" dy="0">7.2 Misalignment between</tspan>
<tspan x="200" dy="30">traditional metrics and human</tspan>
<tspan x="200" dy="30">judgments</tspan>
</text>
<circle class="bullet" cx="160" cy="3189.0" r="6"/>
<rect class="box" x="186" y="3136" width="394" height="106" rx="8" ry="8"/>
<text x="200" y="3165" class="node">
<tspan x="200" dy="0">7.3 Multi-dimensional</tspan>
<tspan x="200" dy="30">evaluation across adherence,</tspan>
<tspan x="200" dy="30">quality, and user value</tspan>
</text>
<circle class="bullet" cx="160" cy="3313.0" r="6"/>
<rect class="box" x="186" y="3260" width="394" height="106" rx="8" ry="8"/>
<text x="200" y="3289" class="node">
<tspan x="200" dy="0">7.4 Benchmarks and reporting</tspan>
<tspan x="200" dy="30">gaps in audio preference</tspan>
<tspan x="200" dy="30">learning</tspan>
</text>
<circle class="bullet" cx="50" cy="3422.0" r="6"/>
<rect class="box" x="76" y="3384" width="394" height="76" rx="8" ry="8"/>
<text x="90" y="3413" class="node">
<tspan x="90" dy="0">8 Open Problems and Research</tspan>
<tspan x="90" dy="30">Opportunities</tspan>
</text>
<circle class="bullet" cx="160" cy="3516.0" r="6"/>
<rect class="box" x="186" y="3478" width="433" height="76" rx="8" ry="8"/>
<text x="200" y="3507" class="node">
<tspan x="200" dy="0">8.1 Standardized benchmarks and</tspan>
<tspan x="200" dy="30">broader task coverage</tspan>
</text>
<circle class="bullet" cx="160" cy="3625.0" r="6"/>
<rect class="box" x="186" y="3572" width="420" height="106" rx="8" ry="8"/>
<text x="200" y="3601" class="node">
<tspan x="200" dy="0">8.2 Temporal structure, online</tspan>
<tspan x="200" dy="30">interaction, and long-context</tspan>
<tspan x="200" dy="30">audio</tspan>
</text>
<circle class="bullet" cx="160" cy="3749.0" r="6"/>
<rect class="box" x="186" y="3696" width="433" height="106" rx="8" ry="8"/>
<text x="200" y="3725" class="node">
<tspan x="200" dy="0">8.3 Domain shift,</tspan>
<tspan x="200" dy="30">personalization, and multimodal</tspan>
<tspan x="200" dy="30">disagreement</tspan>
</text>
<circle class="bullet" cx="160" cy="3858.0" r="6"/>
<rect class="box" x="186" y="3820" width="394" height="76" rx="8" ry="8"/>
<text x="200" y="3849" class="node">
<tspan x="200" dy="0">8.4 Reward misspecification,</tspan>
<tspan x="200" dy="30">bias, and overoptimization</tspan>
</text>
<circle class="bullet" cx="50" cy="3937.0" r="6"/>
<rect class="box" x="76" y="3914" width="186" height="46" rx="8" ry="8"/>
<text x="90" y="3943" class="node">
<tspan x="90" dy="0">9 Conclusion</tspan>
</text>
<circle class="bullet" cx="160" cy="4031.0" r="6"/>
<rect class="box" x="186" y="3978" width="420" height="106" rx="8" ry="8"/>
<text x="200" y="4007" class="node">
<tspan x="200" dy="0">9.1 From ranking-based emotion</tspan>
<tspan x="200" dy="30">analysis to RLHF-style audio</tspan>
<tspan x="200" dy="30">alignment</tspan>
</text>
<circle class="bullet" cx="160" cy="4170.0" r="6"/>
<rect class="box" x="186" y="4102" width="420" height="136" rx="8" ry="8"/>
<text x="200" y="4131" class="node">
<tspan x="200" dy="0">9.2 Priorities for benchmarks,</tspan>
<tspan x="200" dy="30">data quality, and</tspan>
<tspan x="200" dy="30">audio-specific preference</tspan>
<tspan x="200" dy="30">learning</tspan>
</text>
</svg>