<svg xmlns="http://www.w3.org/2000/svg" width="1200" height="3371" viewBox="0 0 1200 3371">
<rect width="100%" height="100%" fill="white"/>
<style>text{font-family:Arial,Helvetica,sans-serif;} .title{font-size:30px;font-weight:700;fill:#101828;} .meta{font-size:18px;fill:#667085;} .node{font-size:24px;fill:#18181b;} .line{stroke:#a6b0c3;stroke-width:3;fill:none;} .bullet{fill:#465d7f;} .box{fill:#f8fafc;stroke:#cbd5e1;stroke-width:2;}</style>
<text x="40" y="52" class="title">2511.13936 Best-by-Score Outline Tree</text>
<text x="40" y="86" class="meta">Source: results/2511.13936/gpt-5.4-mini-xhigh-4papers/chatgpt_meow_outline_blind.json | Nodes: 36</text>
<path class="line" d="M 50 204.5 L 50 293.5 L 160 293.5"/>
<path class="line" d="M 50 204.5 L 50 385.0 L 160 385.0"/>
<path class="line" d="M 50 204.5 L 50 464.0 L 160 464.0"/>
<path class="line" d="M 50 540.5 L 50 632.0 L 160 632.0"/>
<path class="line" d="M 50 540.5 L 50 711.0 L 160 711.0"/>
<path class="line" d="M 50 540.5 L 50 787.5 L 160 787.5"/>
<path class="line" d="M 50 874.0 L 50 960.5 L 160 960.5"/>
<path class="line" d="M 50 874.0 L 50 1052.0 L 160 1052.0"/>
<path class="line" d="M 50 874.0 L 50 1156.0 L 160 1156.0"/>
<path class="line" d="M 50 1260.0 L 50 1354.0 L 160 1354.0"/>
<path class="line" d="M 50 1260.0 L 50 1448.0 L 160 1448.0"/>
<path class="line" d="M 50 1260.0 L 50 1539.5 L 160 1539.5"/>
<path class="line" d="M 50 1260.0 L 50 1631.0 L 160 1631.0"/>
<path class="line" d="M 50 1710.0 L 50 1789.0 L 160 1789.0"/>
<path class="line" d="M 50 1710.0 L 50 1897.0 L 160 1897.0"/>
<path class="line" d="M 50 1710.0 L 50 2004.0 L 160 2004.0"/>
<path class="line" d="M 50 1710.0 L 50 2096.0 L 160 2096.0"/>
<path class="line" d="M 50 1710.0 L 50 2186.5 L 160 2186.5"/>
<path class="line" d="M 50 2273.0 L 50 2362.0 L 160 2362.0"/>
<path class="line" d="M 50 2273.0 L 50 2453.5 L 160 2453.5"/>
<path class="line" d="M 50 2273.0 L 50 2545.0 L 160 2545.0"/>
<path class="line" d="M 50 2273.0 L 50 2639.0 L 160 2639.0"/>
<path class="line" d="M 50 2730.5 L 50 2822.0 L 160 2822.0"/>
<path class="line" d="M 50 2730.5 L 50 2915.0 L 160 2915.0"/>
<path class="line" d="M 50 2730.5 L 50 3020.5 L 160 3020.5"/>
<path class="line" d="M 50 2730.5 L 50 3127.0 L 160 3127.0"/>
<path class="line" d="M 50 2730.5 L 50 3218.5 L 160 3218.5"/>
<circle class="bullet" cx="50" cy="130.5" r="6"/>
<rect class="box" x="76" y="110" width="173" height="41" rx="8" ry="8"/>
<text x="90" y="144" class="node">
<tspan x="90" dy="0">1 Introduction</tspan>
</text>
<circle class="bullet" cx="50" cy="204.5" r="6"/>
<rect class="box" x="76" y="169" width="402" height="71" rx="8" ry="8"/>
<text x="90" y="203" class="node">
<tspan x="90" dy="0">2 Review Methodology and Corpus</tspan>
<tspan x="90" dy="32">Characterization</tspan>
</text>
<circle class="bullet" cx="160" cy="293.5" r="6"/>
<rect class="box" x="186" y="258" width="315" height="71" rx="8" ry="8"/>
<text x="200" y="292" class="node">
<tspan x="200" dy="0">2.1 Search, screening, and</tspan>
<tspan x="200" dy="32">inclusion criteria</tspan>
</text>
<circle class="bullet" cx="160" cy="385.0" r="6"/>
<rect class="box" x="186" y="347" width="348" height="76" rx="8" ry="8"/>
<text x="200" y="381" class="node">
<tspan x="200" dy="0">2.2 Publication landscape and</tspan>
<tspan x="200" dy="32">citation impact</tspan>
</text>
<circle class="bullet" cx="160" cy="464.0" r="6"/>
<rect class="box" x="186" y="441" width="395" height="46" rx="8" ry="8"/>
<text x="200" y="475" class="node">
<tspan x="200" dy="0">2.3 Taxonomy and coding scheme</tspan>
</text>
<circle class="bullet" cx="50" cy="540.5" r="6"/>
<rect class="box" x="76" y="505" width="407" height="71" rx="8" ry="8"/>
<text x="90" y="539" class="node">
<tspan x="90" dy="0">3 Foundations of Preference-Based</tspan>
<tspan x="90" dy="32">Learning</tspan>
</text>
<circle class="bullet" cx="160" cy="632.0" r="6"/>
<rect class="box" x="186" y="594" width="412" height="76" rx="8" ry="8"/>
<text x="200" y="628" class="node">
<tspan x="200" dy="0">3.1 Pairwise comparison and choice</tspan>
<tspan x="200" dy="32">theory</tspan>
</text>
<circle class="bullet" cx="160" cy="711.0" r="6"/>
<rect class="box" x="186" y="688" width="382" height="46" rx="8" ry="8"/>
<text x="200" y="722" class="node">
<tspan x="200" dy="0">3.2 Learning-to-rank formulations</tspan>
</text>
<circle class="bullet" cx="160" cy="787.5" r="6"/>
<rect class="box" x="186" y="752" width="367" height="71" rx="8" ry="8"/>
<text x="200" y="786" class="node">
<tspan x="200" dy="0">3.3 Preference optimization and</tspan>
<tspan x="200" dy="32">RLHF</tspan>
</text>
<circle class="bullet" cx="50" cy="874.0" r="6"/>
<rect class="box" x="76" y="841" width="372" height="66" rx="8" ry="8"/>
<text x="90" y="875" class="node">
<tspan x="90" dy="0">4 Preference Label Construction</tspan>
<tspan x="90" dy="32">and Annotation for Audio</tspan>
</text>
<circle class="bullet" cx="160" cy="960.5" r="6"/>
<rect class="box" x="186" y="925" width="400" height="71" rx="8" ry="8"/>
<text x="200" y="959" class="node">
<tspan x="200" dy="0">4.1 Deriving relative labels from</tspan>
<tspan x="200" dy="32">absolute or continuous annotations</tspan>
</text>
<circle class="bullet" cx="160" cy="1052.0" r="6"/>
<rect class="box" x="186" y="1014" width="340" height="76" rx="8" ry="8"/>
<text x="200" y="1048" class="node">
<tspan x="200" dy="0">4.2 Handling disagreement,</tspan>
<tspan x="200" dy="32">ambiguity, and corpus design</tspan>
</text>
<circle class="bullet" cx="160" cy="1156.0" r="6"/>
<rect class="box" x="186" y="1108" width="388" height="96" rx="8" ry="8"/>
<text x="200" y="1142" class="node">
<tspan x="200" dy="0">4.3 Ordinal and</tspan>
<tspan x="200" dy="32">qualitative-agreement based label</tspan>
<tspan x="200" dy="32">schemes</tspan>
</text>
<circle class="bullet" cx="50" cy="1260.0" r="6"/>
<rect class="box" x="76" y="1222" width="308" height="76" rx="8" ry="8"/>
<text x="90" y="1256" class="node">
<tspan x="90" dy="0">5 Learning Algorithms and</tspan>
<tspan x="90" dy="32">Optimization Strategies</tspan>
</text>
<circle class="bullet" cx="160" cy="1354.0" r="6"/>
<rect class="box" x="186" y="1316" width="368" height="76" rx="8" ry="8"/>
<text x="200" y="1350" class="node">
<tspan x="200" dy="0">5.1 Classical ranking and hybrid</tspan>
<tspan x="200" dy="32">ranking-classification models</tspan>
</text>
<circle class="bullet" cx="160" cy="1448.0" r="6"/>
<rect class="box" x="186" y="1410" width="312" height="76" rx="8" ry="8"/>
<text x="200" y="1444" class="node">
<tspan x="200" dy="0">5.2 Listwise, deep, and</tspan>
<tspan x="200" dy="32">comparison-based rankers</tspan>
</text>
<circle class="bullet" cx="160" cy="1539.5" r="6"/>
<rect class="box" x="186" y="1504" width="382" height="71" rx="8" ry="8"/>
<text x="200" y="1538" class="node">
<tspan x="200" dy="0">5.3 Ordinal and calibration-aware</tspan>
<tspan x="200" dy="32">learning</tspan>
</text>
<circle class="bullet" cx="160" cy="1631.0" r="6"/>
<rect class="box" x="186" y="1593" width="406" height="76" rx="8" ry="8"/>
<text x="200" y="1627" class="node">
<tspan x="200" dy="0">5.4 Modern preference optimization</tspan>
<tspan x="200" dy="32">for generative models</tspan>
</text>
<circle class="bullet" cx="50" cy="1710.0" r="6"/>
<rect class="box" x="76" y="1687" width="335" height="46" rx="8" ry="8"/>
<text x="90" y="1721" class="node">
<tspan x="90" dy="0">6 Audio Application Domains</tspan>
</text>
<circle class="bullet" cx="160" cy="1789.0" r="6"/>
<rect class="box" x="186" y="1751" width="412" height="76" rx="8" ry="8"/>
<text x="200" y="1785" class="node">
<tspan x="200" dy="0">6.1 Speech emotion recognition and</tspan>
<tspan x="200" dy="32">affective ranking</tspan>
</text>
<circle class="bullet" cx="160" cy="1897.0" r="6"/>
<rect class="box" x="186" y="1845" width="367" height="104" rx="8" ry="8"/>
<text x="200" y="1879" class="node">
<tspan x="200" dy="0">6.2 Speech quality assessment,</tspan>
<tspan x="200" dy="32">enhancement, and robust</tspan>
<tspan x="200" dy="32">recognition</tspan>
</text>
<circle class="bullet" cx="160" cy="2004.0" r="6"/>
<rect class="box" x="186" y="1967" width="375" height="74" rx="8" ry="8"/>
<text x="200" y="2001" class="node">
<tspan x="200" dy="0">6.3 Music emotion, retrieval, and</tspan>
<tspan x="200" dy="32">soundscape modeling</tspan>
</text>
<circle class="bullet" cx="160" cy="2096.0" r="6"/>
<rect class="box" x="186" y="2059" width="363" height="74" rx="8" ry="8"/>
<text x="200" y="2093" class="node">
<tspan x="200" dy="0">6.4 Generative audio, TTS, and</tspan>
<tspan x="200" dy="32">text-to-audio alignment</tspan>
</text>
<circle class="bullet" cx="160" cy="2186.5" r="6"/>
<rect class="box" x="186" y="2151" width="363" height="71" rx="8" ry="8"/>
<text x="200" y="2185" class="node">
<tspan x="200" dy="0">6.5 Multimodal and omni-modal</tspan>
<tspan x="200" dy="32">preference learning</tspan>
</text>
<circle class="bullet" cx="50" cy="2273.0" r="6"/>
<rect class="box" x="76" y="2240" width="314" height="66" rx="8" ry="8"/>
<text x="90" y="2274" class="node">
<tspan x="90" dy="0">7 Evaluation Protocols and</tspan>
<tspan x="90" dy="32">Benchmarks</tspan>
</text>
<circle class="bullet" cx="160" cy="2362.0" r="6"/>
<rect class="box" x="186" y="2324" width="378" height="76" rx="8" ry="8"/>
<text x="200" y="2358" class="node">
<tspan x="200" dy="0">7.1 Subjective listening tests and</tspan>
<tspan x="200" dy="32">preference elicitation</tspan>
</text>
<circle class="bullet" cx="160" cy="2453.5" r="6"/>
<rect class="box" x="186" y="2418" width="371" height="71" rx="8" ry="8"/>
<text x="200" y="2452" class="node">
<tspan x="200" dy="0">7.2 Objective perceptual metrics</tspan>
<tspan x="200" dy="32">and learned evaluators</tspan>
</text>
<circle class="bullet" cx="160" cy="2545.0" r="6"/>
<rect class="box" x="186" y="2507" width="372" height="76" rx="8" ry="8"/>
<text x="200" y="2541" class="node">
<tspan x="200" dy="0">7.3 Limits of generic</tspan>
<tspan x="200" dy="32">text-generation metrics for audio</tspan>
</text>
<circle class="bullet" cx="160" cy="2639.0" r="6"/>
<rect class="box" x="186" y="2601" width="348" height="76" rx="8" ry="8"/>
<text x="200" y="2635" class="node">
<tspan x="200" dy="0">7.4 Benchmarking and human</tspan>
<tspan x="200" dy="32">preference agreement</tspan>
</text>
<circle class="bullet" cx="50" cy="2730.5" r="6"/>
<rect class="box" x="76" y="2695" width="368" height="71" rx="8" ry="8"/>
<text x="90" y="2729" class="node">
<tspan x="90" dy="0">8 Challenges, Gaps, and Future</tspan>
<tspan x="90" dy="32">Directions</tspan>
</text>
<circle class="bullet" cx="160" cy="2822.0" r="6"/>
<rect class="box" x="186" y="2784" width="335" height="76" rx="8" ry="8"/>
<text x="200" y="2818" class="node">
<tspan x="200" dy="0">8.1 Sparse, noisy, and costly</tspan>
<tspan x="200" dy="32">preference labels</tspan>
</text>
<circle class="bullet" cx="160" cy="2915.0" r="6"/>
<rect class="box" x="186" y="2878" width="350" height="74" rx="8" ry="8"/>
<text x="200" y="2912" class="node">
<tspan x="200" dy="0">8.2 Domain shift, transfer, and</tspan>
<tspan x="200" dy="32">speaker variability</tspan>
</text>
<circle class="bullet" cx="160" cy="3020.5" r="6"/>
<rect class="box" x="186" y="2970" width="367" height="101" rx="8" ry="8"/>
<text x="200" y="3004" class="node">
<tspan x="200" dy="0">8.3 Scaling preference</tspan>
<tspan x="200" dy="32">optimization to audio foundation</tspan>
<tspan x="200" dy="32">models</tspan>
</text>
<circle class="bullet" cx="160" cy="3127.0" r="6"/>
<rect class="box" x="186" y="3089" width="392" height="76" rx="8" ry="8"/>
<text x="200" y="3123" class="node">
<tspan x="200" dy="0">8.4 Human-in-the-loop co-creation</tspan>
<tspan x="200" dy="32">and adaptive control</tspan>
</text>
<circle class="bullet" cx="160" cy="3218.5" r="6"/>
<rect class="box" x="186" y="3183" width="348" height="71" rx="8" ry="8"/>
<text x="200" y="3217" class="node">
<tspan x="200" dy="0">8.5 Toward unified multimodal</tspan>
<tspan x="200" dy="32">audio systems</tspan>
</text>
<circle class="bullet" cx="50" cy="3292.5" r="6"/>
<rect class="box" x="76" y="3272" width="167" height="41" rx="8" ry="8"/>
<text x="90" y="3306" class="node">
<tspan x="90" dy="0">9 Conclusion</tspan>
</text>
</svg>