<svg xmlns="http://www.w3.org/2000/svg" width="1200" height="2624" viewBox="0 0 1200 2624">
<rect width="100%" height="100%" fill="white"/>
<style>text{font-family:Arial,Helvetica,sans-serif;} .title{font-size:30px;font-weight:700;fill:#101828;} .meta{font-size:18px;fill:#667085;} .node{font-size:24px;fill:#18181b;} .line{stroke:#a6b0c3;stroke-width:3;fill:none;} .bullet{fill:#465d7f;} .box{fill:#f8fafc;stroke:#cbd5e1;stroke-width:2;}</style>
<text x="40" y="52" class="title">2511.13936 Gold Outline Tree</text>
<text x="40" y="86" class="meta">Source: data/paper_sets/meow_refs/2511.13936/outline.json | Nodes: 36</text>
<path class="line" d="M 50 192.0 L 50 268.5 L 160 268.5"/>
<path class="line" d="M 50 192.0 L 50 360.0 L 160 360.0"/>
<path class="line" d="M 50 436.5 L 50 498.0 L 160 498.0"/>
<path class="line" d="M 50 436.5 L 50 559.5 L 160 559.5"/>
<path class="line" d="M 50 436.5 L 50 618.5 L 160 618.5"/>
<path class="line" d="M 50 436.5 L 50 677.5 L 160 677.5"/>
<path class="line" d="M 50 436.5 L 50 736.5 L 160 736.5"/>
<path class="line" d="M 50 795.5 L 50 854.5 L 160 854.5"/>
<path class="line" d="M 50 795.5 L 50 931.0 L 160 931.0"/>
<path class="line" d="M 50 795.5 L 50 1010.0 L 160 1010.0"/>
<path class="line" d="M 160 1010.0 L 160 1071.5 L 270 1071.5"/>
<path class="line" d="M 160 1010.0 L 160 1133.0 L 270 1133.0"/>
<path class="line" d="M 160 1010.0 L 160 1209.5 L 270 1209.5"/>
<path class="line" d="M 50 795.5 L 50 1283.5 L 160 1283.5"/>
<path class="line" d="M 50 795.5 L 50 1342.5 L 160 1342.5"/>
<path class="line" d="M 160 1342.5 L 160 1419.0 L 270 1419.0"/>
<path class="line" d="M 160 1342.5 L 160 1498.0 L 270 1498.0"/>
<path class="line" d="M 160 1342.5 L 160 1562.0 L 270 1562.0"/>
<path class="line" d="M 160 1342.5 L 160 1626.0 L 270 1626.0"/>
<path class="line" d="M 50 1687.5 L 50 1761.5 L 160 1761.5"/>
<path class="line" d="M 50 1687.5 L 50 1838.0 L 160 1838.0"/>
<path class="line" d="M 160 1838.0 L 160 1914.5 L 270 1914.5"/>
<path class="line" d="M 160 1838.0 L 160 1991.0 L 270 1991.0"/>
<path class="line" d="M 160 1838.0 L 160 2055.0 L 270 2055.0"/>
<path class="line" d="M 160 1838.0 L 160 2119.0 L 270 2119.0"/>
<path class="line" d="M 50 1687.5 L 50 2183.0 L 160 2183.0"/>
<path class="line" d="M 160 2183.0 L 160 2247.0 L 270 2247.0"/>
<path class="line" d="M 160 2183.0 L 160 2323.5 L 270 2323.5"/>
<path class="line" d="M 160 2183.0 L 160 2412.5 L 270 2412.5"/>
<circle class="bullet" cx="50" cy="130.5" r="6"/>
<rect class="box" x="76" y="110" width="173" height="41" rx="8" ry="8"/>
<text x="90" y="144" class="node">
<tspan x="90" dy="0">1 Introduction</tspan>
</text>
<circle class="bullet" cx="50" cy="192.0" r="6"/>
<rect class="box" x="76" y="169" width="176" height="46" rx="8" ry="8"/>
<text x="90" y="203" class="node">
<tspan x="90" dy="0">2 Background</tspan>
</text>
<circle class="bullet" cx="160" cy="268.5" r="6"/>
<rect class="box" x="186" y="233" width="286" height="71" rx="8" ry="8"/>
<text x="200" y="267" class="node">
<tspan x="200" dy="0">2.1 Preference Learning</tspan>
<tspan x="200" dy="32">Fundamentals</tspan>
</text>
<circle class="bullet" cx="160" cy="360.0" r="6"/>
<rect class="box" x="186" y="322" width="318" height="76" rx="8" ry="8"/>
<text x="200" y="356" class="node">
<tspan x="200" dy="0">2.2 Why Audio is Suited for</tspan>
<tspan x="200" dy="32">Preference Learning</tspan>
</text>
<circle class="bullet" cx="50" cy="436.5" r="6"/>
<rect class="box" x="76" y="416" width="140" height="41" rx="8" ry="8"/>
<text x="90" y="450" class="node">
<tspan x="90" dy="0">3 Methods</tspan>
</text>
<circle class="bullet" cx="160" cy="498.0" r="6"/>
<rect class="box" x="186" y="475" width="267" height="46" rx="8" ry="8"/>
<text x="200" y="509" class="node">
<tspan x="200" dy="0">3.1 Keyword Selection</tspan>
</text>
<circle class="bullet" cx="160" cy="559.5" r="6"/>
<rect class="box" x="186" y="539" width="248" height="41" rx="8" ry="8"/>
<text x="200" y="573" class="node">
<tspan x="200" dy="0">3.2 Published Works</tspan>
</text>
<circle class="bullet" cx="160" cy="618.5" r="6"/>
<rect class="box" x="186" y="598" width="300" height="41" rx="8" ry="8"/>
<text x="200" y="632" class="node">
<tspan x="200" dy="0">3.3 Non-Published Works</tspan>
</text>
<circle class="bullet" cx="160" cy="677.5" r="6"/>
<rect class="box" x="186" y="657" width="199" height="41" rx="8" ry="8"/>
<text x="200" y="691" class="node">
<tspan x="200" dy="0">3.4 Cited Works</tspan>
</text>
<circle class="bullet" cx="160" cy="736.5" r="6"/>
<rect class="box" x="186" y="716" width="374" height="41" rx="8" ry="8"/>
<text x="200" y="750" class="node">
<tspan x="200" dy="0">3.5 Final Selection and Inclusion</tspan>
</text>
<circle class="bullet" cx="50" cy="795.5" r="6"/>
<rect class="box" x="76" y="775" width="128" height="41" rx="8" ry="8"/>
<text x="90" y="809" class="node">
<tspan x="90" dy="0">4 Results</tspan>
</text>
<circle class="bullet" cx="160" cy="854.5" r="6"/>
<rect class="box" x="186" y="834" width="132" height="41" rx="8" ry="8"/>
<text x="200" y="868" class="node">
<tspan x="200" dy="0">4.1 Tasks</tspan>
</text>
<circle class="bullet" cx="160" cy="931.0" r="6"/>
<rect class="box" x="186" y="893" width="419" height="76" rx="8" ry="8"/>
<text x="200" y="927" class="node">
<tspan x="200" dy="0">4.2 Pre-Modern Preference Learning</tspan>
<tspan x="200" dy="32">(Learning to Rank)</tspan>
</text>
<circle class="bullet" cx="160" cy="1010.0" r="6"/>
<rect class="box" x="186" y="987" width="374" height="46" rx="8" ry="8"/>
<text x="200" y="1021" class="node">
<tspan x="200" dy="0">4.3 Modern Preference Learning</tspan>
</text>
<circle class="bullet" cx="270" cy="1071.5" r="6"/>
<rect class="box" x="296" y="1051" width="379" height="41" rx="8" ry="8"/>
<text x="310" y="1085" class="node">
<tspan x="310" dy="0">4.3.1 Preference Reward Models</tspan>
</text>
<circle class="bullet" cx="270" cy="1133.0" r="6"/>
<rect class="box" x="296" y="1110" width="264" height="46" rx="8" ry="8"/>
<text x="310" y="1144" class="node">
<tspan x="310" dy="0">4.3.2 Reward Hacking</tspan>
</text>
<circle class="bullet" cx="270" cy="1209.5" r="6"/>
<rect class="box" x="296" y="1174" width="336" height="71" rx="8" ry="8"/>
<text x="310" y="1208" class="node">
<tspan x="310" dy="0">4.3.3 Multi-Modal Preference</tspan>
<tspan x="310" dy="32">Learning</tspan>
</text>
<circle class="bullet" cx="160" cy="1283.5" r="6"/>
<rect class="box" x="186" y="1263" width="287" height="41" rx="8" ry="8"/>
<text x="200" y="1297" class="node">
<tspan x="200" dy="0">4.4 Preference Datasets</tspan>
</text>
<circle class="bullet" cx="160" cy="1342.5" r="6"/>
<rect class="box" x="186" y="1322" width="180" height="41" rx="8" ry="8"/>
<text x="200" y="1356" class="node">
<tspan x="200" dy="0">4.5 Evaluation</tspan>
</text>
<circle class="bullet" cx="270" cy="1419.0" r="6"/>
<rect class="box" x="296" y="1381" width="402" height="76" rx="8" ry="8"/>
<text x="310" y="1415" class="node">
<tspan x="310" dy="0">4.5.1 Alignment Between Objective</tspan>
<tspan x="310" dy="32">and Subjective Metrics</tspan>
</text>
<circle class="bullet" cx="270" cy="1498.0" r="6"/>
<rect class="box" x="296" y="1475" width="308" height="46" rx="8" ry="8"/>
<text x="310" y="1509" class="node">
<tspan x="310" dy="0">4.5.2 Alignment in Speech</tspan>
</text>
<circle class="bullet" cx="270" cy="1562.0" r="6"/>
<rect class="box" x="296" y="1539" width="289" height="46" rx="8" ry="8"/>
<text x="310" y="1573" class="node">
<tspan x="310" dy="0">4.5.3 Alignment in Music</tspan>
</text>
<circle class="bullet" cx="270" cy="1626.0" r="6"/>
<rect class="box" x="296" y="1603" width="225" height="46" rx="8" ry="8"/>
<text x="310" y="1637" class="node">
<tspan x="310" dy="0">4.5.4 Critical Gaps</tspan>
</text>
<circle class="bullet" cx="50" cy="1687.5" r="6"/>
<rect class="box" x="76" y="1667" width="164" height="41" rx="8" ry="8"/>
<text x="90" y="1701" class="node">
<tspan x="90" dy="0">5 Discussion</tspan>
</text>
<circle class="bullet" cx="160" cy="1761.5" r="6"/>
<rect class="box" x="186" y="1726" width="362" height="71" rx="8" ry="8"/>
<text x="200" y="1760" class="node">
<tspan x="200" dy="0">5.1 Current State of Preference</tspan>
<tspan x="200" dy="32">Learning in Audio</tspan>
</text>
<circle class="bullet" cx="160" cy="1838.0" r="6"/>
<rect class="box" x="186" y="1815" width="240" height="46" rx="8" ry="8"/>
<text x="200" y="1849" class="node">
<tspan x="200" dy="0">5.2 Notable Insights</tspan>
</text>
<circle class="bullet" cx="270" cy="1914.5" r="6"/>
<rect class="box" x="296" y="1879" width="397" height="71" rx="8" ry="8"/>
<text x="310" y="1913" class="node">
<tspan x="310" dy="0">5.2.1 Multi-Dimensional Evaluation</tspan>
<tspan x="310" dy="32">Strategies</tspan>
</text>
<circle class="bullet" cx="270" cy="1991.0" r="6"/>
<rect class="box" x="296" y="1968" width="366" height="46" rx="8" ry="8"/>
<text x="310" y="2002" class="node">
<tspan x="310" dy="0">5.2.2 Data Collection Strategies</tspan>
</text>
<circle class="bullet" cx="270" cy="2055.0" r="6"/>
<rect class="box" x="296" y="2032" width="325" height="46" rx="8" ry="8"/>
<text x="310" y="2066" class="node">
<tspan x="310" dy="0">5.2.3 Reward Signal Design</tspan>
</text>
<circle class="bullet" cx="270" cy="2119.0" r="6"/>
<rect class="box" x="296" y="2096" width="373" height="46" rx="8" ry="8"/>
<text x="310" y="2130" class="node">
<tspan x="310" dy="0">5.2.4 Algorithmic Considerations</tspan>
</text>
<circle class="bullet" cx="160" cy="2183.0" r="6"/>
<rect class="box" x="186" y="2160" width="361" height="46" rx="8" ry="8"/>
<text x="200" y="2194" class="node">
<tspan x="200" dy="0">5.3 Gaps and Future Directions</tspan>
</text>
<circle class="bullet" cx="270" cy="2247.0" r="6"/>
<rect class="box" x="296" y="2224" width="382" height="46" rx="8" ry="8"/>
<text x="310" y="2258" class="node">
<tspan x="310" dy="0">5.3.1 Underexplored Applications</tspan>
</text>
<circle class="bullet" cx="270" cy="2323.5" r="6"/>
<rect class="box" x="296" y="2288" width="407" height="71" rx="8" ry="8"/>
<text x="310" y="2322" class="node">
<tspan x="310" dy="0">5.3.2 Evaluation and Benchmarking</tspan>
<tspan x="310" dy="32">Needs</tspan>
</text>
<circle class="bullet" cx="270" cy="2412.5" r="6"/>
<rect class="box" x="296" y="2377" width="400" height="71" rx="8" ry="8"/>
<text x="310" y="2411" class="node">
<tspan x="310" dy="0">5.3.3 Technical Challenges Unique</tspan>
<tspan x="310" dy="32">to Audio</tspan>
</text>
<circle class="bullet" cx="50" cy="2486.5" r="6"/>
<rect class="box" x="76" y="2466" width="163" height="41" rx="8" ry="8"/>
<text x="90" y="2500" class="node">
<tspan x="90" dy="0">6 Limitations</tspan>
</text>
<circle class="bullet" cx="50" cy="2545.5" r="6"/>
<rect class="box" x="76" y="2525" width="167" height="41" rx="8" ry="8"/>
<text x="90" y="2559" class="node">
<tspan x="90" dy="0">7 Conclusion</tspan>
</text>
</svg>