<svg xmlns="http://www.w3.org/2000/svg" width="1200" height="3702" viewBox="0 0 1200 3702">
<rect width="100%" height="100%" fill="white"/>
<style>text{font-family:Arial,Helvetica,sans-serif;} .title{font-size:30px;font-weight:700;fill:#101828;} .meta{font-size:18px;fill:#667085;} .node{font-size:24px;fill:#18181b;} .line{stroke:#a6b0c3;stroke-width:3;fill:none;} .bullet{fill:#465d7f;} .box{fill:#f8fafc;stroke:#cbd5e1;stroke-width:2;}</style>
<text x="40" y="52" class="title">2601.19926 Ablation (With Meta Abstract) Outline Tree</text>
<text x="40" y="86" class="meta">Source: results/2601.19926/ablation_with_meta_abstract/chatgpt_meow_outline_blind.json | Nodes: 33</text>
<path class="line" d="M 50 133.0 L 50 227.0 L 160 227.0"/>
<path class="line" d="M 50 133.0 L 50 351.0 L 160 351.0"/>
<path class="line" d="M 50 460.0 L 50 569.0 L 160 569.0"/>
<path class="line" d="M 50 460.0 L 50 678.0 L 160 678.0"/>
<path class="line" d="M 50 757.0 L 50 851.0 L 160 851.0"/>
<path class="line" d="M 50 757.0 L 50 975.0 L 160 975.0"/>
<path class="line" d="M 50 1084.0 L 50 1208.0 L 160 1208.0"/>
<path class="line" d="M 50 1084.0 L 50 1347.0 L 160 1347.0"/>
<path class="line" d="M 50 1084.0 L 50 1456.0 L 160 1456.0"/>
<path class="line" d="M 50 1084.0 L 50 1550.0 L 160 1550.0"/>
<path class="line" d="M 50 1644.0 L 50 1753.0 L 160 1753.0"/>
<path class="line" d="M 50 1644.0 L 50 1877.0 L 160 1877.0"/>
<path class="line" d="M 50 1644.0 L 50 2001.0 L 160 2001.0"/>
<path class="line" d="M 50 1644.0 L 50 2110.0 L 160 2110.0"/>
<path class="line" d="M 50 2204.0 L 50 2298.0 L 160 2298.0"/>
<path class="line" d="M 50 2204.0 L 50 2407.0 L 160 2407.0"/>
<path class="line" d="M 50 2204.0 L 50 2531.0 L 160 2531.0"/>
<path class="line" d="M 50 2204.0 L 50 2655.0 L 160 2655.0"/>
<path class="line" d="M 50 2764.0 L 50 2873.0 L 160 2873.0"/>
<path class="line" d="M 50 2764.0 L 50 2982.0 L 160 2982.0"/>
<path class="line" d="M 50 2764.0 L 50 3091.0 L 160 3091.0"/>
<path class="line" d="M 50 3200.0 L 50 3294.0 L 160 3294.0"/>
<path class="line" d="M 50 3200.0 L 50 3403.0 L 160 3403.0"/>
<path class="line" d="M 50 3200.0 L 50 3527.0 L 160 3527.0"/>
<circle class="bullet" cx="50" cy="133.0" r="6"/>
<rect class="box" x="76" y="110" width="212" height="46" rx="8" ry="8"/>
<text x="90" y="139" class="node">
<tspan x="90" dy="0">1 Introduction</tspan>
</text>
<circle class="bullet" cx="160" cy="227.0" r="6"/>
<rect class="box" x="186" y="174" width="433" height="106" rx="8" ry="8"/>
<text x="200" y="203" class="node">
<tspan x="200" dy="0">1.1 Transformer language models</tspan>
<tspan x="200" dy="30">as objects of syntactic</tspan>
<tspan x="200" dy="30">analysis</tspan>
</text>
<circle class="bullet" cx="160" cy="351.0" r="6"/>
<rect class="box" x="186" y="298" width="407" height="106" rx="8" ry="8"/>
<text x="200" y="327" class="node">
<tspan x="200" dy="0">1.2 From model performance to</tspan>
<tspan x="200" dy="30">syntactic competence and</tspan>
<tspan x="200" dy="30">interpretability</tspan>
</text>
<circle class="bullet" cx="50" cy="460.0" r="6"/>
<rect class="box" x="76" y="422" width="303" height="76" rx="8" ry="8"/>
<text x="90" y="451" class="node">
<tspan x="90" dy="0">2 Related Surveys and</tspan>
<tspan x="90" dy="30">Conceptual Background</tspan>
</text>
<circle class="bullet" cx="160" cy="569.0" r="6"/>
<rect class="box" x="186" y="516" width="433" height="106" rx="8" ry="8"/>
<text x="200" y="545" class="node">
<tspan x="200" dy="0">2.1 Prior surveys of BERTology,</tspan>
<tspan x="200" dy="30">neural syntax, and linguistic</tspan>
<tspan x="200" dy="30">interpretability</tspan>
</text>
<circle class="bullet" cx="160" cy="678.0" r="6"/>
<rect class="box" x="186" y="640" width="394" height="76" rx="8" ry="8"/>
<text x="200" y="669" class="node">
<tspan x="200" dy="0">2.2 What counts as syntactic</tspan>
<tspan x="200" dy="30">knowledge in language models</tspan>
</text>
<circle class="bullet" cx="50" cy="757.0" r="6"/>
<rect class="box" x="76" y="734" width="368" height="46" rx="8" ry="8"/>
<text x="90" y="763" class="node">
<tspan x="90" dy="0">3 Systematic Review Design</tspan>
</text>
<circle class="bullet" cx="160" cy="851.0" r="6"/>
<rect class="box" x="186" y="798" width="420" height="106" rx="8" ry="8"/>
<text x="200" y="827" class="node">
<tspan x="200" dy="0">3.1 Review protocol, inclusion</tspan>
<tspan x="200" dy="30">criteria, and reporting</tspan>
<tspan x="200" dy="30">standards</tspan>
</text>
<circle class="bullet" cx="160" cy="975.0" r="6"/>
<rect class="box" x="186" y="922" width="407" height="106" rx="8" ry="8"/>
<text x="200" y="951" class="node">
<tspan x="200" dy="0">3.2 Coding the literature by</tspan>
<tspan x="200" dy="30">models, languages, phenomena,</tspan>
<tspan x="200" dy="30">and methods</tspan>
</text>
<circle class="bullet" cx="50" cy="1084.0" r="6"/>
<rect class="box" x="76" y="1046" width="407" height="76" rx="8" ry="8"/>
<text x="90" y="1075" class="node">
<tspan x="90" dy="0">4 Methods for Studying Syntax</tspan>
<tspan x="90" dy="30">in Transformers</tspan>
</text>
<circle class="bullet" cx="160" cy="1208.0" r="6"/>
<rect class="box" x="186" y="1140" width="381" height="136" rx="8" ry="8"/>
<text x="200" y="1169" class="node">
<tspan x="200" dy="0">4.1 Targeted syntactic</tspan>
<tspan x="200" dy="30">evaluation, acceptability</tspan>
<tspan x="200" dy="30">judgments, and minimal-pair</tspan>
<tspan x="200" dy="30">benchmarks</tspan>
</text>
<circle class="bullet" cx="160" cy="1347.0" r="6"/>
<rect class="box" x="186" y="1294" width="368" height="106" rx="8" ry="8"/>
<text x="200" y="1323" class="node">
<tspan x="200" dy="0">4.2 Probing and structural</tspan>
<tspan x="200" dy="30">analyses of internal</tspan>
<tspan x="200" dy="30">representations</tspan>
</text>
<circle class="bullet" cx="160" cy="1456.0" r="6"/>
<rect class="box" x="186" y="1418" width="381" height="76" rx="8" ry="8"/>
<text x="200" y="1447" class="node">
<tspan x="200" dy="0">4.3 Attention, neurons, and</tspan>
<tspan x="200" dy="30">localized components</tspan>
</text>
<circle class="bullet" cx="160" cy="1550.0" r="6"/>
<rect class="box" x="186" y="1512" width="381" height="76" rx="8" ry="8"/>
<text x="200" y="1541" class="node">
<tspan x="200" dy="0">4.4 Causal and mechanistic</tspan>
<tspan x="200" dy="30">interpretability approaches</tspan>
</text>
<circle class="bullet" cx="50" cy="1644.0" r="6"/>
<rect class="box" x="76" y="1606" width="381" height="76" rx="8" ry="8"/>
<text x="90" y="1635" class="node">
<tspan x="90" dy="0">5 Empirical Coverage of the</tspan>
<tspan x="90" dy="30">Literature</tspan>
</text>
<circle class="bullet" cx="160" cy="1753.0" r="6"/>
<rect class="box" x="186" y="1700" width="381" height="106" rx="8" ry="8"/>
<text x="200" y="1729" class="node">
<tspan x="200" dy="0">5.1 Model families and the</tspan>
<tspan x="200" dy="30">concentration on BERT-style</tspan>
<tspan x="200" dy="30">encoders</tspan>
</text>
<circle class="bullet" cx="160" cy="1877.0" r="6"/>
<rect class="box" x="186" y="1824" width="407" height="106" rx="8" ry="8"/>
<text x="200" y="1853" class="node">
<tspan x="200" dy="0">5.2 Language coverage and</tspan>
<tspan x="200" dy="30">multilingual expansion beyond</tspan>
<tspan x="200" dy="30">English</tspan>
</text>
<circle class="bullet" cx="160" cy="2001.0" r="6"/>
<rect class="box" x="186" y="1948" width="394" height="106" rx="8" ry="8"/>
<text x="200" y="1977" class="node">
<tspan x="200" dy="0">5.3 Syntactic phenomena from</tspan>
<tspan x="200" dy="30">local morphosyntax to the</tspan>
<tspan x="200" dy="30">syntax-semantics interface</tspan>
</text>
<circle class="bullet" cx="160" cy="2110.0" r="6"/>
<rect class="box" x="186" y="2072" width="420" height="76" rx="8" ry="8"/>
<text x="200" y="2101" class="node">
<tspan x="200" dy="0">5.4 Benchmarks and resources</tspan>
<tspan x="200" dy="30">for broad syntactic evaluation</tspan>
</text>
<circle class="bullet" cx="50" cy="2204.0" r="6"/>
<rect class="box" x="76" y="2166" width="368" height="76" rx="8" ry="8"/>
<text x="90" y="2195" class="node">
<tspan x="90" dy="0">6 Synthesis of Findings on</tspan>
<tspan x="90" dy="30">Syntactic Knowledge</tspan>
</text>
<circle class="bullet" cx="160" cy="2298.0" r="6"/>
<rect class="box" x="186" y="2260" width="368" height="76" rx="8" ry="8"/>
<text x="200" y="2289" class="node">
<tspan x="200" dy="0">6.1 Strong evidence for</tspan>
<tspan x="200" dy="30">morphosyntax and agreement</tspan>
</text>
<circle class="bullet" cx="160" cy="2407.0" r="6"/>
<rect class="box" x="186" y="2354" width="420" height="106" rx="8" ry="8"/>
<text x="200" y="2383" class="node">
<tspan x="200" dy="0">6.2 Mixed evidence for</tspan>
<tspan x="200" dy="30">hierarchical and long-distance</tspan>
<tspan x="200" dy="30">structure</tspan>
</text>
<circle class="bullet" cx="160" cy="2531.0" r="6"/>
<rect class="box" x="186" y="2478" width="433" height="106" rx="8" ry="8"/>
<text x="200" y="2507" class="node">
<tspan x="200" dy="0">6.3 Weaker and more variable</tspan>
<tspan x="200" dy="30">results at the syntax-semantics</tspan>
<tspan x="200" dy="30">interface</tspan>
</text>
<circle class="bullet" cx="160" cy="2655.0" r="6"/>
<rect class="box" x="186" y="2602" width="420" height="106" rx="8" ry="8"/>
<text x="200" y="2631" class="node">
<tspan x="200" dy="0">6.4 Layer-wise, neuron-level,</tspan>
<tspan x="200" dy="30">and circuit-level organization</tspan>
<tspan x="200" dy="30">of syntactic information</tspan>
</text>
<circle class="bullet" cx="50" cy="2764.0" r="6"/>
<rect class="box" x="76" y="2726" width="290" height="76" rx="8" ry="8"/>
<text x="90" y="2755" class="node">
<tspan x="90" dy="0">7 Methodological and</tspan>
<tspan x="90" dy="30">Interpretive Limits</tspan>
</text>
<circle class="bullet" cx="160" cy="2873.0" r="6"/>
<rect class="box" x="186" y="2820" width="355" height="106" rx="8" ry="8"/>
<text x="200" y="2849" class="node">
<tspan x="200" dy="0">7.1 Decodability does not</tspan>
<tspan x="200" dy="30">guarantee mechanistic</tspan>
<tspan x="200" dy="30">explanation</tspan>
</text>
<circle class="bullet" cx="160" cy="2982.0" r="6"/>
<rect class="box" x="186" y="2944" width="394" height="76" rx="8" ry="8"/>
<text x="200" y="2973" class="node">
<tspan x="200" dy="0">7.2 Surface cues, prompting,</tspan>
<tspan x="200" dy="30">and task design as confounds</tspan>
</text>
<circle class="bullet" cx="160" cy="3091.0" r="6"/>
<rect class="box" x="186" y="3038" width="407" height="106" rx="8" ry="8"/>
<text x="200" y="3067" class="node">
<tspan x="200" dy="0">7.3 Reporting, comparability,</tspan>
<tspan x="200" dy="30">and theoretical alignment</tspan>
<tspan x="200" dy="30">problems</tspan>
</text>
<circle class="bullet" cx="50" cy="3200.0" r="6"/>
<rect class="box" x="76" y="3162" width="394" height="76" rx="8" ry="8"/>
<text x="90" y="3191" class="node">
<tspan x="90" dy="0">8 Recommendations for Future</tspan>
<tspan x="90" dy="30">Research</tspan>
</text>
<circle class="bullet" cx="160" cy="3294.0" r="6"/>
<rect class="box" x="186" y="3256" width="381" height="76" rx="8" ry="8"/>
<text x="200" y="3285" class="node">
<tspan x="200" dy="0">8.1 Broaden typological and</tspan>
<tspan x="200" dy="30">multilingual coverage</tspan>
</text>
<circle class="bullet" cx="160" cy="3403.0" r="6"/>
<rect class="box" x="186" y="3350" width="420" height="106" rx="8" ry="8"/>
<text x="200" y="3379" class="node">
<tspan x="200" dy="0">8.2 Increase the use of causal</tspan>
<tspan x="200" dy="30">and mechanistic</tspan>
<tspan x="200" dy="30">interpretability</tspan>
</text>
<circle class="bullet" cx="160" cy="3527.0" r="6"/>
<rect class="box" x="186" y="3474" width="420" height="106" rx="8" ry="8"/>
<text x="200" y="3503" class="node">
<tspan x="200" dy="0">8.3 Align linguistic theory,</tspan>
<tspan x="200" dy="30">datasets, and interpretability</tspan>
<tspan x="200" dy="30">claims more tightly</tspan>
</text>
<circle class="bullet" cx="50" cy="3621.0" r="6"/>
<rect class="box" x="76" y="3598" width="186" height="46" rx="8" ry="8"/>
<text x="90" y="3627" class="node">
<tspan x="90" dy="0">9 Conclusion</tspan>
</text>
</svg>