<svg xmlns="http://www.w3.org/2000/svg" width="1200" height="5330" viewBox="0 0 1200 5330">
<rect width="100%" height="100%" fill="white"/>
<style>text{font-family:Arial,Helvetica,sans-serif;} .title{font-size:30px;font-weight:700;fill:#101828;} .meta{font-size:18px;fill:#667085;} .node{font-size:24px;fill:#18181b;} .line{stroke:#a6b0c3;stroke-width:3;fill:none;} .bullet{fill:#465d7f;} .box{fill:#f8fafc;stroke:#cbd5e1;stroke-width:2;}</style>
<text x="40" y="52" class="title">2601.19926 Ablation (No Meta Abstract) Outline Tree</text>
<text x="40" y="86" class="meta">Source: results/2601.19926/ablation_no_meta_abstract/chatgpt_meow_outline_blind.json | Nodes: 50</text>
<path class="line" d="M 50 133.0 L 50 227.0 L 160 227.0"/>
<path class="line" d="M 50 133.0 L 50 351.0 L 160 351.0"/>
<path class="line" d="M 50 460.0 L 50 554.0 L 160 554.0"/>
<path class="line" d="M 50 460.0 L 50 648.0 L 160 648.0"/>
<path class="line" d="M 50 460.0 L 50 772.0 L 160 772.0"/>
<path class="line" d="M 50 460.0 L 50 911.0 L 160 911.0"/>
<path class="line" d="M 50 1020.0 L 50 1129.0 L 160 1129.0"/>
<path class="line" d="M 50 1020.0 L 50 1238.0 L 160 1238.0"/>
<path class="line" d="M 50 1020.0 L 50 1332.0 L 160 1332.0"/>
<path class="line" d="M 50 1020.0 L 50 1441.0 L 160 1441.0"/>
<path class="line" d="M 50 1020.0 L 50 1550.0 L 160 1550.0"/>
<path class="line" d="M 50 1644.0 L 50 1738.0 L 160 1738.0"/>
<path class="line" d="M 50 1644.0 L 50 1832.0 L 160 1832.0"/>
<path class="line" d="M 50 1644.0 L 50 1926.0 L 160 1926.0"/>
<path class="line" d="M 50 1644.0 L 50 2020.0 L 160 2020.0"/>
<path class="line" d="M 50 1644.0 L 50 2114.0 L 160 2114.0"/>
<path class="line" d="M 50 2208.0 L 50 2302.0 L 160 2302.0"/>
<path class="line" d="M 50 2208.0 L 50 2411.0 L 160 2411.0"/>
<path class="line" d="M 50 2208.0 L 50 2520.0 L 160 2520.0"/>
<path class="line" d="M 50 2208.0 L 50 2614.0 L 160 2614.0"/>
<path class="line" d="M 50 2208.0 L 50 2708.0 L 160 2708.0"/>
<path class="line" d="M 50 2802.0 L 50 2896.0 L 160 2896.0"/>
<path class="line" d="M 50 2802.0 L 50 3005.0 L 160 3005.0"/>
<path class="line" d="M 50 2802.0 L 50 3129.0 L 160 3129.0"/>
<path class="line" d="M 50 2802.0 L 50 3238.0 L 160 3238.0"/>
<path class="line" d="M 50 2802.0 L 50 3347.0 L 160 3347.0"/>
<path class="line" d="M 50 3456.0 L 50 3550.0 L 160 3550.0"/>
<path class="line" d="M 50 3456.0 L 50 3644.0 L 160 3644.0"/>
<path class="line" d="M 50 3456.0 L 50 3753.0 L 160 3753.0"/>
<path class="line" d="M 50 3456.0 L 50 3862.0 L 160 3862.0"/>
<path class="line" d="M 50 3456.0 L 50 3971.0 L 160 3971.0"/>
<path class="line" d="M 50 4080.0 L 50 4174.0 L 160 4174.0"/>
<path class="line" d="M 50 4080.0 L 50 4268.0 L 160 4268.0"/>
<path class="line" d="M 50 4080.0 L 50 4362.0 L 160 4362.0"/>
<path class="line" d="M 50 4456.0 L 50 4550.0 L 160 4550.0"/>
<path class="line" d="M 50 4456.0 L 50 4659.0 L 160 4659.0"/>
<path class="line" d="M 50 4456.0 L 50 4783.0 L 160 4783.0"/>
<path class="line" d="M 50 4456.0 L 50 4922.0 L 160 4922.0"/>
<path class="line" d="M 50 5031.0 L 50 5110.0 L 160 5110.0"/>
<path class="line" d="M 50 5031.0 L 50 5219.0 L 160 5219.0"/>
<circle class="bullet" cx="50" cy="133.0" r="6"/>
<rect class="box" x="76" y="110" width="212" height="46" rx="8" ry="8"/>
<text x="90" y="139" class="node">
<tspan x="90" dy="0">1 Introduction</tspan>
</text>
<circle class="bullet" cx="160" cy="227.0" r="6"/>
<rect class="box" x="186" y="174" width="394" height="106" rx="8" ry="8"/>
<text x="200" y="203" class="node">
<tspan x="200" dy="0">1.1 Syntax as a Core Test of</tspan>
<tspan x="200" dy="30">Linguistic Knowledge in</tspan>
<tspan x="200" dy="30">Language Models</tspan>
</text>
<circle class="bullet" cx="160" cy="351.0" r="6"/>
<rect class="box" x="186" y="298" width="407" height="106" rx="8" ry="8"/>
<text x="200" y="327" class="node">
<tspan x="200" dy="0">1.2 From BERTology to the LLM</tspan>
<tspan x="200" dy="30">Era: Why Interpret Syntactic</tspan>
<tspan x="200" dy="30">Knowledge Now</tspan>
</text>
<circle class="bullet" cx="50" cy="460.0" r="6"/>
<rect class="box" x="76" y="422" width="342" height="76" rx="8" ry="8"/>
<text x="90" y="451" class="node">
<tspan x="90" dy="0">2 Review Methodology and</tspan>
<tspan x="90" dy="30">Conceptual Framework</tspan>
</text>
<circle class="bullet" cx="160" cy="554.0" r="6"/>
<rect class="box" x="186" y="516" width="407" height="76" rx="8" ry="8"/>
<text x="200" y="545" class="node">
<tspan x="200" dy="0">2.1 Review Design, Scope, and</tspan>
<tspan x="200" dy="30">PRISMA-Style Reporting</tspan>
</text>
<circle class="bullet" cx="160" cy="648.0" r="6"/>
<rect class="box" x="186" y="610" width="407" height="76" rx="8" ry="8"/>
<text x="200" y="639" class="node">
<tspan x="200" dy="0">2.2 Prior Surveys and the Gap</tspan>
<tspan x="200" dy="30">Filled by This Review</tspan>
</text>
<circle class="bullet" cx="160" cy="772.0" r="6"/>
<rect class="box" x="186" y="704" width="394" height="136" rx="8" ry="8"/>
<text x="200" y="733" class="node">
<tspan x="200" dy="0">2.3 What Counts as Syntactic</tspan>
<tspan x="200" dy="30">Knowledge: Competence,</tspan>
<tspan x="200" dy="30">Performance, and</tspan>
<tspan x="200" dy="30">Interpretability</tspan>
</text>
<circle class="bullet" cx="160" cy="911.0" r="6"/>
<rect class="box" x="186" y="858" width="407" height="106" rx="8" ry="8"/>
<text x="200" y="887" class="node">
<tspan x="200" dy="0">2.4 Taxonomy of Evidence:</tspan>
<tspan x="200" dy="30">Behavioral, Representational,</tspan>
<tspan x="200" dy="30">and Mechanistic Approaches</tspan>
</text>
<circle class="bullet" cx="50" cy="1020.0" r="6"/>
<rect class="box" x="76" y="982" width="342" height="76" rx="8" ry="8"/>
<text x="90" y="1011" class="node">
<tspan x="90" dy="0">3 Behavioral Evidence of</tspan>
<tspan x="90" dy="30">Syntactic Knowledge</tspan>
</text>
<circle class="bullet" cx="160" cy="1129.0" r="6"/>
<rect class="box" x="186" y="1076" width="407" height="106" rx="8" ry="8"/>
<text x="200" y="1105" class="node">
<tspan x="200" dy="0">3.1 Early Targeted Syntactic</tspan>
<tspan x="200" dy="30">Evaluations and Acceptability</tspan>
<tspan x="200" dy="30">Judgments</tspan>
</text>
<circle class="bullet" cx="160" cy="1238.0" r="6"/>
<rect class="box" x="186" y="1200" width="394" height="76" rx="8" ry="8"/>
<text x="200" y="1229" class="node">
<tspan x="200" dy="0">3.2 Benchmark Ecosystems for</tspan>
<tspan x="200" dy="30">Syntax</tspan>
</text>
<circle class="bullet" cx="160" cy="1332.0" r="6"/>
<rect class="box" x="186" y="1294" width="433" height="76" rx="8" ry="8"/>
<text x="200" y="1323" class="node">
<tspan x="200" dy="0">3.3 Controlled Psycholinguistic</tspan>
<tspan x="200" dy="30">and Minimal-Pair Evaluations</tspan>
</text>
<circle class="bullet" cx="160" cy="1441.0" r="6"/>
<rect class="box" x="186" y="1388" width="433" height="106" rx="8" ry="8"/>
<text x="200" y="1417" class="node">
<tspan x="200" dy="0">3.4 Prompt-Based versus</tspan>
<tspan x="200" dy="30">Probability-Based Evaluation in</tspan>
<tspan x="200" dy="30">LLMs</tspan>
</text>
<circle class="bullet" cx="160" cy="1550.0" r="6"/>
<rect class="box" x="186" y="1512" width="394" height="76" rx="8" ry="8"/>
<text x="200" y="1541" class="node">
<tspan x="200" dy="0">3.5 Robustness, Instability,</tspan>
<tspan x="200" dy="30">and Failure Modes</tspan>
</text>
<circle class="bullet" cx="50" cy="1644.0" r="6"/>
<rect class="box" x="76" y="1606" width="420" height="76" rx="8" ry="8"/>
<text x="90" y="1635" class="node">
<tspan x="90" dy="0">4 Representational Analyses of</tspan>
<tspan x="90" dy="30">Syntax</tspan>
</text>
<circle class="bullet" cx="160" cy="1738.0" r="6"/>
<rect class="box" x="186" y="1700" width="407" height="76" rx="8" ry="8"/>
<text x="200" y="1729" class="node">
<tspan x="200" dy="0">4.1 Structural Probes and the</tspan>
<tspan x="200" dy="30">Geometry of Syntactic Space</tspan>
</text>
<circle class="bullet" cx="160" cy="1832.0" r="6"/>
<rect class="box" x="186" y="1794" width="420" height="76" rx="8" ry="8"/>
<text x="200" y="1823" class="node">
<tspan x="200" dy="0">4.2 Classifier, Intrinsic, and</tspan>
<tspan x="200" dy="30">Information-Theoretic Probing</tspan>
</text>
<circle class="bullet" cx="160" cy="1926.0" r="6"/>
<rect class="box" x="186" y="1888" width="407" height="76" rx="8" ry="8"/>
<text x="200" y="1917" class="node">
<tspan x="200" dy="0">4.3 Layerwise Localization of</tspan>
<tspan x="200" dy="30">Syntactic Information</tspan>
</text>
<circle class="bullet" cx="160" cy="2020.0" r="6"/>
<rect class="box" x="186" y="1982" width="407" height="76" rx="8" ry="8"/>
<text x="200" y="2011" class="node">
<tspan x="200" dy="0">4.4 Probe-Less, Minimal-Pair,</tspan>
<tspan x="200" dy="30">and Decoding-Based Analyses</tspan>
</text>
<circle class="bullet" cx="160" cy="2114.0" r="6"/>
<rect class="box" x="186" y="2076" width="433" height="76" rx="8" ry="8"/>
<text x="200" y="2105" class="node">
<tspan x="200" dy="0">4.5 Methodological Critiques of</tspan>
<tspan x="200" dy="30">Probing</tspan>
</text>
<circle class="bullet" cx="50" cy="2208.0" r="6"/>
<rect class="box" x="76" y="2170" width="368" height="76" rx="8" ry="8"/>
<text x="90" y="2199" class="node">
<tspan x="90" dy="0">5 Mechanistic and Causal</tspan>
<tspan x="90" dy="30">Interpretability of Syntax</tspan>
</text>
<circle class="bullet" cx="160" cy="2302.0" r="6"/>
<rect class="box" x="186" y="2264" width="329" height="76" rx="8" ry="8"/>
<text x="200" y="2293" class="node">
<tspan x="200" dy="0">5.1 Attention Heads and</tspan>
<tspan x="200" dy="30">Syntactic Dependencies</tspan>
</text>
<circle class="bullet" cx="160" cy="2411.0" r="6"/>
<rect class="box" x="186" y="2358" width="407" height="106" rx="8" ry="8"/>
<text x="200" y="2387" class="node">
<tspan x="200" dy="0">5.2 Neurons, Sparse Features,</tspan>
<tspan x="200" dy="30">and Localized Grammatical</tspan>
<tspan x="200" dy="30">Signals</tspan>
</text>
<circle class="bullet" cx="160" cy="2520.0" r="6"/>
<rect class="box" x="186" y="2482" width="394" height="76" rx="8" ry="8"/>
<text x="200" y="2511" class="node">
<tspan x="200" dy="0">5.3 Causal Interventions and</tspan>
<tspan x="200" dy="30">Functional Necessity</tspan>
</text>
<circle class="bullet" cx="160" cy="2614.0" r="6"/>
<rect class="box" x="186" y="2576" width="420" height="76" rx="8" ry="8"/>
<text x="200" y="2605" class="node">
<tspan x="200" dy="0">5.4 Cross-Lingual Circuits and</tspan>
<tspan x="200" dy="30">Shared Grammatical Concepts</tspan>
</text>
<circle class="bullet" cx="160" cy="2708.0" r="6"/>
<rect class="box" x="186" y="2670" width="368" height="76" rx="8" ry="8"/>
<text x="200" y="2699" class="node">
<tspan x="200" dy="0">5.5 What Makes a Syntactic</tspan>
<tspan x="200" dy="30">Explanation Mechanistic</tspan>
</text>
<circle class="bullet" cx="50" cy="2802.0" r="6"/>
<rect class="box" x="76" y="2764" width="290" height="76" rx="8" ry="8"/>
<text x="90" y="2793" class="node">
<tspan x="90" dy="0">6 Multilingual and</tspan>
<tspan x="90" dy="30">Cross-Lingual Syntax</tspan>
</text>
<circle class="bullet" cx="160" cy="2896.0" r="6"/>
<rect class="box" x="186" y="2858" width="329" height="76" rx="8" ry="8"/>
<text x="200" y="2887" class="node">
<tspan x="200" dy="0">6.1 Shared Structure in</tspan>
<tspan x="200" dy="30">Multilingual Encoders</tspan>
</text>
<circle class="bullet" cx="160" cy="3005.0" r="6"/>
<rect class="box" x="186" y="2952" width="433" height="106" rx="8" ry="8"/>
<text x="200" y="2981" class="node">
<tspan x="200" dy="0">6.2 Cross-Lingual Evaluation of</tspan>
<tspan x="200" dy="30">Agreement and Grammatical</tspan>
<tspan x="200" dy="30">Relations</tspan>
</text>
<circle class="bullet" cx="160" cy="3129.0" r="6"/>
<rect class="box" x="186" y="3076" width="342" height="106" rx="8" ry="8"/>
<text x="200" y="3105" class="node">
<tspan x="200" dy="0">6.3 Typology, Language</tspan>
<tspan x="200" dy="30">Proximity, and Universal</tspan>
<tspan x="200" dy="30">Structure</tspan>
</text>
<circle class="bullet" cx="160" cy="3238.0" r="6"/>
<rect class="box" x="186" y="3200" width="433" height="76" rx="8" ry="8"/>
<text x="200" y="3229" class="node">
<tspan x="200" dy="0">6.4 Multilingual Benchmarks and</tspan>
<tspan x="200" dy="30">Low-Resource Coverage</tspan>
</text>
<circle class="bullet" cx="160" cy="3347.0" r="6"/>
<rect class="box" x="186" y="3294" width="381" height="106" rx="8" ry="8"/>
<text x="200" y="3323" class="node">
<tspan x="200" dy="0">6.5 Cross-Lingual Transfer,</tspan>
<tspan x="200" dy="30">Alignment, and Structural</tspan>
<tspan x="200" dy="30">Priming</tspan>
</text>
<circle class="bullet" cx="50" cy="3456.0" r="6"/>
<rect class="box" x="76" y="3418" width="355" height="76" rx="8" ry="8"/>
<text x="90" y="3447" class="node">
<tspan x="90" dy="0">7 How Syntactic Knowledge</tspan>
<tspan x="90" dy="30">Emerges</tspan>
</text>
<circle class="bullet" cx="160" cy="3550.0" r="6"/>
<rect class="box" x="186" y="3512" width="381" height="76" rx="8" ry="8"/>
<text x="200" y="3541" class="node">
<tspan x="200" dy="0">7.1 Pretraining Objectives,</tspan>
<tspan x="200" dy="30">Masking, and Data Scale</tspan>
</text>
<circle class="bullet" cx="160" cy="3644.0" r="6"/>
<rect class="box" x="186" y="3606" width="394" height="76" rx="8" ry="8"/>
<text x="200" y="3635" class="node">
<tspan x="200" dy="0">7.2 Human-Scale Training and</tspan>
<tspan x="200" dy="30">Data Efficiency</tspan>
</text>
<circle class="bullet" cx="160" cy="3753.0" r="6"/>
<rect class="box" x="186" y="3700" width="355" height="106" rx="8" ry="8"/>
<text x="200" y="3729" class="node">
<tspan x="200" dy="0">7.3 Training Dynamics,</tspan>
<tspan x="200" dy="30">Specialization, and Phase</tspan>
<tspan x="200" dy="30">Transitions</tspan>
</text>
<circle class="bullet" cx="160" cy="3862.0" r="6"/>
<rect class="box" x="186" y="3824" width="433" height="76" rx="8" ry="8"/>
<text x="200" y="3853" class="node">
<tspan x="200" dy="0">7.4 Formal Languages, Synthetic</tspan>
<tspan x="200" dy="30">Data, and Inductive Bias</tspan>
</text>
<circle class="bullet" cx="160" cy="3971.0" r="6"/>
<rect class="box" x="186" y="3918" width="355" height="106" rx="8" ry="8"/>
<text x="200" y="3947" class="node">
<tspan x="200" dy="0">7.5 Impossible and</tspan>
<tspan x="200" dy="30">Typologically Implausible</tspan>
<tspan x="200" dy="30">Languages</tspan>
</text>
<circle class="bullet" cx="50" cy="4080.0" r="6"/>
<rect class="box" x="76" y="4042" width="368" height="76" rx="8" ry="8"/>
<text x="90" y="4071" class="node">
<tspan x="90" dy="0">8 Modeling with Explicit</tspan>
<tspan x="90" dy="30">Syntactic Bias and Control</tspan>
</text>
<circle class="bullet" cx="160" cy="4174.0" r="6"/>
<rect class="box" x="186" y="4136" width="433" height="76" rx="8" ry="8"/>
<text x="200" y="4165" class="node">
<tspan x="200" dy="0">8.1 Syntax-Enhanced Pretraining</tspan>
<tspan x="200" dy="30">and Distillation</tspan>
</text>
<circle class="bullet" cx="160" cy="4268.0" r="6"/>
<rect class="box" x="186" y="4230" width="381" height="76" rx="8" ry="8"/>
<text x="200" y="4259" class="node">
<tspan x="200" dy="0">8.2 Grammar-Augmented and</tspan>
<tspan x="200" dy="30">Compositional Architectures</tspan>
</text>
<circle class="bullet" cx="160" cy="4362.0" r="6"/>
<rect class="box" x="186" y="4324" width="381" height="76" rx="8" ry="8"/>
<text x="200" y="4353" class="node">
<tspan x="200" dy="0">8.3 Plug-and-Play Syntactic</tspan>
<tspan x="200" dy="30">Control at Inference Time</tspan>
</text>
<circle class="bullet" cx="50" cy="4456.0" r="6"/>
<rect class="box" x="76" y="4418" width="355" height="76" rx="8" ry="8"/>
<text x="90" y="4447" class="node">
<tspan x="90" dy="0">9 Open Debates and Future</tspan>
<tspan x="90" dy="30">Directions</tspan>
</text>
<circle class="bullet" cx="160" cy="4550.0" r="6"/>
<rect class="box" x="186" y="4512" width="381" height="76" rx="8" ry="8"/>
<text x="200" y="4541" class="node">
<tspan x="200" dy="0">9.1 When Performance Is Not</tspan>
<tspan x="200" dy="30">Competence</tspan>
</text>
<circle class="bullet" cx="160" cy="4659.0" r="6"/>
<rect class="box" x="186" y="4606" width="407" height="106" rx="8" ry="8"/>
<text x="200" y="4635" class="node">
<tspan x="200" dy="0">9.2 Syntax-Semantics</tspan>
<tspan x="200" dy="30">Interaction and the Limits of</tspan>
<tspan x="200" dy="30">Encapsulation</tspan>
</text>
<circle class="bullet" cx="160" cy="4783.0" r="6"/>
<rect class="box" x="186" y="4730" width="316" height="106" rx="8" ry="8"/>
<text x="200" y="4759" class="node">
<tspan x="200" dy="0">9.3 Linguistic Theory,</tspan>
<tspan x="200" dy="30">Interpretability, and</tspan>
<tspan x="200" dy="30">Explanation</tspan>
</text>
<circle class="bullet" cx="160" cy="4922.0" r="6"/>
<rect class="box" x="186" y="4854" width="394" height="136" rx="8" ry="8"/>
<text x="200" y="4883" class="node">
<tspan x="200" dy="0">9.4 Open Problems:</tspan>
<tspan x="200" dy="30">Faithfulness, Comparability,</tspan>
<tspan x="200" dy="30">Multilinguality, and</tspan>
<tspan x="200" dy="30">Reproducibility</tspan>
</text>
<circle class="bullet" cx="50" cy="5031.0" r="6"/>
<rect class="box" x="76" y="5008" width="199" height="46" rx="8" ry="8"/>
<text x="90" y="5037" class="node">
<tspan x="90" dy="0">10 Conclusion</tspan>
</text>
<circle class="bullet" cx="160" cy="5110.0" r="6"/>
<rect class="box" x="186" y="5072" width="394" height="76" rx="8" ry="8"/>
<text x="200" y="5101" class="node">
<tspan x="200" dy="0">10.1 Main Empirical Patterns</tspan>
<tspan x="200" dy="30">across the Literature</tspan>
</text>
<circle class="bullet" cx="160" cy="5219.0" r="6"/>
<rect class="box" x="186" y="5166" width="407" height="106" rx="8" ry="8"/>
<text x="200" y="5195" class="node">
<tspan x="200" dy="0">10.2 Toward a Unified Account</tspan>
<tspan x="200" dy="30">of Syntax, Interpretability,</tspan>
<tspan x="200" dy="30">and Language Modeling</tspan>
</text>
</svg>