<svg xmlns="http://www.w3.org/2000/svg" width="1200" height="3264" viewBox="0 0 1200 3264">
<rect width="100%" height="100%" fill="white"/>
<style>text{font-family:Arial,Helvetica,sans-serif;} .title{font-size:30px;font-weight:700;fill:#101828;} .meta{font-size:18px;fill:#667085;} .node{font-size:24px;fill:#18181b;} .line{stroke:#a6b0c3;stroke-width:3;fill:none;} .bullet{fill:#465d7f;} .box{fill:#f8fafc;stroke:#cbd5e1;stroke-width:2;}</style>
<text x="40" y="52" class="title">2601.19926 Best-by-Score Outline Tree</text>
<text x="40" y="86" class="meta">Source: results/2601.19926/gpt-5.4-mini-xhigh-4papers/chatgpt_meow_outline_blind.json | Nodes: 39</text>
<path class="line" d="M 50 189.5 L 50 251.0 L 160 251.0"/>
<path class="line" d="M 50 189.5 L 50 330.0 L 160 330.0"/>
<path class="line" d="M 50 409.0 L 50 488.0 L 160 488.0"/>
<path class="line" d="M 50 409.0 L 50 579.5 L 160 579.5"/>
<path class="line" d="M 50 656.0 L 50 732.5 L 160 732.5"/>
<path class="line" d="M 50 656.0 L 50 823.0 L 160 823.0"/>
<path class="line" d="M 50 656.0 L 50 911.0 L 160 911.0"/>
<path class="line" d="M 50 656.0 L 50 997.5 L 160 997.5"/>
<path class="line" d="M 50 1074.0 L 50 1153.0 L 160 1153.0"/>
<path class="line" d="M 50 1074.0 L 50 1244.5 L 160 1244.5"/>
<path class="line" d="M 50 1074.0 L 50 1336.0 L 160 1336.0"/>
<path class="line" d="M 50 1074.0 L 50 1427.5 L 160 1427.5"/>
<path class="line" d="M 50 1074.0 L 50 1516.5 L 160 1516.5"/>
<path class="line" d="M 50 1608.0 L 50 1702.0 L 160 1702.0"/>
<path class="line" d="M 50 1608.0 L 50 1781.0 L 160 1781.0"/>
<path class="line" d="M 50 1608.0 L 50 1860.0 L 160 1860.0"/>
<path class="line" d="M 50 1951.5 L 50 2043.0 L 160 2043.0"/>
<path class="line" d="M 50 1951.5 L 50 2137.0 L 160 2137.0"/>
<path class="line" d="M 50 1951.5 L 50 2228.5 L 160 2228.5"/>
<path class="line" d="M 50 1951.5 L 50 2305.0 L 160 2305.0"/>
<path class="line" d="M 50 1951.5 L 50 2384.0 L 160 2384.0"/>
<path class="line" d="M 50 2463.0 L 50 2539.5 L 160 2539.5"/>
<path class="line" d="M 50 2463.0 L 50 2616.0 L 160 2616.0"/>
<path class="line" d="M 50 2463.0 L 50 2677.5 L 160 2677.5"/>
<path class="line" d="M 50 2463.0 L 50 2751.5 L 160 2751.5"/>
<path class="line" d="M 50 2825.5 L 50 2899.5 L 160 2899.5"/>
<path class="line" d="M 50 2825.5 L 50 2976.0 L 160 2976.0"/>
<path class="line" d="M 50 2825.5 L 50 3052.5 L 160 3052.5"/>
<path class="line" d="M 50 2825.5 L 50 3126.5 L 160 3126.5"/>
<circle class="bullet" cx="50" cy="130.5" r="6"/>
<rect class="box" x="76" y="110" width="173" height="41" rx="8" ry="8"/>
<text x="90" y="144" class="node">
<tspan x="90" dy="0">1 Introduction</tspan>
</text>
<circle class="bullet" cx="50" cy="189.5" r="6"/>
<rect class="box" x="76" y="169" width="221" height="41" rx="8" ry="8"/>
<text x="90" y="203" class="node">
<tspan x="90" dy="0">2 Review Protocol</tspan>
</text>
<circle class="bullet" cx="160" cy="251.0" r="6"/>
<rect class="box" x="186" y="228" width="402" height="46" rx="8" ry="8"/>
<text x="200" y="262" class="node">
<tspan x="200" dy="0">2.1 Search Strategy and Screening</tspan>
</text>
<circle class="bullet" cx="160" cy="330.0" r="6"/>
<rect class="box" x="186" y="292" width="391" height="76" rx="8" ry="8"/>
<text x="200" y="326" class="node">
<tspan x="200" dy="0">2.2 Coding Scheme and Evidence</tspan>
<tspan x="200" dy="32">Synthesis</tspan>
</text>
<circle class="bullet" cx="50" cy="409.0" r="6"/>
<rect class="box" x="76" y="386" width="308" height="46" rx="8" ry="8"/>
<text x="90" y="420" class="node">
<tspan x="90" dy="0">3 Conceptual Foundations</tspan>
</text>
<circle class="bullet" cx="160" cy="488.0" r="6"/>
<rect class="box" x="186" y="450" width="384" height="76" rx="8" ry="8"/>
<text x="200" y="484" class="node">
<tspan x="200" dy="0">3.1 Grammaticality, Competence,</tspan>
<tspan x="200" dy="32">and Probability</tspan>
</text>
<circle class="bullet" cx="160" cy="579.5" r="6"/>
<rect class="box" x="186" y="544" width="368" height="71" rx="8" ry="8"/>
<text x="200" y="578" class="node">
<tspan x="200" dy="0">3.2 Interpretability, Probing, and</tspan>
<tspan x="200" dy="32">Mechanistic Claims</tspan>
</text>
<circle class="bullet" cx="50" cy="656.0" r="6"/>
<rect class="box" x="76" y="633" width="297" height="46" rx="8" ry="8"/>
<text x="90" y="667" class="node">
<tspan x="90" dy="0">4 Interpretability Methods</tspan>
</text>
<circle class="bullet" cx="160" cy="732.5" r="6"/>
<rect class="box" x="186" y="697" width="315" height="71" rx="8" ry="8"/>
<text x="200" y="731" class="node">
<tspan x="200" dy="0">4.1 Probing Classifiers and</tspan>
<tspan x="200" dy="32">Structural Probes</tspan>
</text>
<circle class="bullet" cx="160" cy="823.0" r="6"/>
<rect class="box" x="186" y="786" width="320" height="74" rx="8" ry="8"/>
<text x="200" y="820" class="node">
<tspan x="200" dy="0">4.2 Attention, Neurons, and</tspan>
<tspan x="200" dy="32">Geometry</tspan>
</text>
<circle class="bullet" cx="160" cy="911.0" r="6"/>
<rect class="box" x="186" y="878" width="352" height="66" rx="8" ry="8"/>
<text x="200" y="912" class="node">
<tspan x="200" dy="0">4.3 Causal and Counterfactual</tspan>
<tspan x="200" dy="32">Interventions</tspan>
</text>
<circle class="bullet" cx="160" cy="997.5" r="6"/>
<rect class="box" x="186" y="962" width="344" height="71" rx="8" ry="8"/>
<text x="200" y="996" class="node">
<tspan x="200" dy="0">4.4 Prompting and Behavioral</tspan>
<tspan x="200" dy="32">Readouts</tspan>
</text>
<circle class="bullet" cx="50" cy="1074.0" r="6"/>
<rect class="box" x="76" y="1051" width="281" height="46" rx="8" ry="8"/>
<text x="90" y="1085" class="node">
<tspan x="90" dy="0">5 Syntactic Phenomena</tspan>
</text>
<circle class="bullet" cx="160" cy="1153.0" r="6"/>
<rect class="box" x="186" y="1115" width="394" height="76" rx="8" ry="8"/>
<text x="200" y="1149" class="node">
<tspan x="200" dy="0">5.1 Agreement and Long-Distance</tspan>
<tspan x="200" dy="32">Dependencies</tspan>
</text>
<circle class="bullet" cx="160" cy="1244.5" r="6"/>
<rect class="box" x="186" y="1209" width="355" height="71" rx="8" ry="8"/>
<text x="200" y="1243" class="node">
<tspan x="200" dy="0">5.2 Constituency, Parsing, and</tspan>
<tspan x="200" dy="32">Hierarchical Structure</tspan>
</text>
<circle class="bullet" cx="160" cy="1336.0" r="6"/>
<rect class="box" x="186" y="1298" width="291" height="76" rx="8" ry="8"/>
<text x="200" y="1332" class="node">
<tspan x="200" dy="0">5.3 Binding, Islands, and</tspan>
<tspan x="200" dy="32">Monotonicity</tspan>
</text>
<circle class="bullet" cx="160" cy="1427.5" r="6"/>
<rect class="box" x="186" y="1392" width="386" height="71" rx="8" ry="8"/>
<text x="200" y="1426" class="node">
<tspan x="200" dy="0">5.4 Word Order, Morphology, and</tspan>
<tspan x="200" dy="32">Context</tspan>
</text>
<circle class="bullet" cx="160" cy="1516.5" r="6"/>
<rect class="box" x="186" y="1481" width="321" height="71" rx="8" ry="8"/>
<text x="200" y="1515" class="node">
<tspan x="200" dy="0">5.5 Constructions and</tspan>
<tspan x="200" dy="32">Syntax-Semantics Interface</tspan>
</text>
<circle class="bullet" cx="50" cy="1608.0" r="6"/>
<rect class="box" x="76" y="1570" width="369" height="76" rx="8" ry="8"/>
<text x="90" y="1604" class="node">
<tspan x="90" dy="0">6 Multilingual and Cross-Lingual</tspan>
<tspan x="90" dy="32">Syntax</tspan>
</text>
<circle class="bullet" cx="160" cy="1702.0" r="6"/>
<rect class="box" x="186" y="1664" width="337" height="76" rx="8" ry="8"/>
<text x="200" y="1698" class="node">
<tspan x="200" dy="0">6.1 Typological Variation and</tspan>
<tspan x="200" dy="32">Language Identity</tspan>
</text>
<circle class="bullet" cx="160" cy="1781.0" r="6"/>
<rect class="box" x="186" y="1758" width="348" height="46" rx="8" ry="8"/>
<text x="200" y="1792" class="node">
<tspan x="200" dy="0">6.2 Low-Resource Languages</tspan>
</text>
<circle class="bullet" cx="160" cy="1860.0" r="6"/>
<rect class="box" x="186" y="1822" width="376" height="76" rx="8" ry="8"/>
<text x="200" y="1856" class="node">
<tspan x="200" dy="0">6.3 Cross-Lingual Alignment and</tspan>
<tspan x="200" dy="32">Shared Representations</tspan>
</text>
<circle class="bullet" cx="50" cy="1951.5" r="6"/>
<rect class="box" x="76" y="1916" width="403" height="71" rx="8" ry="8"/>
<text x="90" y="1950" class="node">
<tspan x="90" dy="0">7 Learning Dynamics and Inductive</tspan>
<tspan x="90" dy="32">Bias</tspan>
</text>
<circle class="bullet" cx="160" cy="2043.0" r="6"/>
<rect class="box" x="186" y="2005" width="320" height="76" rx="8" ry="8"/>
<text x="200" y="2039" class="node">
<tspan x="200" dy="0">7.1 Data Scale and Sample</tspan>
<tspan x="200" dy="32">Efficiency</tspan>
</text>
<circle class="bullet" cx="160" cy="2137.0" r="6"/>
<rect class="box" x="186" y="2099" width="350" height="76" rx="8" ry="8"/>
<text x="200" y="2133" class="node">
<tspan x="200" dy="0">7.2 Pretraining Objectives and</tspan>
<tspan x="200" dy="32">Masking</tspan>
</text>
<circle class="bullet" cx="160" cy="2228.5" r="6"/>
<rect class="box" x="186" y="2193" width="327" height="71" rx="8" ry="8"/>
<text x="200" y="2227" class="node">
<tspan x="200" dy="0">7.3 Architectural Biases and</tspan>
<tspan x="200" dy="32">Syntax Injection</tspan>
</text>
<circle class="bullet" cx="160" cy="2305.0" r="6"/>
<rect class="box" x="186" y="2282" width="403" height="46" rx="8" ry="8"/>
<text x="200" y="2316" class="node">
<tspan x="200" dy="0">7.4 Emergence Over Training Time</tspan>
</text>
<circle class="bullet" cx="160" cy="2384.0" r="6"/>
<rect class="box" x="186" y="2346" width="324" height="76" rx="8" ry="8"/>
<text x="200" y="2380" class="node">
<tspan x="200" dy="0">7.5 Artificial Languages and</tspan>
<tspan x="200" dy="32">Counterfactual Learning</tspan>
</text>
<circle class="bullet" cx="50" cy="2463.0" r="6"/>
<rect class="box" x="76" y="2440" width="305" height="46" rx="8" ry="8"/>
<text x="90" y="2474" class="node">
<tspan x="90" dy="0">8 Methodological Debates</tspan>
</text>
<circle class="bullet" cx="160" cy="2539.5" r="6"/>
<rect class="box" x="186" y="2504" width="348" height="71" rx="8" ry="8"/>
<text x="200" y="2538" class="node">
<tspan x="200" dy="0">8.1 Probing Limits and Causal</tspan>
<tspan x="200" dy="32">Claims</tspan>
</text>
<circle class="bullet" cx="160" cy="2616.0" r="6"/>
<rect class="box" x="186" y="2593" width="415" height="46" rx="8" ry="8"/>
<text x="200" y="2627" class="node">
<tspan x="200" dy="0">8.2 Representation Versus Behavior</tspan>
</text>
<circle class="bullet" cx="160" cy="2677.5" r="6"/>
<rect class="box" x="186" y="2657" width="339" height="41" rx="8" ry="8"/>
<text x="200" y="2691" class="node">
<tspan x="200" dy="0">8.3 Confounds and Shortcuts</tspan>
</text>
<circle class="bullet" cx="160" cy="2751.5" r="6"/>
<rect class="box" x="186" y="2716" width="454" height="71" rx="8" ry="8"/>
<text x="200" y="2750" class="node">
<tspan x="200" dy="0">8.4 Benchmark Robustness and Human</tspan>
<tspan x="200" dy="32">Comparability</tspan>
</text>
<circle class="bullet" cx="50" cy="2825.5" r="6"/>
<rect class="box" x="76" y="2805" width="231" height="41" rx="8" ry="8"/>
<text x="90" y="2839" class="node">
<tspan x="90" dy="0">9 Future Directions</tspan>
</text>
<circle class="bullet" cx="160" cy="2899.5" r="6"/>
<rect class="box" x="186" y="2864" width="409" height="71" rx="8" ry="8"/>
<text x="200" y="2898" class="node">
<tspan x="200" dy="0">9.1 Toward Causal and Mechanistic</tspan>
<tspan x="200" dy="32">Syntax</tspan>
</text>
<circle class="bullet" cx="160" cy="2976.0" r="6"/>
<rect class="box" x="186" y="2953" width="371" height="46" rx="8" ry="8"/>
<text x="200" y="2987" class="node">
<tspan x="200" dy="0">9.2 Broader Linguistic Coverage</tspan>
</text>
<circle class="bullet" cx="160" cy="3052.5" r="6"/>
<rect class="box" x="186" y="3017" width="320" height="71" rx="8" ry="8"/>
<text x="200" y="3051" class="node">
<tspan x="200" dy="0">9.3 Syntax, Semantics, and</tspan>
<tspan x="200" dy="32">Discourse</tspan>
</text>
<circle class="bullet" cx="160" cy="3126.5" r="6"/>
<rect class="box" x="186" y="3106" width="343" height="41" rx="8" ry="8"/>
<text x="200" y="3140" class="node">
<tspan x="200" dy="0">9.4 Evaluation for Future LMs</tspan>
</text>
<circle class="bullet" cx="50" cy="3185.5" r="6"/>
<rect class="box" x="76" y="3165" width="180" height="41" rx="8" ry="8"/>
<text x="90" y="3199" class="node">
<tspan x="90" dy="0">10 Conclusion</tspan>
</text>
</svg>