<svg xmlns="http://www.w3.org/2000/svg" width="1200" height="574" viewBox="0 0 1200 574">
<rect width="100%" height="100%" fill="white"/>
<style>text{font-family:Arial,Helvetica,sans-serif;} .title{font-size:30px;font-weight:700;fill:#101828;} .meta{font-size:18px;fill:#667085;} .node{font-size:24px;fill:#18181b;} .line{stroke:#a6b0c3;stroke-width:3;fill:none;} .bullet{fill:#465d7f;} .box{fill:#f8fafc;stroke:#cbd5e1;stroke-width:2;}</style>
<text x="40" y="52" class="title">2601.19926 Gold Outline Tree</text>
<text x="40" y="86" class="meta">Source: data/paper_sets/meow_refs/2601.19926/outline.json | Nodes: 7</text>
<path class="line" d="M 50 248.5 L 50 310.0 L 160 310.0"/>
<path class="line" d="M 50 248.5 L 50 372.0 L 160 372.0"/>
<path class="line" d="M 50 248.5 L 50 434.0 L 160 434.0"/>
<circle class="bullet" cx="50" cy="130.5" r="6"/>
<rect class="box" x="76" y="110" width="173" height="41" rx="8" ry="8"/>
<text x="90" y="144" class="node">
<tspan x="90" dy="0">1 Introduction</tspan>
</text>
<circle class="bullet" cx="50" cy="189.5" r="6"/>
<rect class="box" x="76" y="169" width="128" height="41" rx="8" ry="8"/>
<text x="90" y="203" class="node">
<tspan x="90" dy="0">2 Method</tspan>
</text>
<circle class="bullet" cx="50" cy="248.5" r="6"/>
<rect class="box" x="76" y="228" width="128" height="41" rx="8" ry="8"/>
<text x="90" y="262" class="node">
<tspan x="90" dy="0">3 Results</tspan>
</text>
<circle class="bullet" cx="160" cy="310.0" r="6"/>
<rect class="box" x="186" y="287" width="367" height="46" rx="8" ry="8"/>
<text x="200" y="321" class="node">
<tspan x="200" dy="0">3.1 RQ1: Linguistic Phenomena</tspan>
</text>
<circle class="bullet" cx="160" cy="372.0" r="6"/>
<rect class="box" x="186" y="351" width="223" height="42" rx="8" ry="8"/>
<text x="200" y="385" class="node">
<tspan x="200" dy="0">3.2 RQ2: Methods</tspan>
</text>
<circle class="bullet" cx="160" cy="434.0" r="6"/>
<rect class="box" x="186" y="411" width="412" height="46" rx="8" ry="8"/>
<text x="200" y="445" class="node">
<tspan x="200" dy="0">3.3 RQ3: Knowledge status - BLiMP</tspan>
</text>
<circle class="bullet" cx="50" cy="495.5" r="6"/>
<rect class="box" x="76" y="475" width="319" height="41" rx="8" ry="8"/>
<text x="90" y="509" class="node">
<tspan x="90" dy="0">4 Discussion \&amp; Conclusion</tspan>
</text>
</svg>